{"glyphs":{"\u0001":{"ha":1389,"x_min":0,"x_max":0,"o":"m 339 881 l 306 714 l 360 697 z m 273 1148 l 271 1143 l 269 1139 l 267 1133 l 266 1127 l 263 1123 l 261 1118 l 260 1114 l 258 1110 l 256 1104 l 254 1098 l 252 1095 l 250 1090 l 248 1085 l 246 1079 l 244 1075 l 242 1069 l 240 1065 l 238 1062 l 237 1056 l 235 1050 l 233 1046 l 231 1040 l 229 1037 l 227 1031 l 225 1025 l 223 1021 l 221 1017 l 219 1011 l 217 1006 l 215 1002 l 213 996 l 211 992 l 210 988 l 208 983 l 205 977 l 204 973 l 202 969 l 200 963 l 198 958 l 196 954 l 194 948 l 192 944 l 190 940 l 188 935 l 186 929 l 184 925 l 182 919 l 180 915 l 179 909 l 177 903 l 175 900 l 173 896 l 171 890 l 169 884 l 167 880 l 165 877 l 163 871 l 161 865 l 159 861 l 157 855 l 155 851 l 154 848 l 152 842 l 150 836 l 148 832 l 146 826 l 144 823 l 142 817 l 140 811 l 138 807 l 136 803 l 134 798 l 132 792 l 131 788 l 129 782 l 126 778 l 124 774 l 123 767 l 121 763 l 119 759 l 117 755 l 115 749 l 113 744 l 111 740 l 109 734 l 107 730 l 105 724 l 103 719 l 101 714 l 100 711 l 98 705 l 96 701 l 94 695 l 92 689 l 90 686 l 88 682 l 86 676 l 84 670 l 82 667 l 80 661 l 78 657 l 76 653 l 75 647 l 73 642 l 71 637 l 68 634 l 67 626 l 65 622 l 63 618 l 61 612 l 59 609 l 57 603 l 55 597 l 53 593 l 51 589 l 49 584 l 47 578 l 45 574 l 44 568 l 42 564 l 40 561 l 38 553 l 36 549 l 34 545 l 32 539 l 30 535 l 28 530 l 26 526 l 24 520 l 22 516 l 20 510 l 18 505 l 17 501 l 15 497 l 13 491 l 11 487 l 9 481 l 7 475 l 5 472 l 3 466 l 1 462 l 0 456 l -2 452 l -4 447 l -6 443 l -8 439 l -10 431 l -12 427 l -14 424 l -16 420 l -18 414 l -20 408 l -22 404 l -23 398 l -25 395 l -27 389 l -30 383 l -31 379 l -33 375 l -35 370 l -37 366 l -39 360 l -41 354 l -43 350 l -45 345 l -47 339 l -49 335 l -51 331 l -53 325 l -55 321 l -57 316 l -58 310 l -60 306 l -62 302 l -64 296 l -66 291 l -68 287 l -70 283 l -72 277 l -74 273 l -76 267 l -78 261 l -80 258 l -81 252 l -83 248 l -85 242 l -87 238 l -89 233 l -91 229 l -93 225 l -95 217 l -97 213 l -99 210 l -101 204 l -103 200 l -105 194 l -106 190 l -109 184 l -110 180 l -112 175 l -114 169 l -116 165 l -118 161 l -120 156 l -122 152 l -124 146 l -126 140 l -128 136 l -130 131 l -130 121 l -128 117 l -126 115 l -124 113 l -122 109 l -120 107 l -118 103 l -116 101 l -114 98 l -112 96 l -110 94 l -109 90 l -106 88 l -105 84 l -103 82 l -101 78 l -99 77 l -97 75 l -95 71 l -93 69 l -91 65 l -89 63 l -87 59 l -85 57 l -83 55 l -81 52 l -80 50 l -78 47 l -74 45 l -33 44 l 1 42 l 38 40 l 73 38 l 109 36 l 144 34 l 180 32 l 219 32 l 223 34 l 229 36 l 233 38 l 237 40 l 242 42 l 248 44 l 250 45 l 256 47 l 260 50 l 266 52 l 269 53 l 273 55 l 279 57 l 283 59 l 289 61 l 293 63 l 298 65 l 302 67 l 306 69 l 312 71 l 317 73 l 319 75 l 325 77 l 331 78 l 335 80 l 339 82 l 345 84 l 348 86 l 354 88 l 358 90 l 364 92 l 368 94 l 372 96 l 377 98 l 381 100 l 387 101 l 391 103 l 395 105 l 400 107 l 404 109 l 408 111 l 414 113 l 418 115 l 424 117 l 428 119 l 431 121 l 437 123 l 441 125 l 443 126 l 445 129 l 447 132 l 449 134 l 451 142 l 452 150 l 454 159 l 455 168 l 458 165 l 464 163 l 470 161 l 476 159 l 481 157 l 487 156 l 491 154 l 497 152 l 503 150 l 509 148 l 514 146 l 520 144 l 526 142 l 532 140 l 535 138 l 541 136 l 547 134 l 553 132 l 558 131 l 565 129 l 572 126 l 576 125 l 582 123 l 588 121 l 593 119 l 599 117 l 605 115 l 611 113 l 616 111 l 621 109 l 626 107 l 632 105 l 638 103 l 644 101 l 649 100 l 655 98 l 661 96 l 665 94 l 671 92 l 680 90 l 690 88 l 701 86 l 713 84 l 723 82 l 734 80 l 746 78 l 755 77 l 765 75 l 777 73 l 786 71 l 798 69 l 815 69 l 817 71 l 819 73 l 821 75 l 823 77 l 825 78 l 827 80 l 829 82 l 830 84 l 832 86 l 834 88 l 836 92 l 838 94 l 840 96 l 842 98 l 844 100 l 846 101 l 848 103 l 850 109 l 850 123 l 848 129 l 846 136 l 844 144 l 842 150 l 840 157 l 838 163 l 836 169 l 834 177 l 832 184 l 830 190 l 829 196 l 827 204 l 825 210 l 823 217 l 821 223 l 819 231 l 817 237 l 815 244 l 813 252 l 811 258 l 809 266 l 807 271 l 805 277 l 804 285 l 802 291 l 800 298 l 798 304 l 796 312 l 794 317 l 792 325 l 790 331 l 788 339 l 786 345 l 784 352 l 782 358 l 781 366 l 779 372 l 777 379 l 774 385 l 773 393 l 771 398 l 769 406 l 767 414 l 765 420 l 763 427 l 761 433 l 759 439 l 757 445 l 755 452 l 753 458 l 751 466 l 749 474 l 748 479 l 746 487 l 744 493 l 742 501 l 740 506 l 738 514 l 736 520 l 734 528 l 732 533 l 730 541 l 728 547 l 726 555 l 724 561 l 723 566 l 721 574 l 719 582 l 717 588 l 715 595 l 713 601 l 711 607 l 709 614 l 707 620 l 705 628 l 703 636 l 701 642 l 699 649 l 697 655 l 695 663 l 694 668 l 692 676 l 690 684 l 688 689 l 686 695 l 684 701 l 682 709 l 680 714 l 678 722 l 676 728 l 674 736 l 672 744 l 671 749 l 669 757 l 667 763 l 665 769 l 663 776 l 661 782 l 659 790 l 657 798 l 655 803 l 653 811 l 651 817 l 649 824 l 647 830 l 645 836 l 644 844 l 642 851 l 640 857 l 638 863 l 636 871 l 634 877 l 632 880 l 630 882 l 628 884 l 626 888 l 624 890 l 622 892 l 621 894 l 618 898 l 616 900 l 614 902 l 613 903 l 611 905 l 609 909 l 607 911 l 605 913 l 603 915 l 601 919 l 599 921 l 597 923 l 595 925 l 593 927 l 591 930 l 590 932 l 588 935 l 586 938 l 584 940 l 582 942 l 580 944 l 578 946 l 576 950 l 574 952 l 572 954 l 570 956 l 568 960 l 566 961 l 565 963 l 563 965 l 561 967 l 558 971 l 557 973 l 555 975 l 553 977 l 551 981 l 549 983 l 547 984 l 545 986 l 543 988 l 541 992 l 539 994 l 537 998 l 535 1000 l 534 1002 l 532 1006 l 530 1008 l 528 1009 l 526 1011 l 524 1014 l 522 1017 l 520 1019 l 518 1021 l 516 1023 l 514 1027 l 512 1029 l 510 1031 l 509 1033 l 507 1035 l 505 1039 l 503 1040 l 501 1042 l 499 1044 l 497 1046 l 495 1050 l 493 1052 l 491 1054 l 489 1056 l 487 1060 l 486 1062 l 484 1064 l 481 1065 l 479 1069 l 478 1071 l 476 1073 l 474 1075 l 472 1079 l 470 1081 l 468 1083 l 466 1085 l 464 1087 l 462 1090 l 460 1093 l 458 1095 l 456 1096 l 454 1100 l 452 1102 l 451 1104 l 449 1106 l 443 1108 l 437 1110 l 429 1112 l 422 1114 l 414 1116 l 406 1118 l 400 1119 l 393 1121 l 387 1123 l 379 1125 l 372 1127 l 366 1129 l 358 1131 l 348 1133 l 342 1135 l 335 1137 l 329 1139 l 321 1141 l 314 1143 l 308 1145 l 300 1146 l 294 1148 l 285 1150 l 275 1150 z m -109 129 b -95 169 -109 132 -104 146 b -64 247 -86 193 -75 219 b -31 328 -52 275 -41 302 b -11 379 -20 354 -13 371 b 39 504 4 421 20 462 b 89 629 58 545 74 587 b 137 754 103 670 119 712 b 188 879 155 797 172 838 b 213 941 196 900 204 920 b 238 1004 221 962 229 983 b 262 1067 246 1024 254 1045 b 275 1099 265 1076 269 1086 b 287 1129 281 1111 284 1121 b 353 1108 303 1121 325 1114 b 425 1092 380 1103 404 1097 b 443 1065 433 1090 438 1081 b 452 1030 446 1050 450 1038 b 462 997 456 1019 459 1008 b 472 963 465 985 468 974 b 510 828 485 918 498 873 b 549 692 522 782 535 737 b 587 555 563 647 576 601 b 627 419 599 508 612 463 b 649 351 634 400 641 377 b 667 283 657 325 663 302 b 684 213 670 267 675 243 b 705 148 692 182 699 160 l 673 113 b 603 135 653 117 629 125 b 532 161 576 146 553 154 b 497 173 521 165 509 169 b 461 186 485 177 473 181 b 449 196 454 189 450 192 b 446 217 449 200 448 207 b 443 236 445 223 444 229 b 439 256 442 243 440 250 b 424 335 434 282 429 308 b 410 414 419 361 414 388 b 395 493 406 436 401 462 b 387 533 393 502 390 516 b 381 572 383 551 381 564 l 274 614 l 233 414 l 250 393 l 202 179 l -69 67 l -70 69 b -91 100 -73 74 -80 84 b -109 129 -103 116 -109 125 z "},"\u0000":{"ha":0,"x_min":0,"x_max":0,"o":""},"\t":{"ha":339,"x_min":0,"x_max":0,"o":""},"\r":{"ha":1389,"x_min":0,"x_max":0,"o":""},"A":{"ha":814,"x_min":0,"x_max":0,"o":"m 339 881 l 306 714 l 360 697 z m 273 1148 l 271 1143 l 269 1139 l 267 1133 l 266 1127 l 263 1123 l 261 1118 l 260 1114 l 258 1110 l 256 1104 l 254 1098 l 252 1095 l 250 1090 l 248 1085 l 246 1079 l 244 1075 l 242 1069 l 240 1065 l 238 1062 l 237 1056 l 235 1050 l 233 1046 l 231 1040 l 229 1037 l 227 1031 l 225 1025 l 223 1021 l 221 1017 l 219 1011 l 217 1006 l 215 1002 l 213 996 l 211 992 l 210 988 l 208 983 l 205 977 l 204 973 l 202 969 l 200 963 l 198 958 l 196 954 l 194 948 l 192 944 l 190 940 l 188 935 l 186 929 l 184 925 l 182 919 l 180 915 l 179 909 l 177 903 l 175 900 l 173 896 l 171 890 l 169 884 l 167 880 l 165 877 l 163 871 l 161 865 l 159 861 l 157 855 l 155 851 l 154 848 l 152 842 l 150 836 l 148 832 l 146 826 l 144 823 l 142 817 l 140 811 l 138 807 l 136 803 l 134 798 l 132 792 l 131 788 l 129 782 l 126 778 l 124 774 l 123 767 l 121 763 l 119 759 l 117 755 l 115 749 l 113 744 l 111 740 l 109 734 l 107 730 l 105 724 l 103 719 l 101 714 l 100 711 l 98 705 l 96 701 l 94 695 l 92 689 l 90 686 l 88 682 l 86 676 l 84 670 l 82 667 l 80 661 l 78 657 l 76 653 l 75 647 l 73 642 l 71 637 l 68 634 l 67 626 l 65 622 l 63 618 l 61 612 l 59 609 l 57 603 l 55 597 l 53 593 l 51 589 l 49 584 l 47 578 l 45 574 l 44 568 l 42 564 l 40 561 l 38 553 l 36 549 l 34 545 l 32 539 l 30 535 l 28 530 l 26 526 l 24 520 l 22 516 l 20 510 l 18 505 l 17 501 l 15 497 l 13 491 l 11 487 l 9 481 l 7 475 l 5 472 l 3 466 l 1 462 l 0 456 l -2 452 l -4 447 l -6 443 l -8 439 l -10 431 l -12 427 l -14 424 l -16 420 l -18 414 l -20 408 l -22 404 l -23 398 l -25 395 l -27 389 l -30 383 l -31 379 l -33 375 l -35 370 l -37 366 l -39 360 l -41 354 l -43 350 l -45 345 l -47 339 l -49 335 l -51 331 l -53 325 l -55 321 l -57 316 l -58 310 l -60 306 l -62 302 l -64 296 l -66 291 l -68 287 l -70 283 l -72 277 l -74 273 l -76 267 l -78 261 l -80 258 l -81 252 l -83 248 l -85 242 l -87 238 l -89 233 l -91 229 l -93 225 l -95 217 l -97 213 l -99 210 l -101 204 l -103 200 l -105 194 l -106 190 l -109 184 l -110 180 l -112 175 l -114 169 l -116 165 l -118 161 l -120 156 l -122 152 l -124 146 l -126 140 l -128 136 l -130 131 l -130 121 l -128 117 l -126 115 l -124 113 l -122 109 l -120 107 l -118 103 l -116 101 l -114 98 l -112 96 l -110 94 l -109 90 l -106 88 l -105 84 l -103 82 l -101 78 l -99 77 l -97 75 l -95 71 l -93 69 l -91 65 l -89 63 l -87 59 l -85 57 l -83 55 l -81 52 l -80 50 l -78 47 l -74 45 l -33 44 l 1 42 l 38 40 l 73 38 l 109 36 l 144 34 l 180 32 l 219 32 l 223 34 l 229 36 l 233 38 l 237 40 l 242 42 l 248 44 l 250 45 l 256 47 l 260 50 l 266 52 l 269 53 l 273 55 l 279 57 l 283 59 l 289 61 l 293 63 l 298 65 l 302 67 l 306 69 l 312 71 l 317 73 l 319 75 l 325 77 l 331 78 l 335 80 l 339 82 l 345 84 l 348 86 l 354 88 l 358 90 l 364 92 l 368 94 l 372 96 l 377 98 l 381 100 l 387 101 l 391 103 l 395 105 l 400 107 l 404 109 l 408 111 l 414 113 l 418 115 l 424 117 l 428 119 l 431 121 l 437 123 l 441 125 l 443 126 l 445 129 l 447 132 l 449 134 l 451 142 l 452 150 l 454 159 l 455 168 l 458 165 l 464 163 l 470 161 l 476 159 l 481 157 l 487 156 l 491 154 l 497 152 l 503 150 l 509 148 l 514 146 l 520 144 l 526 142 l 532 140 l 535 138 l 541 136 l 547 134 l 553 132 l 558 131 l 565 129 l 572 126 l 576 125 l 582 123 l 588 121 l 593 119 l 599 117 l 605 115 l 611 113 l 616 111 l 621 109 l 626 107 l 632 105 l 638 103 l 644 101 l 649 100 l 655 98 l 661 96 l 665 94 l 671 92 l 680 90 l 690 88 l 701 86 l 713 84 l 723 82 l 734 80 l 746 78 l 755 77 l 765 75 l 777 73 l 786 71 l 798 69 l 815 69 l 817 71 l 819 73 l 821 75 l 823 77 l 825 78 l 827 80 l 829 82 l 830 84 l 832 86 l 834 88 l 836 92 l 838 94 l 840 96 l 842 98 l 844 100 l 846 101 l 848 103 l 850 109 l 850 123 l 848 129 l 846 136 l 844 144 l 842 150 l 840 157 l 838 163 l 836 169 l 834 177 l 832 184 l 830 190 l 829 196 l 827 204 l 825 210 l 823 217 l 821 223 l 819 231 l 817 237 l 815 244 l 813 252 l 811 258 l 809 266 l 807 271 l 805 277 l 804 285 l 802 291 l 800 298 l 798 304 l 796 312 l 794 317 l 792 325 l 790 331 l 788 339 l 786 345 l 784 352 l 782 358 l 781 366 l 779 372 l 777 379 l 774 385 l 773 393 l 771 398 l 769 406 l 767 414 l 765 420 l 763 427 l 761 433 l 759 439 l 757 445 l 755 452 l 753 458 l 751 466 l 749 474 l 748 479 l 746 487 l 744 493 l 742 501 l 740 506 l 738 514 l 736 520 l 734 528 l 732 533 l 730 541 l 728 547 l 726 555 l 724 561 l 723 566 l 721 574 l 719 582 l 717 588 l 715 595 l 713 601 l 711 607 l 709 614 l 707 620 l 705 628 l 703 636 l 701 642 l 699 649 l 697 655 l 695 663 l 694 668 l 692 676 l 690 684 l 688 689 l 686 695 l 684 701 l 682 709 l 680 714 l 678 722 l 676 728 l 674 736 l 672 744 l 671 749 l 669 757 l 667 763 l 665 769 l 663 776 l 661 782 l 659 790 l 657 798 l 655 803 l 653 811 l 651 817 l 649 824 l 647 830 l 645 836 l 644 844 l 642 851 l 640 857 l 638 863 l 636 871 l 634 877 l 632 880 l 630 882 l 628 884 l 626 888 l 624 890 l 622 892 l 621 894 l 618 898 l 616 900 l 614 902 l 613 903 l 611 905 l 609 909 l 607 911 l 605 913 l 603 915 l 601 919 l 599 921 l 597 923 l 595 925 l 593 927 l 591 930 l 590 932 l 588 935 l 586 938 l 584 940 l 582 942 l 580 944 l 578 946 l 576 950 l 574 952 l 572 954 l 570 956 l 568 960 l 566 961 l 565 963 l 563 965 l 561 967 l 558 971 l 557 973 l 555 975 l 553 977 l 551 981 l 549 983 l 547 984 l 545 986 l 543 988 l 541 992 l 539 994 l 537 998 l 535 1000 l 534 1002 l 532 1006 l 530 1008 l 528 1009 l 526 1011 l 524 1014 l 522 1017 l 520 1019 l 518 1021 l 516 1023 l 514 1027 l 512 1029 l 510 1031 l 509 1033 l 507 1035 l 505 1039 l 503 1040 l 501 1042 l 499 1044 l 497 1046 l 495 1050 l 493 1052 l 491 1054 l 489 1056 l 487 1060 l 486 1062 l 484 1064 l 481 1065 l 479 1069 l 478 1071 l 476 1073 l 474 1075 l 472 1079 l 470 1081 l 468 1083 l 466 1085 l 464 1087 l 462 1090 l 460 1093 l 458 1095 l 456 1096 l 454 1100 l 452 1102 l 451 1104 l 449 1106 l 443 1108 l 437 1110 l 429 1112 l 422 1114 l 414 1116 l 406 1118 l 400 1119 l 393 1121 l 387 1123 l 379 1125 l 372 1127 l 366 1129 l 358 1131 l 348 1133 l 342 1135 l 335 1137 l 329 1139 l 321 1141 l 314 1143 l 308 1145 l 300 1146 l 294 1148 l 285 1150 l 275 1150 z m -109 129 b -95 169 -109 132 -104 146 b -64 247 -86 193 -75 219 b -31 328 -52 275 -41 302 b -11 379 -20 354 -13 371 b 39 504 4 421 20 462 b 89 629 58 545 74 587 b 137 754 103 670 119 712 b 188 879 155 797 172 838 b 213 941 196 900 204 920 b 238 1004 221 962 229 983 b 262 1067 246 1024 254 1045 b 275 1099 265 1076 269 1086 b 287 1129 281 1111 284 1121 b 353 1108 303 1121 325 1114 b 425 1092 380 1103 404 1097 b 443 1065 433 1090 438 1081 b 452 1030 446 1050 450 1038 b 462 997 456 1019 459 1008 b 472 963 465 985 468 974 b 510 828 485 918 498 873 b 549 692 522 782 535 737 b 587 555 563 647 576 601 b 627 419 599 508 612 463 b 649 351 634 400 641 377 b 667 283 657 325 663 302 b 684 213 670 267 675 243 b 705 148 692 182 699 160 l 673 113 b 603 135 653 117 629 125 b 532 161 576 146 553 154 b 497 173 521 165 509 169 b 461 186 485 177 473 181 b 449 196 454 189 450 192 b 446 217 449 200 448 207 b 443 236 445 223 444 229 b 439 256 442 243 440 250 b 424 335 434 282 429 308 b 410 414 419 361 414 388 b 395 493 406 436 401 462 b 387 533 393 502 390 516 b 381 572 383 551 381 564 l 274 614 l 233 414 l 250 393 l 202 179 l -69 67 l -70 69 b -91 100 -73 74 -80 84 b -109 129 -103 116 -109 125 z "},"B":{"ha":644,"x_min":0,"x_max":0,"o":"m 174 567 l 150 387 l 357 500 l 369 606 z m 318 688 l 506 709 l 445 341 l -83 63 l -115 137 b -103 178 -112 149 -108 163 b -90 218 -98 192 -94 206 b -77 259 -85 232 -81 245 b -65 300 -74 273 -70 286 b -15 465 -46 355 -29 410 b 6 550 -7 493 -1 521 b 26 636 12 578 19 607 b 37 679 30 651 34 665 b 47 722 40 693 44 707 b 57 767 50 731 53 746 b 68 809 62 788 65 803 l 15 799 l 59 1071 l 383 1132 l 547 919 z m 227 822 l 209 744 l 334 852 z m 373 1148 l 363 1146 l 353 1144 l 342 1142 l 332 1140 l 322 1138 l 310 1136 l 301 1134 l 291 1132 l 279 1130 l 270 1128 l 260 1126 l 248 1124 l 238 1122 l 229 1121 l 217 1119 l 207 1117 l 197 1115 l 185 1113 l 176 1111 l 166 1109 l 154 1107 l 144 1105 l 135 1103 l 123 1101 l 113 1099 l 104 1097 l 92 1095 l 82 1093 l 72 1091 l 61 1089 l 51 1087 l 43 1085 l 41 1074 l 39 1062 l 37 1050 l 35 1039 l 34 1025 l 32 1013 l 30 1002 l 27 988 l 25 976 l 24 964 l 22 951 l 20 939 l 18 927 l 16 916 l 14 902 l 12 890 l 10 879 l 8 865 l 6 853 l 4 842 l 2 828 l 0 816 l -1 804 l -3 793 l -5 779 l -5 777 l 6 775 l 10 773 l 14 771 l 16 769 l 20 767 l 24 765 l 25 764 l 30 762 l 34 760 l 35 758 l 37 755 l 35 748 l 34 740 l 32 732 l 30 724 l 27 716 l 25 707 l 24 699 l 22 691 l 20 684 l 18 676 l 16 668 l 14 660 l 12 652 l 10 643 l 8 635 l 6 627 l 4 619 l 2 611 l 0 604 l -1 596 l -3 586 l -5 578 l -7 570 l -9 563 l -11 555 l -13 547 l -15 539 l -17 531 l -19 522 l -21 514 l -23 506 l -25 498 l -27 490 l -29 483 l -31 475 l -33 469 l -35 461 l -37 455 l -38 449 l -40 441 l -42 436 l -44 430 l -46 424 l -48 416 l -50 410 l -52 405 l -54 397 l -56 391 l -58 385 l -60 377 l -62 371 l -64 366 l -66 359 l -68 352 l -70 346 l -72 340 l -74 332 l -76 327 l -77 320 l -79 315 l -81 307 l -83 301 l -85 295 l -87 288 l -89 281 l -91 276 l -93 268 l -95 262 l -97 256 l -99 251 l -101 242 l -103 237 l -105 231 l -107 223 l -109 217 l -111 211 l -113 205 l -115 198 l -116 192 l -118 186 l -120 178 l -122 172 l -124 166 l -126 160 l -128 153 l -130 147 l -132 141 l -132 133 l -130 129 l -128 123 l -126 120 l -124 116 l -122 110 l -120 106 l -118 100 l -116 96 l -115 92 l -113 86 l -111 82 l -109 79 l -107 73 l -105 69 l -103 63 l -101 59 l -99 55 l -97 49 l -95 45 l -93 40 l -89 40 l -85 41 l -81 41 l -31 40 l 18 38 l 68 36 l 119 34 l 170 32 l 199 32 l 203 34 l 207 36 l 211 38 l 215 40 l 219 41 l 221 43 l 224 45 l 229 47 l 232 49 l 236 52 l 240 53 l 244 55 l 248 57 l 252 59 l 256 61 l 258 63 l 262 65 l 266 67 l 270 69 l 273 71 l 277 73 l 281 75 l 285 77 l 289 79 l 293 81 l 295 82 l 299 84 l 303 86 l 307 89 l 310 91 l 314 92 l 318 94 l 322 96 l 326 98 l 330 100 l 332 102 l 336 104 l 340 106 l 343 108 l 348 110 l 351 112 l 355 114 l 359 116 l 363 118 l 365 120 l 369 121 l 373 123 l 377 125 l 381 127 l 385 129 l 389 131 l 392 133 l 396 135 l 400 137 l 402 139 l 406 141 l 410 143 l 414 145 l 418 147 l 422 149 l 426 151 l 429 153 l 433 155 l 437 157 l 439 159 l 443 160 l 447 162 l 451 164 l 455 166 l 459 168 l 463 171 l 467 172 l 470 174 l 474 176 l 476 178 l 480 180 l 484 182 l 488 184 l 492 186 l 496 188 l 500 190 l 504 192 l 508 194 l 511 196 l 513 198 l 517 200 l 521 201 l 525 203 l 529 205 l 533 208 l 537 210 l 541 211 l 545 213 l 549 215 l 550 217 l 554 219 l 558 221 l 562 223 l 566 225 l 570 227 l 574 229 l 578 231 l 582 233 l 586 235 l 588 237 l 591 239 l 595 240 l 599 242 l 603 244 l 607 247 l 611 249 l 615 251 l 619 252 l 623 254 l 625 256 l 628 258 l 630 260 l 630 264 l 634 264 l 636 268 l 638 280 l 640 291 l 642 303 l 644 315 l 646 327 l 648 338 l 650 350 l 652 361 l 654 373 l 656 385 l 658 397 l 660 410 l 662 422 l 664 434 l 666 446 l 668 457 l 669 469 l 671 480 l 673 492 l 675 504 l 677 516 l 679 528 l 681 539 l 683 551 l 685 563 l 685 578 l 683 582 l 681 584 l 679 586 l 677 588 l 673 590 l 671 592 l 669 594 l 668 596 l 666 598 l 664 600 l 662 602 l 660 604 l 656 606 l 654 608 l 652 609 l 650 611 l 648 613 l 646 615 l 644 617 l 642 619 l 638 621 l 636 623 l 634 625 l 632 627 l 630 629 l 628 631 l 627 633 l 627 635 l 628 637 l 630 638 l 632 641 l 634 643 l 636 645 l 638 647 l 640 648 l 642 650 l 644 652 l 646 654 l 648 656 l 650 658 l 652 660 l 654 662 l 656 664 l 658 666 l 660 668 l 662 670 l 664 672 l 666 674 l 668 676 l 669 677 l 671 682 l 673 684 l 675 685 l 677 687 l 679 689 l 681 691 l 683 693 l 685 695 l 687 697 l 689 699 l 691 701 l 693 703 l 695 705 l 697 707 l 699 709 l 701 711 l 703 713 l 704 714 l 706 716 l 708 719 l 710 721 l 712 723 l 714 724 l 716 726 l 718 728 l 718 742 l 716 744 l 714 746 l 712 748 l 710 752 l 708 753 l 706 755 l 704 760 l 703 762 l 701 764 l 699 767 l 697 769 l 695 771 l 693 773 l 691 777 l 689 779 l 687 781 l 685 785 l 683 787 l 681 789 l 679 791 l 677 794 l 675 797 l 673 799 l 671 803 l 669 804 l 668 806 l 666 808 l 664 812 l 662 814 l 660 816 l 658 820 l 656 822 l 654 824 l 652 828 l 650 830 l 648 832 l 646 833 l 644 838 l 642 840 l 640 842 l 638 845 l 636 847 l 634 849 l 632 851 l 630 855 l 628 857 l 627 859 l 625 863 l 623 865 l 621 867 l 619 869 l 617 873 l 615 874 l 613 877 l 611 881 l 609 883 l 607 884 l 605 888 l 603 890 l 601 892 l 599 894 l 597 898 l 595 900 l 593 902 l 591 906 l 589 908 l 588 910 l 586 912 l 584 916 l 582 918 l 580 920 l 578 922 l 576 925 l 574 927 l 572 929 l 570 931 l 568 935 l 566 937 l 564 939 l 562 941 l 560 943 l 558 947 l 556 949 l 554 951 l 552 952 l 550 957 l 549 959 l 547 961 l 545 963 l 543 964 l 541 968 l 539 970 l 537 972 l 535 974 l 533 978 l 531 980 l 529 982 l 527 984 l 525 986 l 523 990 l 521 992 l 519 994 l 517 996 l 515 1000 l 513 1002 l 511 1003 l 509 1005 l 508 1007 l 506 1011 l 504 1013 l 502 1015 l 500 1017 l 498 1021 l 496 1023 l 494 1025 l 492 1027 l 490 1029 l 488 1033 l 486 1035 l 484 1037 l 482 1039 l 480 1042 l 478 1044 l 476 1046 l 474 1048 l 472 1050 l 470 1054 l 469 1056 l 467 1058 l 465 1060 l 463 1062 l 461 1066 l 459 1068 l 457 1070 l 455 1072 l 453 1076 l 451 1078 l 449 1080 l 447 1082 l 445 1083 l 443 1087 l 441 1089 l 439 1091 l 437 1093 l 435 1097 l 433 1099 l 431 1101 l 429 1103 l 428 1105 l 426 1109 l 424 1111 l 422 1113 l 420 1115 l 418 1119 l 416 1121 l 414 1122 l 412 1124 l 410 1126 l 408 1130 l 406 1132 l 404 1134 l 402 1136 l 400 1140 l 398 1142 l 396 1144 l 394 1146 l 392 1148 l 390 1150 l 385 1150 z "},"C":{"ha":610,"x_min":0,"x_max":0,"o":"m 177 865 l 141 313 l 410 597 l 532 506 l 287 54 l -116 105 l -41 709 b -3 718 -18 709 -6 712 b 6 757 -1 724 3 737 b 15 796 9 770 12 783 b 25 834 19 810 22 822 b 44 912 32 861 39 887 b 63 990 50 937 57 963 b 79 1023 68 1009 73 1020 b 95 1030 84 1025 90 1028 b 112 1038 100 1033 106 1035 l 143 1054 l 176 1070 b 244 1105 188 1076 211 1088 b 308 1134 277 1121 298 1131 l 468 767 b 388 726 456 764 429 750 b 317 690 346 702 323 690 b 294 717 316 690 308 699 b 249 776 280 735 265 754 b 202 836 232 798 217 818 b 177 865 188 854 180 864 z m 310 1155 l 306 1153 l 300 1151 l 296 1149 l 292 1147 l 289 1145 l 284 1143 l 281 1141 l 277 1139 l 273 1137 l 269 1135 l 265 1133 l 261 1132 l 258 1129 l 254 1127 l 250 1125 l 246 1124 l 242 1122 l 238 1120 l 234 1118 l 231 1116 l 227 1114 l 223 1112 l 219 1110 l 215 1108 l 209 1106 l 205 1104 l 202 1102 l 198 1100 l 194 1099 l 190 1097 l 186 1095 l 182 1093 l 178 1091 l 175 1089 l 171 1087 l 167 1085 l 163 1083 l 159 1081 l 155 1079 l 151 1077 l 148 1076 l 144 1074 l 140 1072 l 136 1069 l 132 1068 l 128 1066 l 124 1064 l 121 1062 l 115 1060 l 111 1058 l 107 1056 l 103 1054 l 99 1052 l 95 1050 l 92 1048 l 88 1046 l 84 1045 l 80 1043 l 76 1041 l 72 1039 l 68 1037 l 64 1035 l 61 1033 l 57 1031 l 55 1029 l 53 1021 l 51 1014 l 49 1006 l 47 998 l 45 990 l 43 983 l 41 973 l 39 965 l 38 958 l 36 950 l 34 942 l 32 935 l 30 927 l 28 919 l 26 911 l 24 904 l 22 896 l 20 886 l 18 879 l 16 871 l 15 863 l 13 856 l 11 848 l 8 840 l 7 832 l 5 825 l 3 817 l 1 807 l -1 800 l -3 792 l -4 784 l -6 777 l -8 769 l -11 761 l -12 753 l -14 746 l -16 738 l -18 730 l -22 728 l -36 726 l -51 724 l -57 722 l -59 707 l -60 691 l -62 676 l -64 661 l -66 645 l -68 630 l -70 614 l -72 599 l -74 582 l -76 566 l -78 551 l -80 535 l -82 520 l -84 505 l -86 489 l -87 474 l -90 458 l -92 443 l -93 427 l -95 412 l -97 396 l -99 379 l -101 363 l -103 348 l -105 333 l -107 317 l -109 302 l -111 287 l -113 271 l -115 256 l -116 240 l -118 225 l -120 209 l -122 194 l -124 177 l -126 161 l -128 145 l -130 130 l -132 115 l -134 99 l -134 90 l -120 88 l -105 86 l -90 84 l -74 82 l -59 80 l -43 78 l -30 76 l -14 74 l 1 72 l 16 71 l 32 68 l 47 66 l 63 64 l 78 63 l 94 61 l 107 59 l 122 57 l 138 55 l 153 53 l 169 51 l 184 49 l 200 47 l 215 45 l 229 43 l 244 41 l 259 39 l 275 38 l 290 36 l 470 36 l 474 38 l 476 39 l 478 41 l 479 45 l 481 47 l 483 51 l 485 55 l 487 59 l 489 63 l 491 66 l 493 71 l 495 72 l 497 76 l 499 80 l 501 84 l 503 88 l 505 92 l 507 94 l 509 97 l 510 101 l 512 105 l 514 109 l 516 113 l 518 117 l 520 119 l 522 122 l 524 126 l 526 130 l 528 134 l 530 138 l 532 140 l 534 144 l 535 148 l 537 151 l 539 155 l 541 159 l 543 161 l 545 165 l 547 169 l 549 173 l 551 177 l 553 180 l 555 184 l 557 186 l 558 190 l 561 194 l 563 198 l 565 201 l 566 205 l 568 208 l 570 211 l 572 215 l 574 219 l 576 223 l 578 227 l 580 231 l 582 232 l 584 236 l 586 240 l 588 244 l 590 248 l 591 252 l 593 254 l 595 257 l 597 261 l 599 265 l 601 269 l 603 273 l 605 277 l 607 279 l 609 283 l 611 287 l 613 290 l 614 294 l 616 298 l 618 300 l 621 304 l 622 308 l 624 312 l 626 315 l 628 319 l 630 321 l 632 325 l 634 329 l 636 333 l 638 337 l 640 340 l 642 344 l 644 346 l 646 350 l 648 354 l 649 358 l 651 362 l 653 366 l 655 368 l 657 371 l 659 375 l 661 379 l 663 383 l 665 387 l 667 391 l 669 393 l 671 396 l 672 400 l 674 404 l 676 408 l 676 416 l 674 421 l 672 424 l 669 426 l 667 427 l 665 429 l 661 431 l 659 433 l 657 435 l 653 437 l 651 439 l 649 441 l 648 443 l 644 445 l 642 447 l 640 449 l 636 450 l 634 452 l 632 454 l 628 456 l 626 458 l 624 460 l 622 462 l 618 464 l 616 466 l 614 468 l 611 470 l 609 472 l 607 474 l 603 475 l 601 477 l 599 479 l 595 481 l 593 483 l 591 485 l 590 487 l 586 489 l 584 491 l 582 493 l 578 495 l 576 497 l 574 498 l 570 500 l 568 503 l 566 505 l 563 506 l 561 508 l 558 510 l 555 512 l 553 514 l 551 516 l 547 518 l 545 520 l 543 522 l 539 524 l 537 526 l 535 528 l 532 530 l 530 532 l 526 533 l 524 535 l 522 537 l 518 539 l 516 541 l 514 543 l 510 545 l 509 547 l 507 549 l 509 551 l 510 553 l 514 555 l 518 556 l 522 558 l 526 561 l 530 562 l 534 564 l 537 566 l 541 568 l 545 570 l 549 572 l 551 574 l 555 576 l 558 578 l 563 580 l 566 582 l 570 584 l 574 586 l 578 587 l 582 589 l 586 591 l 588 593 l 591 595 l 595 597 l 599 599 l 603 601 l 607 603 l 611 605 l 614 607 l 618 609 l 622 611 l 624 616 l 626 622 l 626 626 l 624 630 l 622 634 l 621 640 l 618 643 l 616 647 l 614 651 l 613 657 l 611 661 l 609 665 l 607 670 l 605 674 l 603 678 l 601 682 l 599 688 l 597 691 l 595 695 l 593 701 l 591 705 l 590 709 l 588 713 l 586 719 l 584 722 l 582 726 l 580 732 l 578 736 l 576 740 l 574 744 l 572 749 l 570 753 l 568 757 l 566 761 l 565 767 l 563 770 l 561 774 l 558 780 l 557 784 l 555 788 l 553 792 l 551 798 l 549 801 l 547 805 l 545 811 l 543 815 l 541 819 l 539 823 l 537 828 l 535 832 l 534 836 l 532 842 l 530 846 l 528 850 l 526 853 l 524 859 l 522 863 l 520 867 l 518 873 l 516 877 l 514 881 l 512 884 l 510 890 l 509 894 l 507 898 l 505 904 l 503 907 l 501 911 l 499 915 l 497 921 l 495 925 l 493 929 l 491 931 l 489 935 l 487 937 l 485 939 l 483 942 l 481 944 l 479 946 l 478 948 l 476 952 l 474 954 l 472 956 l 470 960 l 468 962 l 466 963 l 464 965 l 462 969 l 460 971 l 458 973 l 456 975 l 454 979 l 452 981 l 451 983 l 449 987 l 447 989 l 445 990 l 443 992 l 441 996 l 439 998 l 437 1000 l 435 1002 l 433 1006 l 431 1008 l 429 1010 l 427 1014 l 426 1016 l 424 1018 l 422 1019 l 420 1023 l 418 1025 l 416 1027 l 414 1031 l 412 1033 l 410 1035 l 408 1037 l 406 1041 l 404 1043 l 402 1045 l 400 1046 l 398 1050 l 396 1052 l 395 1054 l 393 1058 l 391 1060 l 389 1062 l 387 1064 l 385 1068 l 383 1069 l 381 1072 l 379 1076 l 377 1077 l 375 1079 l 373 1081 l 371 1085 l 370 1087 l 368 1089 l 366 1091 l 364 1095 l 362 1097 l 360 1099 l 358 1102 l 356 1104 l 354 1106 l 352 1108 l 350 1112 l 348 1114 l 347 1116 l 345 1120 l 342 1122 l 340 1124 l 339 1125 l 337 1129 l 335 1132 l 333 1133 l 331 1135 l 329 1139 l 327 1141 l 325 1143 l 323 1147 l 321 1149 l 319 1153 l 317 1156 l 314 1156 z "},"D":{"ha":644,"x_min":0,"x_max":0,"o":"m 127 468 b 163 505 130 470 143 483 b 230 577 184 527 206 551 b 294 648 254 603 275 627 b 323 681 313 670 323 680 l 323 752 b 275 773 323 756 307 763 b 217 792 243 784 224 790 b 161 813 207 796 188 803 b 108 829 133 823 116 828 z m 140 138 b 107 96 132 127 121 113 b 78 55 94 79 84 65 l -102 145 l -92 571 l -61 571 l -51 750 l -85 773 l -102 1126 l 513 952 b 529 899 514 944 519 926 b 548 842 538 871 545 852 b 567 783 551 833 557 814 b 583 730 578 753 583 735 b 546 681 583 730 570 713 b 464 571 522 648 495 612 b 379 457 434 531 406 493 b 330 392 352 421 335 399 b 266 308 308 363 287 335 b 203 223 245 280 224 252 b 172 180 193 208 182 194 b 140 138 161 167 151 153 z m -120 1126 l -118 1087 l -116 1047 l -114 1008 l -112 966 l -110 927 l -108 888 l -106 846 l -104 807 l -102 767 l -100 764 l -98 762 l -94 760 l -93 758 l -90 756 l -86 754 l -84 752 l -83 750 l -79 748 l -77 746 l -75 744 l -71 742 l -71 716 l -73 683 l -75 648 l -77 614 l -77 588 l -108 588 l -110 573 l -112 490 l -114 407 l -116 324 l -118 241 l -120 159 l -120 135 l -118 133 l -114 131 l -110 129 l -106 127 l -102 125 l -98 123 l -94 121 l -90 119 l -86 118 l -83 116 l -79 114 l -75 112 l -71 110 l -67 107 l -63 106 l -59 104 l -55 102 l -51 100 l -47 98 l -43 96 l -39 94 l -35 92 l -31 90 l -27 88 l -23 86 l -20 84 l -16 82 l -12 80 l -8 78 l -4 76 l 0 74 l 4 72 l 8 70 l 12 68 l 16 66 l 19 64 l 23 62 l 27 60 l 31 58 l 35 56 l 39 55 l 43 53 l 45 51 l 49 48 l 53 46 l 57 44 l 61 43 l 65 41 l 69 39 l 73 37 l 77 35 l 81 33 l 82 33 l 114 33 l 151 31 l 189 29 l 226 27 l 263 25 l 301 23 l 323 23 l 327 25 l 329 27 l 331 29 l 333 33 l 334 35 l 336 37 l 338 41 l 340 43 l 342 44 l 344 48 l 346 51 l 348 53 l 350 56 l 352 58 l 354 60 l 356 64 l 358 66 l 360 68 l 362 72 l 364 74 l 366 76 l 368 80 l 370 82 l 372 84 l 374 88 l 376 90 l 378 94 l 380 96 l 382 98 l 384 102 l 386 104 l 388 106 l 390 110 l 392 112 l 393 114 l 395 118 l 397 119 l 399 121 l 401 125 l 403 127 l 405 129 l 407 133 l 409 135 l 411 137 l 413 141 l 415 143 l 417 145 l 419 149 l 421 151 l 423 153 l 425 157 l 427 159 l 429 161 l 431 165 l 433 167 l 435 169 l 437 173 l 439 175 l 441 177 l 443 180 l 445 182 l 447 184 l 449 188 l 451 191 l 452 192 l 455 196 l 456 198 l 458 200 l 460 204 l 463 206 l 464 208 l 466 212 l 468 214 l 470 216 l 472 220 l 474 222 l 476 224 l 478 228 l 480 230 l 482 232 l 484 236 l 486 238 l 488 240 l 490 243 l 492 245 l 494 248 l 496 251 l 498 254 l 500 255 l 502 259 l 504 261 l 506 263 l 508 267 l 510 269 l 512 271 l 514 275 l 515 277 l 517 279 l 519 283 l 522 285 l 524 287 l 526 291 l 527 293 l 529 295 l 531 299 l 533 301 l 535 303 l 537 307 l 539 309 l 541 311 l 543 314 l 545 316 l 547 318 l 549 322 l 551 324 l 553 326 l 555 330 l 557 332 l 559 334 l 561 338 l 563 340 l 565 344 l 567 346 l 569 348 l 571 352 l 573 354 l 575 356 l 576 360 l 578 362 l 581 364 l 583 368 l 585 370 l 586 372 l 588 376 l 590 377 l 592 379 l 594 384 l 596 386 l 598 387 l 600 391 l 602 393 l 604 395 l 606 399 l 608 401 l 610 403 l 612 407 l 614 409 l 616 411 l 618 415 l 620 417 l 622 419 l 624 423 l 626 425 l 628 427 l 630 431 l 632 433 l 634 435 l 635 439 l 637 440 l 640 443 l 642 447 l 644 449 l 645 450 l 648 454 l 649 456 l 651 458 l 653 462 l 655 464 l 657 466 l 659 470 l 661 472 l 663 474 l 665 478 l 667 480 l 669 482 l 671 486 l 673 488 l 675 490 l 677 494 l 679 496 l 681 498 l 683 502 l 685 504 l 687 506 l 689 510 l 691 512 l 692 513 l 694 517 l 696 519 l 699 522 l 701 525 l 702 527 l 704 529 l 706 533 l 708 535 l 710 537 l 712 541 l 714 543 l 716 545 l 718 549 l 720 551 l 722 553 l 724 557 l 726 559 l 728 561 l 730 565 l 732 567 l 734 569 l 736 573 l 738 581 l 738 586 l 736 592 l 734 598 l 732 604 l 730 610 l 728 618 l 726 624 l 724 630 l 722 635 l 720 642 l 718 648 l 716 653 l 714 659 l 712 667 l 710 673 l 708 679 l 706 685 l 704 691 l 702 696 l 701 703 l 699 708 l 696 716 l 694 722 l 692 728 l 691 734 l 689 740 l 687 746 l 685 752 l 683 760 l 681 766 l 679 769 l 677 771 l 675 773 l 673 778 l 671 779 l 669 781 l 667 783 l 665 787 l 663 789 l 661 791 l 659 795 l 657 797 l 655 799 l 653 803 l 651 805 l 649 807 l 648 809 l 645 813 l 644 815 l 642 817 l 640 821 l 637 823 l 635 825 l 634 827 l 632 830 l 630 832 l 628 834 l 626 839 l 624 840 l 622 842 l 620 844 l 618 848 l 616 850 l 614 852 l 612 856 l 610 858 l 608 860 l 606 862 l 604 866 l 602 868 l 600 870 l 598 874 l 596 876 l 594 878 l 592 880 l 590 884 l 588 886 l 586 888 l 585 892 l 583 893 l 581 896 l 578 898 l 576 901 l 575 903 l 573 905 l 571 909 l 569 911 l 567 913 l 565 915 l 563 919 l 561 921 l 559 923 l 557 927 l 555 929 l 553 931 l 551 933 l 549 937 l 547 939 l 545 941 l 543 945 l 541 947 l 539 949 l 537 951 l 535 955 l 533 957 l 531 959 l 529 963 l 527 966 l 522 968 l 514 970 l 508 972 l 500 974 l 492 976 l 486 978 l 478 980 l 472 982 l 464 984 l 458 986 l 451 988 l 445 990 l 437 992 l 431 994 l 423 996 l 415 998 l 409 1000 l 401 1002 l 395 1004 l 388 1006 l 382 1008 l 374 1010 l 368 1012 l 360 1014 l 352 1016 l 346 1018 l 338 1020 l 333 1022 l 325 1024 l 319 1025 l 311 1027 l 305 1029 l 297 1031 l 291 1034 l 283 1036 l 275 1037 l 270 1039 l 262 1041 l 256 1043 l 248 1045 l 242 1047 l 234 1049 l 228 1051 l 220 1053 l 212 1055 l 207 1057 l 199 1059 l 193 1061 l 185 1063 l 179 1065 l 171 1067 l 165 1069 l 157 1071 l 151 1073 l 143 1075 l 136 1077 l 130 1079 l 122 1081 l 116 1083 l 108 1085 l 102 1087 l 94 1088 l 89 1090 l 81 1093 l 73 1095 l 67 1097 l 59 1099 l 53 1100 l 45 1102 l 39 1104 l 31 1106 l 25 1108 l 18 1110 l 12 1112 l 4 1114 l -4 1116 l -9 1118 l -18 1120 l -23 1122 l -31 1124 l -37 1126 l -45 1128 l -51 1130 l -59 1132 l -67 1134 l -73 1136 l -81 1138 l -86 1140 l -94 1142 l -100 1144 l -108 1146 l -114 1148 l -120 1148 z "},"E":{"ha":576,"x_min":0,"x_max":0,"o":"m 333 624 l 341 622 l 351 620 l 361 618 l 371 616 l 381 614 l 391 612 l 399 610 l 408 608 l 410 606 l 411 602 l 413 598 l 415 596 l 417 592 l 419 590 l 421 586 l 424 584 l 426 582 l 428 580 l 432 578 l 438 577 l 433 576 l 429 574 l 426 572 l 419 570 l 415 568 l 411 566 l 406 564 l 401 562 l 397 560 l 391 558 l 388 556 l 384 554 l 377 552 l 375 556 l 373 566 l 371 572 l 370 574 l 367 578 l 366 580 l 363 582 l 361 586 l 359 588 l 357 590 l 355 594 l 353 596 l 351 600 l 350 602 l 347 604 l 346 608 l 343 610 l 341 612 l 339 616 l 337 618 l 335 620 z m 15 152 b -14 159 5 154 -4 156 b -44 166 -23 161 -33 164 b -73 176 -66 172 -76 175 b -73 209 -69 177 -70 188 b -78 277 -75 223 -77 246 b -81 348 -80 309 -81 332 b -84 418 -81 371 -82 395 b -86 488 -86 441 -86 464 b -89 523 -86 499 -87 511 b -91 558 -90 535 -91 546 b -91 593 -91 566 -91 577 b -93 627 -91 608 -92 620 b -99 695 -95 642 -97 665 b -101 766 -100 726 -101 749 b -103 835 -100 788 -101 812 b -106 906 -104 859 -106 882 b -109 975 -107 926 -108 949 b -114 1044 -110 1001 -112 1024 b -111 1076 -116 1060 -115 1071 b -95 1096 -107 1082 -102 1089 b -78 1116 -90 1101 -84 1108 b -60 1134 -71 1125 -65 1131 b -12 1123 -56 1132 -40 1128 b 83 1107 17 1118 48 1112 b 182 1091 117 1101 150 1096 b 243 1082 213 1086 234 1083 b 320 1069 269 1078 294 1073 b 396 1056 346 1065 371 1060 b 435 1051 407 1054 420 1052 b 464 1037 449 1050 459 1045 b 484 1009 467 1033 473 1023 b 499 984 494 995 499 986 b 480 956 499 983 493 974 b 437 896 467 938 453 918 b 393 835 421 874 406 854 b 370 806 379 817 371 807 l 288 830 l 292 862 l 45 913 l 74 796 l 183 790 l 212 646 l 182 615 l 87 621 l 119 419 l 451 563 l 452 420 b 421 396 452 417 441 409 b 352 353 401 383 377 369 b 278 310 326 338 302 323 b 235 284 255 296 240 288 b 125 218 195 261 158 239 b 70 183 108 207 90 196 b 15 152 50 171 32 161 z m 333 624 l 331 624 l 333 626 z m -73 1150 l -75 1148 l -77 1146 l -79 1142 l -80 1140 l -83 1138 l -84 1136 l -86 1134 l -89 1132 l -91 1130 l -93 1126 l -95 1124 l -97 1122 l -99 1120 l -100 1118 l -103 1116 l -104 1112 l -106 1110 l -109 1108 l -111 1106 l -113 1104 l -115 1102 l -117 1098 l -119 1096 l -121 1094 l -122 1092 l -124 1090 l -126 1088 l -129 1086 l -131 1082 l -133 1080 l -133 1058 l -131 1016 l -129 976 l -126 934 l -124 892 l -122 852 l -121 810 l -119 770 l -117 728 l -115 686 l -113 646 l -111 604 l -109 562 l -106 522 l -104 480 l -103 440 l -100 398 l -99 356 l -97 316 l -95 274 l -93 234 l -91 192 l -89 160 l -84 157 l -80 156 l -75 154 l -71 152 l -66 150 l -63 148 l -59 145 l -55 143 l -51 141 l -44 140 l -40 138 l -37 136 l -33 134 l -28 132 l -24 130 l -20 127 l -15 125 l -11 123 l -6 121 l -2 120 l 1 118 l 5 116 l 11 114 l 15 112 l 19 110 l 23 107 l 27 105 l 31 103 l 35 101 l 41 100 l 45 98 l 49 96 l 53 94 l 57 92 l 61 90 l 65 87 l 71 85 l 75 83 l 79 81 l 83 79 l 87 78 l 91 76 l 97 74 l 101 72 l 105 70 l 109 67 l 113 65 l 117 63 l 121 61 l 127 59 l 131 58 l 135 56 l 139 54 l 143 52 l 151 50 l 161 47 l 169 45 l 177 43 l 185 41 l 193 39 l 201 38 l 209 36 l 217 34 l 229 34 l 231 36 l 235 38 l 239 39 l 241 41 l 245 43 l 249 45 l 251 47 l 255 50 l 259 52 l 261 54 l 266 56 l 269 58 l 271 59 l 275 61 l 279 63 l 281 65 l 286 67 l 289 70 l 291 72 l 295 74 l 299 76 l 301 78 l 306 79 l 310 81 l 311 83 l 315 85 l 319 87 l 321 90 l 326 92 l 327 94 l 331 96 l 335 98 l 337 100 l 341 101 l 346 103 l 347 105 l 351 107 l 355 110 l 357 112 l 361 114 l 366 116 l 367 118 l 371 120 l 375 121 l 377 123 l 381 125 l 386 127 l 388 130 l 391 132 l 395 134 l 397 136 l 401 138 l 406 140 l 408 141 l 411 143 l 415 145 l 417 148 l 421 150 l 424 152 l 428 154 l 432 156 l 433 157 l 437 160 l 441 161 l 444 164 l 448 165 l 452 168 l 453 170 l 457 172 l 461 174 l 464 176 l 468 177 l 472 180 l 473 181 l 477 183 l 481 185 l 484 188 l 488 190 l 492 192 l 493 194 l 497 196 l 502 197 l 504 200 l 508 201 l 510 203 l 513 205 l 517 208 l 519 210 l 524 212 l 528 214 l 530 216 l 533 218 l 537 220 l 539 221 l 544 223 l 548 225 l 550 228 l 554 230 l 557 232 l 559 234 l 564 236 l 568 238 l 570 240 l 574 241 l 577 243 l 579 245 l 584 248 l 586 254 l 588 256 l 588 390 l 586 396 l 584 398 l 582 402 l 579 404 l 577 408 l 575 412 l 574 414 l 572 418 l 570 420 l 568 424 l 566 426 l 564 430 l 562 434 l 559 436 l 557 440 l 555 442 l 554 446 l 552 448 l 550 452 l 548 456 l 546 458 l 544 462 l 542 464 l 539 468 l 537 472 l 535 474 l 533 478 l 532 480 l 530 484 l 528 486 l 526 490 l 524 494 l 522 496 l 519 500 l 517 502 l 515 506 l 513 508 l 512 512 l 510 516 l 508 518 l 506 522 l 504 524 l 502 528 l 499 530 l 497 534 l 495 538 l 493 540 l 492 544 l 489 546 l 488 550 l 486 552 l 484 556 l 481 560 l 479 562 l 486 562 l 492 560 l 499 558 l 506 556 l 510 556 l 512 558 l 519 560 l 522 564 l 524 566 l 526 570 l 528 572 l 530 574 l 532 578 l 533 580 l 535 584 l 537 586 l 539 588 l 542 592 l 544 594 l 546 596 l 548 600 l 550 602 l 552 606 l 554 608 l 555 610 l 557 614 l 559 616 l 562 620 l 564 622 l 566 624 l 568 628 l 570 630 l 572 634 l 574 636 l 575 638 l 577 642 l 579 644 l 582 646 l 584 650 l 586 652 l 588 656 l 590 658 l 591 660 l 594 664 l 595 666 l 598 670 l 600 672 l 602 674 l 604 678 l 606 680 l 608 684 l 610 686 l 611 688 l 614 692 l 615 694 l 617 696 l 620 700 l 622 702 l 624 706 l 626 708 l 628 710 l 628 722 l 626 728 l 624 732 l 622 738 l 620 742 l 617 748 l 615 752 l 614 758 l 611 762 l 610 768 l 608 772 l 606 776 l 604 782 l 602 786 l 600 792 l 598 796 l 595 802 l 594 806 l 591 812 l 590 816 l 588 822 l 586 826 l 584 832 l 582 836 l 579 842 l 577 846 l 575 852 l 574 856 l 572 862 l 570 866 l 568 872 l 566 876 l 564 882 l 562 886 l 559 892 l 557 896 l 555 902 l 554 906 l 552 910 l 550 916 l 548 920 l 546 926 l 544 930 l 542 936 l 539 940 l 537 946 l 535 950 l 533 956 l 532 960 l 530 966 l 528 970 l 526 976 l 524 980 l 522 988 l 519 990 l 517 992 l 515 996 l 513 998 l 512 1002 l 510 1004 l 508 1008 l 506 1010 l 504 1012 l 502 1016 l 499 1018 l 497 1022 l 495 1024 l 493 1026 l 492 1030 l 489 1032 l 488 1036 l 486 1038 l 484 1040 l 481 1044 l 479 1046 l 477 1050 l 475 1052 l 473 1054 l 472 1058 l 469 1060 l 468 1062 l 461 1064 l 449 1066 l 437 1068 l 426 1070 l 413 1072 l 401 1074 l 390 1076 l 377 1078 l 366 1080 l 353 1082 l 341 1084 l 330 1086 l 317 1088 l 306 1090 l 293 1092 l 283 1094 l 271 1096 l 259 1098 l 247 1100 l 235 1102 l 223 1104 l 211 1106 l 199 1108 l 188 1110 l 175 1112 l 163 1114 l 151 1116 l 139 1118 l 127 1120 l 115 1122 l 103 1124 l 91 1126 l 79 1128 l 67 1130 l 57 1132 l 45 1134 l 33 1136 l 21 1138 l 9 1140 l -2 1142 l -15 1144 l -26 1146 l -39 1148 l -51 1150 l -63 1152 l -71 1152 z "},"F":{"ha":543,"x_min":0,"x_max":0,"o":"m 515 1162 b 528 1113 516 1150 520 1134 b 541 1065 536 1092 541 1076 l 521 1027 b 477 942 508 1002 493 973 b 431 852 460 910 445 880 b 405 802 416 824 407 807 l 294 802 l 325 905 l 143 917 l 133 745 b 229 739 139 745 171 743 b 316 732 287 734 316 732 b 308 700 319 731 316 720 b 293 662 300 679 295 667 b 280 627 290 651 285 639 b 269 591 275 614 271 602 l 137 591 l 111 277 b 94 251 106 268 100 260 b 76 227 88 243 82 235 b 52 208 70 217 62 211 b 18 199 42 205 31 202 b -48 177 4 195 -18 188 b -112 160 -77 166 -99 161 l -13 1056 z m 511 1181 l 501 1179 l 490 1177 l 480 1175 l 469 1172 l 459 1170 l 449 1168 l 438 1166 l 428 1164 l 417 1162 l 407 1160 l 396 1158 l 386 1156 l 375 1154 l 365 1152 l 354 1149 l 344 1147 l 333 1145 l 323 1143 l 313 1141 l 302 1139 l 292 1137 l 281 1135 l 271 1133 l 260 1131 l 250 1128 l 239 1126 l 229 1124 l 218 1122 l 208 1120 l 198 1118 l 187 1116 l 177 1114 l 166 1112 l 156 1109 l 145 1107 l 135 1105 l 124 1103 l 114 1101 l 104 1099 l 93 1097 l 83 1095 l 72 1093 l 62 1091 l 51 1088 l 41 1086 l 31 1084 l 20 1082 l 9 1080 l -1 1078 l -9 1076 l -19 1074 l -30 1072 l -32 1061 l -34 1043 l -36 1022 l -38 1003 l -40 984 l -42 965 l -44 946 l -46 927 l -49 909 l -51 890 l -53 869 l -55 850 l -57 831 l -59 812 l -61 793 l -63 775 l -65 756 l -67 737 l -70 718 l -72 697 l -74 679 l -76 660 l -78 641 l -80 622 l -82 603 l -84 585 l -86 566 l -89 545 l -91 526 l -93 507 l -95 488 l -97 469 l -99 451 l -101 432 l -103 413 l -105 394 l -107 373 l -110 354 l -112 335 l -114 317 l -116 298 l -118 279 l -120 260 l -122 241 l -124 222 l -126 201 l -128 183 l -130 164 l -132 145 l -132 135 l -126 135 l -120 135 l -118 133 l -114 131 l -110 128 l -105 126 l -101 124 l -97 122 l -93 120 l -89 118 l -84 116 l -80 114 l -76 112 l -72 110 l -67 107 l -65 105 l -61 103 l -57 101 l -53 99 l -49 97 l -44 95 l -40 93 l -36 91 l -32 89 l -28 86 l -24 84 l -19 82 l -15 80 l -13 78 l -9 76 l -5 74 l -1 72 l 3 70 l 7 67 l 12 65 l 16 63 l 20 61 l 24 59 l 28 57 l 33 55 l 37 53 l 39 51 l 43 49 l 47 47 l 51 44 l 55 42 l 60 40 l 64 38 l 68 36 l 72 34 l 85 34 l 91 36 l 97 38 l 104 40 l 112 42 l 118 44 l 124 47 l 131 49 l 139 51 l 145 53 l 152 55 l 160 57 l 166 59 l 173 61 l 179 63 l 187 65 l 194 67 l 200 70 l 206 72 l 214 74 l 220 76 l 227 78 l 233 80 l 237 82 l 241 84 l 243 86 l 246 91 l 248 93 l 250 97 l 252 99 l 254 103 l 256 105 l 258 107 l 260 112 l 262 114 l 264 118 l 267 120 l 269 122 l 271 126 l 273 128 l 275 133 l 277 135 l 279 137 l 281 147 l 283 174 l 286 199 l 288 224 l 290 252 l 292 277 l 294 304 l 296 329 l 298 356 l 298 381 l 396 381 l 396 386 l 400 386 l 402 388 l 405 390 l 407 396 l 409 400 l 411 407 l 413 413 l 415 419 l 417 423 l 419 430 l 421 436 l 423 442 l 426 449 l 428 453 l 430 459 l 432 465 l 434 472 l 436 476 l 438 482 l 440 488 l 442 494 l 444 501 l 446 505 l 449 511 l 449 522 l 446 526 l 444 532 l 442 536 l 440 541 l 438 545 l 436 549 l 505 551 l 507 555 l 513 557 l 515 562 l 517 566 l 519 570 l 522 574 l 524 578 l 526 582 l 528 587 l 530 591 l 532 595 l 534 599 l 536 603 l 538 608 l 541 612 l 543 616 l 545 618 l 547 622 l 549 626 l 551 631 l 553 635 l 555 639 l 557 643 l 559 647 l 562 651 l 564 655 l 566 660 l 568 664 l 570 668 l 572 672 l 574 676 l 576 681 l 578 683 l 580 687 l 582 691 l 584 695 l 586 700 l 589 704 l 591 708 l 593 712 l 595 716 l 597 721 l 599 725 l 601 729 l 603 733 l 605 737 l 607 741 l 609 745 l 611 747 l 614 752 l 616 756 l 618 760 l 620 764 l 622 768 l 624 773 l 624 785 l 622 793 l 620 804 l 618 812 l 616 823 l 614 831 l 611 840 l 609 850 l 607 859 l 605 869 l 603 877 l 601 886 l 599 896 l 597 904 l 595 915 l 593 923 l 591 934 l 589 942 l 586 950 l 584 961 l 582 969 l 580 980 l 578 988 l 576 997 l 574 1007 l 572 1016 l 570 1026 l 568 1034 l 566 1043 l 564 1053 l 562 1061 l 559 1070 l 557 1078 l 555 1086 l 553 1093 l 551 1101 l 549 1109 l 547 1116 l 545 1124 l 543 1131 l 541 1139 l 538 1147 l 536 1154 l 534 1162 l 532 1168 l 530 1177 l 528 1183 l 522 1183 z "},"G":{"ha":678,"x_min":0,"x_max":0,"o":"m -113 353 b -96 406 -107 371 -101 388 b -79 460 -90 424 -85 442 b -60 514 -73 476 -67 494 b -45 566 -54 534 -48 551 b -12 673 -37 601 -26 637 b 22 780 2 709 14 744 b 57 887 31 815 42 850 b 91 993 71 923 82 958 b 110 1046 98 1024 104 1042 b 154 1080 116 1050 131 1061 b 201 1114 168 1092 184 1103 b 247 1148 217 1125 233 1136 l 463 1063 b 456 1000 460 1054 457 1033 b 451 930 454 967 452 944 b 444 864 449 909 447 887 b 438 798 442 842 440 820 b 432 731 435 768 433 746 b 429 698 430 714 429 703 b 408 676 429 693 422 686 b 352 639 397 669 379 657 b 297 607 325 621 307 610 l 246 844 l 127 308 l 321 453 l 217 443 l 247 547 l 486 592 b 523 565 489 591 502 582 b 555 537 544 548 555 539 b 530 466 555 535 547 511 b 501 386 513 420 504 394 b 494 367 499 379 496 372 b 487 348 491 361 489 355 b 458 320 484 338 474 329 b 420 298 445 313 433 306 b 383 277 408 291 395 284 b 307 233 357 263 332 248 b 232 190 283 218 258 204 b 155 146 208 176 182 162 b 81 102 128 131 103 117 b 1 121 29 118 2 124 b -40 199 0 119 -14 145 b -77 276 -52 225 -64 250 b -113 353 -89 302 -101 327 z m 239 1166 l 235 1163 l 231 1160 l 227 1158 l 223 1155 l 221 1153 l 217 1150 l 213 1147 l 209 1144 l 204 1142 l 203 1139 l 199 1137 l 195 1134 l 191 1131 l 189 1129 l 185 1126 l 181 1123 l 177 1121 l 173 1118 l 171 1116 l 167 1113 l 163 1110 l 158 1107 l 154 1105 l 153 1102 l 149 1100 l 144 1097 l 140 1094 l 136 1092 l 135 1089 l 131 1086 l 126 1084 l 122 1081 l 118 1078 l 116 1076 l 112 1073 l 108 1070 l 104 1068 l 100 1065 l 98 1063 l 94 1060 l 90 1057 l 89 1053 l 87 1048 l 86 1044 l 84 1040 l 83 1036 l 81 1031 l 80 1027 l 79 1020 l 77 1016 l 76 1012 l 74 1007 l 73 1003 l 71 999 l 70 994 l 68 990 l 67 986 l 65 979 l 64 975 l 62 970 l 61 966 l 60 962 l 58 957 l 57 953 l 55 949 l 54 944 l 53 938 l 51 933 l 50 929 l 48 925 l 46 921 l 45 916 l 43 912 l 42 907 l 41 903 l 39 899 l 38 892 l 36 888 l 35 884 l 33 879 l 32 875 l 31 870 l 29 866 l 27 862 l 26 858 l 25 851 l 23 847 l 22 842 l 20 838 l 19 834 l 17 829 l 16 825 l 14 821 l 13 816 l 12 810 l 10 806 l 8 801 l 7 797 l 6 792 l 4 788 l 3 784 l 1 779 l 0 775 l -1 771 l -3 764 l -4 760 l -6 755 l -7 751 l -8 747 l -10 743 l -12 738 l -13 734 l -15 729 l -16 723 l -17 719 l -19 714 l -20 710 l -22 706 l -23 701 l -25 697 l -26 692 l -28 688 l -29 682 l -31 677 l -32 673 l -33 669 l -35 665 l -36 660 l -38 656 l -39 651 l -41 647 l -42 643 l -43 636 l -45 632 l -46 628 l -48 623 l -50 619 l -51 614 l -52 610 l -54 606 l -55 602 l -57 595 l -58 591 l -60 586 l -61 582 l -62 578 l -64 573 l -65 569 l -67 565 l -68 560 l -70 556 l -71 549 l -73 545 l -74 541 l -76 536 l -77 532 l -79 528 l -80 523 l -82 519 l -83 515 l -84 508 l -86 504 l -87 499 l -89 495 l -90 491 l -92 486 l -93 482 l -95 478 l -96 473 l -97 467 l -99 463 l -100 458 l -102 454 l -103 450 l -105 445 l -106 441 l -108 436 l -109 432 l -111 428 l -112 421 l -113 417 l -115 413 l -116 408 l -118 404 l -119 399 l -121 395 l -122 391 l -124 387 l -125 380 l -126 376 l -128 371 l -130 367 l -131 363 l -133 358 l -134 354 l -133 346 l -129 338 l -125 331 l -122 323 l -118 315 l -114 308 l -111 300 l -107 292 l -103 285 l -100 279 l -97 271 l -93 264 l -90 256 l -86 249 l -82 241 l -78 233 l -75 225 l -71 218 l -67 210 l -64 202 l -60 195 l -57 187 l -53 180 l -50 172 l -46 164 l -42 157 l -39 149 l -35 141 l -31 134 l -27 126 l -24 118 l -20 111 l -17 105 l -15 103 l -10 102 l -3 101 l 2 100 l 6 99 l 13 98 l 18 96 l 23 95 l 30 94 l 35 93 l 42 92 l 46 91 l 51 89 l 58 89 l 63 87 l 67 86 l 75 85 l 79 84 l 86 83 l 91 81 l 96 80 l 103 79 l 107 78 l 115 77 l 119 76 l 126 75 l 131 73 l 138 73 l 143 71 l 150 70 l 155 69 l 162 68 l 166 67 l 173 66 l 178 64 l 185 63 l 190 62 l 197 61 l 202 60 l 209 59 l 213 58 l 220 57 l 225 56 l 232 55 l 237 53 l 244 52 l 249 51 l 256 50 l 260 49 l 267 48 l 272 47 l 277 45 l 284 44 l 289 43 l 296 42 l 300 41 l 307 40 l 312 39 l 319 38 l 324 36 l 331 36 l 336 34 l 342 33 l 356 35 l 360 38 l 366 41 l 370 44 l 376 47 l 380 50 l 385 52 l 391 55 l 395 58 l 401 61 l 405 64 l 409 67 l 416 70 l 419 73 l 426 76 l 430 78 l 434 81 l 440 84 l 444 87 l 451 90 l 455 93 l 459 95 l 465 98 l 469 101 l 475 104 l 479 107 l 483 110 l 490 113 l 494 115 l 500 118 l 504 121 l 508 124 l 514 127 l 518 130 l 525 133 l 529 135 l 533 138 l 539 141 l 543 144 l 549 147 l 553 150 l 557 152 l 564 155 l 568 158 l 574 161 l 578 164 l 582 166 l 588 170 l 592 172 l 599 175 l 603 178 l 609 181 l 613 184 l 617 187 l 624 190 l 628 192 l 634 196 l 638 198 l 642 201 l 648 204 l 652 207 l 659 210 l 663 213 l 667 215 l 673 218 l 677 221 l 679 223 l 681 226 l 685 228 l 686 233 l 688 237 l 689 241 l 691 246 l 692 250 l 693 255 l 695 259 l 697 261 l 698 266 l 700 270 l 701 274 l 703 279 l 704 283 l 706 288 l 707 292 l 709 296 l 710 300 l 712 305 l 713 309 l 715 314 l 717 316 l 718 320 l 720 325 l 721 329 l 723 333 l 724 338 l 726 342 l 727 347 l 729 351 l 730 355 l 732 359 l 733 364 l 735 366 l 736 371 l 738 375 l 740 379 l 741 384 l 743 388 l 744 393 l 745 397 l 744 403 l 741 409 l 738 412 l 735 414 l 733 415 l 730 417 l 727 421 l 725 422 l 723 424 l 720 428 l 717 429 l 714 431 l 712 433 l 709 436 l 706 438 l 704 439 l 701 443 l 698 445 l 696 447 l 693 448 l 690 452 l 688 453 l 685 455 l 682 459 l 680 460 l 677 462 l 675 464 l 672 467 l 669 469 l 667 471 l 664 474 l 661 476 l 659 477 l 656 479 l 653 483 l 651 485 l 648 486 l 645 490 l 643 491 l 640 493 l 637 495 l 634 498 l 632 500 l 629 504 l 633 504 l 637 507 l 636 513 l 641 514 l 642 518 l 643 527 l 644 535 l 645 543 l 645 552 l 646 560 l 647 568 l 648 577 l 649 585 l 649 593 l 650 602 l 651 610 l 652 618 l 652 627 l 653 635 l 654 644 l 655 652 l 655 661 l 656 669 l 657 677 l 658 685 l 659 694 l 660 702 l 660 710 l 661 719 l 662 727 l 663 733 l 664 742 l 665 750 l 665 759 l 666 767 l 667 775 l 668 784 l 668 792 l 669 801 l 670 809 l 671 817 l 669 829 l 666 833 l 663 837 l 660 840 l 657 846 l 654 849 l 651 853 l 648 857 l 645 860 l 642 864 l 639 868 l 636 871 l 633 877 l 630 881 l 627 884 l 624 888 l 622 891 l 618 895 l 615 899 l 613 903 l 609 908 l 606 912 l 604 916 l 601 919 l 598 923 l 595 926 l 592 930 l 589 934 l 586 937 l 583 943 l 580 947 l 577 950 l 574 954 l 571 958 l 568 961 l 565 965 l 562 969 l 559 974 l 556 978 l 553 982 l 550 985 l 547 989 l 545 992 l 542 996 l 538 1000 l 535 1005 l 532 1009 l 529 1013 l 527 1016 l 524 1020 l 521 1024 l 518 1027 l 515 1031 l 512 1035 l 509 1040 l 506 1044 l 503 1047 l 500 1051 l 497 1055 l 494 1059 l 491 1062 l 488 1066 l 485 1072 l 482 1075 l 479 1077 l 477 1079 l 472 1080 l 470 1081 l 465 1083 l 462 1084 l 457 1085 l 455 1087 l 450 1088 l 448 1090 l 443 1092 l 440 1093 l 436 1095 l 433 1096 l 428 1097 l 426 1099 l 421 1100 l 418 1102 l 413 1103 l 411 1105 l 406 1106 l 404 1108 l 399 1109 l 396 1111 l 392 1112 l 387 1113 l 384 1115 l 379 1116 l 377 1118 l 372 1119 l 370 1121 l 365 1122 l 362 1124 l 357 1125 l 355 1127 l 350 1128 l 348 1130 l 343 1131 l 340 1133 l 335 1134 l 333 1136 l 328 1137 l 326 1138 l 321 1140 l 318 1141 l 313 1143 l 311 1144 l 306 1146 l 303 1147 l 299 1148 l 296 1150 l 291 1152 l 289 1153 l 284 1155 l 281 1156 l 277 1157 l 272 1159 l 270 1160 l 265 1162 l 262 1163 l 257 1164 l 255 1166 l 250 1167 l 248 1169 l 241 1168 z "},"H":{"ha":610,"x_min":0,"x_max":0,"o":"m 508 201 l 604 143 b 539 124 594 141 573 135 b 478 112 506 114 485 110 b 418 135 464 115 444 122 b 361 155 392 147 373 154 b 396 166 363 157 374 161 b 436 176 418 171 431 174 b 508 201 467 184 490 192 z m 217 812 l 179 1075 l 279 1069 l 363 808 l 388 808 l 419 710 l 404 710 b 394 708 404 710 401 709 b 408 670 396 698 401 685 b 426 630 415 654 421 641 b 441 590 431 617 436 604 b 458 551 446 576 452 563 b 491 472 470 525 481 499 b 524 393 501 445 512 419 b 538 352 531 376 536 362 b 535 305 541 342 540 327 b 523 261 531 290 527 275 b 506 222 519 246 513 233 b 429 190 497 210 471 199 b 336 169 387 180 356 173 b 326 234 336 182 332 204 b 312 303 320 264 315 287 b 288 439 303 349 295 394 b 276 505 285 461 281 483 b 264 573 272 527 268 550 b 258 605 262 583 260 594 b 252 640 256 617 254 628 b 247 676 251 645 249 657 b 236 704 244 695 241 704 l 91 704 l 141 104 l -80 87 b -81 163 -80 112 -80 137 b -82 242 -81 189 -82 216 b -81 319 -82 263 -82 289 b -84 396 -81 349 -82 374 b -86 472 -85 419 -86 444 b -88 548 -86 499 -87 525 b -88 586 -88 561 -88 573 b -87 625 -88 600 -87 613 b -86 667 -87 632 -87 645 b -93 699 -86 688 -88 699 l -120 699 l -120 841 l -111 841 l -90 843 l -87 1103 l -87 1133 l 59 1125 l 80 819 z m 617 155 b 635 194 623 159 629 172 b 644 245 641 217 644 234 l 644 255 b 603 296 644 257 631 270 b 556 338 576 321 560 335 b 543 270 556 317 551 295 b 519 213 534 246 526 227 z m -105 1078 l -107 868 l -107 859 l -124 859 l -138 857 l -138 681 l -130 679 l -126 677 l -124 675 l -120 674 l -118 672 l -115 670 l -113 668 l -109 666 l -107 664 l -105 616 l -103 473 l -101 329 l -99 186 l -97 70 l -86 68 l -74 66 l -63 64 l -51 62 l -41 61 l -30 59 l -18 57 l -6 55 l 5 53 l 14 51 l 26 49 l 37 47 l 49 45 l 58 43 l 70 41 l 82 39 l 93 37 l 105 35 l 115 34 l 126 32 l 138 30 l 157 30 l 182 32 l 209 34 l 234 35 l 259 37 l 284 39 l 309 41 l 334 43 l 336 45 l 338 47 l 340 49 l 342 51 l 344 53 l 344 61 l 342 84 l 340 107 l 338 128 l 336 148 l 340 145 l 346 143 l 350 141 l 355 140 l 361 138 l 365 136 l 371 134 l 375 132 l 380 130 l 386 128 l 390 126 l 396 124 l 401 122 l 406 120 l 411 118 l 417 116 l 421 115 l 427 113 l 430 111 l 436 109 l 442 107 l 446 105 l 452 103 l 457 101 l 461 99 l 467 97 l 473 95 l 490 95 l 498 97 l 508 99 l 517 101 l 525 103 l 532 105 l 540 107 l 550 109 l 556 111 l 563 113 l 571 115 l 577 116 l 585 118 l 590 120 l 596 122 l 602 124 l 606 126 l 611 128 l 615 130 l 619 132 l 621 134 l 625 136 l 627 138 l 629 140 l 631 141 l 633 145 l 635 147 l 637 151 l 638 155 l 641 159 l 642 163 l 644 169 l 646 172 l 648 178 l 650 184 l 652 190 l 654 197 l 656 205 l 658 213 l 660 222 l 662 236 l 662 263 l 660 269 l 658 273 l 656 276 l 654 282 l 652 286 l 650 292 l 648 296 l 646 301 l 644 306 l 642 309 l 641 315 l 638 319 l 637 325 l 635 329 l 633 332 l 631 338 l 629 342 l 627 348 l 625 352 l 623 357 l 621 361 l 619 365 l 617 371 l 615 375 l 613 380 l 611 385 l 610 390 l 608 394 l 606 398 l 604 404 l 602 408 l 600 413 l 598 417 l 596 423 l 594 427 l 592 431 l 590 436 l 588 440 l 587 446 l 585 450 l 583 454 l 581 459 l 579 464 l 577 469 l 575 473 l 573 479 l 571 483 l 569 487 l 567 492 l 565 496 l 563 502 l 562 506 l 559 512 l 558 515 l 556 519 l 554 525 l 552 529 l 559 529 l 562 531 l 563 535 l 563 538 l 567 538 l 567 543 l 565 548 l 563 554 l 562 560 l 559 566 l 558 573 l 556 579 l 554 585 l 552 591 l 550 596 l 548 602 l 546 608 l 544 614 l 542 622 l 540 627 l 538 633 l 536 635 l 534 639 l 532 641 l 531 643 l 529 647 l 527 648 l 525 650 l 523 654 l 521 656 l 519 660 l 517 662 l 515 664 l 513 668 l 511 670 l 509 672 l 508 675 l 506 677 l 504 681 l 502 685 l 500 691 l 498 699 l 496 704 l 494 710 l 492 716 l 490 722 l 488 727 l 486 733 l 485 739 l 483 745 l 480 750 l 478 756 l 477 762 l 475 768 l 473 774 l 471 781 l 469 787 l 467 793 l 465 799 l 463 805 l 461 810 l 459 816 l 457 822 l 455 828 l 454 833 l 452 839 l 450 843 l 448 847 l 446 849 l 444 853 l 442 855 l 440 859 l 438 860 l 436 864 l 434 866 l 432 870 l 430 872 l 429 876 l 427 878 l 425 882 l 423 884 l 421 887 l 419 889 l 417 893 l 415 895 l 413 899 l 411 901 l 409 905 l 407 907 l 406 910 l 404 912 l 401 917 l 399 918 l 398 922 l 396 926 l 394 928 l 392 932 l 390 934 l 388 938 l 386 940 l 384 943 l 382 945 l 380 949 l 378 951 l 376 955 l 375 957 l 373 961 l 371 963 l 369 966 l 367 968 l 365 972 l 363 974 l 361 978 l 359 980 l 357 984 l 355 986 l 353 989 l 351 991 l 350 996 l 348 997 l 346 1001 l 344 1003 l 342 1007 l 340 1011 l 338 1013 l 336 1017 l 334 1019 l 332 1022 l 330 1024 l 328 1028 l 327 1030 l 325 1034 l 322 1036 l 320 1040 l 319 1042 l 317 1045 l 315 1047 l 313 1051 l 311 1053 l 309 1057 l 307 1059 l 305 1063 l 303 1065 l 301 1068 l 299 1070 l 297 1075 l 296 1076 l 294 1080 l 292 1084 l 286 1086 l 251 1088 l 217 1090 l 182 1092 l 159 1092 l 159 1090 l 161 1076 l 163 1063 l 164 1049 l 166 1038 l 168 1024 l 168 1020 l 166 1022 l 164 1026 l 163 1028 l 161 1030 l 159 1032 l 157 1036 l 155 1038 l 153 1040 l 151 1042 l 149 1045 l 147 1047 l 145 1049 l 143 1051 l 141 1055 l 139 1057 l 138 1059 l 136 1061 l 134 1065 l 132 1067 l 130 1068 l 128 1070 l 126 1075 l 124 1076 l 122 1078 l 120 1080 l 118 1084 l 116 1086 l 115 1088 l 113 1090 l 111 1094 l 109 1096 l 107 1098 l 105 1099 l 103 1103 l 101 1105 l 99 1107 l 97 1109 l 95 1111 l 93 1115 l 91 1117 l 89 1119 l 87 1121 l 85 1125 l 84 1126 l 82 1128 l 80 1130 l 78 1134 l 76 1140 l 60 1142 l 24 1144 l -11 1146 l -47 1148 l -84 1149 l -103 1149 z m 644 255 b 603 296 644 257 631 270 b 556 338 576 321 560 335 b 543 270 556 317 551 295 b 519 213 534 246 526 227 l 617 155 b 635 194 623 159 629 172 b 644 245 641 217 644 234 z m 604 143 b 539 124 594 141 573 135 b 478 112 506 114 485 110 b 418 135 464 115 444 122 b 361 155 392 147 373 154 b 396 166 363 157 374 161 b 436 176 418 171 431 174 b 508 201 467 184 490 192 z "},"I":{"ha":509,"x_min":0,"x_max":0,"o":"m -63 1004 l 479 1135 b 474 1014 479 1095 477 1055 b 468 894 470 972 468 933 b 467 862 468 890 468 879 b 466 833 467 845 466 835 b 443 828 465 830 457 828 b 416 827 429 828 420 827 b 361 825 398 827 379 826 b 308 823 344 824 326 823 l 162 406 l 368 337 b 351 257 367 324 361 298 b 329 172 340 217 333 188 b 318 129 323 148 320 133 b 283 129 317 125 305 125 b 243 136 271 131 257 133 b 203 142 229 138 216 140 b 123 155 176 147 149 151 b 43 168 96 158 70 163 b -37 181 19 172 -8 177 b -78 188 -48 183 -62 185 b -118 193 -94 192 -107 193 l -92 415 b -54 410 -82 415 -70 414 b -17 408 -38 407 -25 406 l 38 414 l 85 801 l 76 801 b 34 800 63 801 49 801 b -4 799 20 799 7 799 l -25 799 l -46 799 b -57 831 -53 799 -57 810 b -60 917 -56 859 -57 888 b -63 1004 -62 946 -63 975 z m 481 1155 l 474 1152 l 465 1151 l 455 1148 l 448 1146 l 439 1144 l 430 1142 l 423 1140 l 414 1138 l 405 1136 l 398 1134 l 389 1132 l 380 1130 l 373 1128 l 364 1126 l 355 1124 l 348 1122 l 339 1120 l 330 1118 l 322 1116 l 314 1114 l 304 1112 l 297 1110 l 288 1108 l 279 1106 l 272 1104 l 263 1102 l 254 1100 l 247 1098 l 238 1096 l 229 1094 l 222 1092 l 213 1090 l 204 1088 l 197 1086 l 188 1084 l 179 1082 l 172 1080 l 162 1078 l 154 1076 l 146 1074 l 137 1072 l 128 1069 l 121 1068 l 112 1065 l 103 1064 l 96 1062 l 87 1060 l 78 1058 l 71 1056 l 62 1054 l 53 1052 l 46 1049 l 37 1047 l 28 1045 l 19 1043 l 12 1041 l 2 1039 l -6 1037 l -14 1035 l -22 1033 l -31 1031 l -39 1029 l -47 1027 l -57 1025 l -64 1023 l -73 1021 l -80 1019 l -80 989 l -78 948 l -76 906 l -75 864 l -73 823 l -71 781 l -65 779 l -64 777 l -62 775 l -60 773 l -58 771 l -57 769 l -55 767 l -53 765 l -51 763 l -50 761 l -47 759 l -46 754 l -44 753 l -42 750 l -40 749 l -39 747 l -37 745 l -35 743 l -33 741 l -31 739 l -30 736 l -28 734 l -26 732 l -24 730 l -22 726 l -20 724 l -19 722 l -17 720 l -15 718 l -14 716 l -12 714 l -10 712 l -8 710 l -6 708 l -4 706 l -3 704 l -1 702 l 1 698 l 2 696 l 4 694 l 6 692 l 8 690 l 10 688 l 12 686 l 13 684 l 15 682 l 17 680 l 19 678 l 20 676 l 22 674 l 24 672 l 26 668 l 28 666 l 30 664 l 31 662 l 33 660 l 35 658 l 37 656 l 38 654 l 40 652 l 42 650 l 44 648 l 46 646 l 47 644 l 47 630 l 46 613 l 44 599 l 42 583 l 40 569 l 38 555 l 37 539 l 35 525 l 33 510 l 31 494 l 30 480 l 28 466 l 26 450 l 24 436 l 24 430 l 19 430 l 1 428 l -17 426 l -19 426 l -37 428 l -55 430 l -73 432 l -91 434 l -105 434 l -107 428 l -109 413 l -111 397 l -112 383 l -114 369 l -116 353 l -118 339 l -119 323 l -121 309 l -123 292 l -125 278 l -126 264 l -129 248 l -130 234 l -132 218 l -134 203 l -136 188 l -136 179 l -130 177 l -125 175 l -121 173 l -118 171 l -112 169 l -109 167 l -105 165 l -100 163 l -96 161 l -93 159 l -87 157 l -83 155 l -80 153 l -75 151 l -71 149 l -67 147 l -62 145 l -58 143 l -55 141 l -50 139 l -46 137 l -42 135 l -37 133 l -33 131 l -30 129 l -24 127 l -20 125 l -17 123 l -12 121 l -8 119 l -4 117 l 1 115 l 4 113 l 8 111 l 13 109 l 17 106 l 20 104 l 26 102 l 30 101 l 33 98 l 38 97 l 42 95 l 46 93 l 51 91 l 55 89 l 60 86 l 73 84 l 85 82 l 98 80 l 111 78 l 123 76 l 136 74 l 148 72 l 161 70 l 173 68 l 186 66 l 198 64 l 211 62 l 223 60 l 236 58 l 249 56 l 261 54 l 274 52 l 287 50 l 299 48 l 312 46 l 324 44 l 337 42 l 350 40 l 362 38 l 375 36 l 387 34 l 400 32 l 413 30 l 421 30 l 421 34 l 427 34 l 429 36 l 430 40 l 432 48 l 434 56 l 436 64 l 438 70 l 439 78 l 441 86 l 443 93 l 445 101 l 447 109 l 448 117 l 450 123 l 452 131 l 454 139 l 455 145 l 457 153 l 459 161 l 461 169 l 463 175 l 465 183 l 466 191 l 468 197 l 470 205 l 472 214 l 472 226 l 470 228 l 468 232 l 466 234 l 465 236 l 463 238 l 461 242 l 459 244 l 457 246 l 455 248 l 454 252 l 452 254 l 450 256 l 448 258 l 447 262 l 445 264 l 443 266 l 441 268 l 439 272 l 438 274 l 436 276 l 434 278 l 432 282 l 430 284 l 429 286 l 427 288 l 425 292 l 423 294 l 421 296 l 419 298 l 418 302 l 416 304 l 414 307 l 413 309 l 411 313 l 409 315 l 407 316 l 405 319 l 404 323 l 402 325 l 400 327 l 398 329 l 396 333 l 394 335 l 393 337 l 391 339 l 389 341 l 387 349 l 382 351 l 376 353 l 371 355 l 364 357 l 358 359 l 353 361 l 346 363 l 340 363 l 342 369 l 344 373 l 346 379 l 348 385 l 350 389 l 351 395 l 353 399 l 355 406 l 357 410 l 358 416 l 360 419 l 362 426 l 364 430 l 366 436 l 368 442 l 369 446 l 371 452 l 373 456 l 375 462 l 376 466 l 378 472 l 380 476 l 382 482 l 384 486 l 386 492 l 387 496 l 389 503 l 391 509 l 393 512 l 394 518 l 396 523 l 398 529 l 400 533 l 402 539 l 404 543 l 405 549 l 407 553 l 409 559 l 411 565 l 413 569 l 414 575 l 416 579 l 418 585 l 419 589 l 459 591 l 506 593 l 542 595 l 544 597 l 546 601 l 549 603 l 551 637 l 553 678 l 554 718 l 556 761 l 558 801 l 560 841 l 560 870 l 558 876 l 556 884 l 554 892 l 553 900 l 551 908 l 549 916 l 547 924 l 546 930 l 544 938 l 542 946 l 540 955 l 538 963 l 536 971 l 535 979 l 533 987 l 531 993 l 529 1001 l 528 1009 l 526 1017 l 524 1025 l 522 1033 l 520 1041 l 518 1049 l 517 1056 l 515 1064 l 513 1072 l 511 1080 l 510 1088 l 508 1096 l 506 1104 l 504 1110 l 503 1118 l 500 1126 l 499 1134 l 497 1142 l 495 1156 l 490 1156 z "},"J":{"ha":678,"x_min":0,"x_max":0,"o":"m 100 921 l 611 1159 l 574 853 l 440 821 b 456 785 441 816 446 804 b 474 748 465 767 471 754 b 509 676 487 723 499 699 b 545 600 513 666 525 641 b 576 531 566 559 576 536 b 566 474 576 522 573 503 b 554 413 560 444 556 424 b 548 383 550 396 549 386 b 526 369 548 379 541 374 b 501 359 518 365 510 362 b 476 348 493 355 485 352 b 426 328 459 341 442 335 b 375 307 409 321 392 314 b 324 287 359 301 342 294 b 274 266 307 280 290 273 b 224 245 258 258 241 251 b 173 224 207 239 190 232 b 123 203 157 217 140 210 b 72 183 105 196 89 189 b 22 163 56 177 39 170 b -28 142 4 156 -13 149 b -80 120 -39 137 -56 130 b -130 101 -103 109 -120 103 b -127 150 -130 116 -129 132 b -122 199 -126 169 -124 185 b -118 248 -121 215 -119 231 b -114 296 -117 265 -115 281 b -112 321 -112 305 -112 313 b -106 342 -112 329 -110 336 b -94 357 -102 347 -98 352 b -83 372 -90 361 -86 367 b -60 402 -76 382 -68 393 b -37 433 -52 412 -45 422 b 8 494 -22 453 -7 473 b 54 554 23 514 38 534 b 65 569 58 559 62 564 b 77 585 69 574 73 579 b 88 601 81 591 85 596 b 105 610 91 606 97 609 b 151 618 117 612 132 614 b 197 624 170 622 185 624 l 163 475 b 214 485 172 475 189 478 b 268 500 239 492 257 497 b 294 506 277 502 285 504 b 319 513 302 509 311 511 b 330 530 328 515 332 521 b 326 557 328 540 326 549 b 317 613 322 576 320 594 b 309 668 315 631 312 649 b 299 724 307 682 303 701 b 293 779 295 748 293 766 l 111 738 z m 623 1183 l 619 1181 l 615 1179 l 611 1178 l 608 1176 l 604 1174 l 598 1172 l 595 1170 l 591 1168 l 587 1166 l 584 1165 l 580 1163 l 576 1161 l 572 1159 l 569 1158 l 565 1156 l 559 1154 l 555 1152 l 552 1150 l 548 1148 l 545 1146 l 541 1145 l 537 1143 l 533 1141 l 530 1139 l 526 1138 l 520 1136 l 516 1134 l 513 1132 l 509 1130 l 506 1128 l 502 1126 l 498 1125 l 494 1123 l 491 1121 l 487 1119 l 481 1117 l 477 1116 l 474 1114 l 470 1112 l 466 1110 l 463 1108 l 459 1106 l 455 1105 l 452 1103 l 448 1101 l 442 1099 l 438 1097 l 435 1096 l 431 1094 l 427 1092 l 424 1090 l 420 1088 l 416 1086 l 412 1085 l 409 1083 l 403 1081 l 399 1079 l 396 1077 l 392 1076 l 388 1074 l 385 1072 l 381 1070 l 377 1068 l 373 1066 l 370 1065 l 364 1063 l 360 1061 l 357 1059 l 353 1057 l 349 1056 l 346 1054 l 342 1052 l 338 1050 l 334 1048 l 331 1046 l 325 1045 l 321 1043 l 318 1041 l 314 1039 l 310 1037 l 307 1036 l 303 1034 l 299 1032 l 295 1030 l 292 1028 l 286 1026 l 282 1024 l 279 1023 l 275 1021 l 271 1019 l 267 1017 l 263 1016 l 260 1014 l 256 1012 l 253 1010 l 247 1008 l 243 1006 l 239 1004 l 236 1003 l 232 1001 l 228 999 l 224 997 l 221 996 l 217 994 l 214 992 l 208 990 l 204 988 l 200 986 l 197 984 l 193 983 l 189 981 l 185 979 l 182 977 l 178 975 l 174 974 l 169 972 l 165 970 l 161 968 l 158 966 l 154 964 l 150 963 l 146 961 l 143 959 l 139 957 l 135 955 l 130 954 l 126 952 l 122 950 l 119 948 l 115 946 l 111 944 l 107 943 l 104 941 l 100 939 l 96 937 l 91 935 l 87 933 l 83 932 l 83 923 l 85 891 l 87 862 l 89 831 l 91 802 l 93 771 l 95 742 l 96 719 l 100 719 l 102 719 l 104 717 l 105 715 l 107 713 l 109 711 l 111 709 l 115 708 l 117 706 l 119 704 l 121 702 l 122 700 l 124 699 l 126 697 l 128 695 l 130 693 l 132 691 l 134 689 l 135 688 l 137 686 l 139 684 l 141 682 l 143 681 l 145 679 l 146 677 l 148 675 l 152 673 l 154 671 l 156 669 l 158 668 l 160 666 l 161 664 l 163 662 l 165 661 l 167 659 l 169 657 l 171 655 l 173 653 l 174 651 l 176 649 l 178 648 l 180 646 l 182 644 l 184 642 l 185 641 l 189 638 l 178 638 l 167 637 l 156 635 l 145 633 l 134 631 l 122 629 l 111 628 l 100 626 l 89 624 l 85 622 l 83 620 l 81 618 l 80 617 l 78 613 l 76 611 l 74 609 l 72 606 l 70 604 l 68 602 l 66 598 l 65 597 l 63 595 l 61 591 l 59 589 l 57 586 l 55 584 l 54 582 l 52 578 l 50 577 l 48 575 l 46 571 l 44 569 l 42 568 l 41 564 l 39 562 l 37 560 l 35 556 l 33 555 l 31 551 l 30 549 l 27 548 l 26 544 l 24 542 l 22 540 l 20 536 l 18 535 l 16 533 l 15 529 l 13 528 l 11 526 l 9 522 l 7 520 l 5 518 l 3 515 l 2 513 l 0 509 l -2 507 l -4 506 l -6 502 l -7 500 l -9 498 l -11 495 l -13 493 l -15 491 l -17 487 l -19 486 l -20 484 l -22 480 l -24 478 l -26 475 l -28 473 l -30 471 l -32 467 l -34 466 l -35 464 l -37 460 l -39 458 l -41 456 l -43 453 l -45 451 l -46 449 l -48 446 l -50 444 l -52 440 l -54 438 l -56 436 l -58 433 l -60 431 l -61 429 l -63 426 l -65 424 l -67 422 l -69 418 l -71 416 l -73 415 l -74 411 l -76 409 l -78 406 l -80 404 l -82 402 l -84 398 l -85 396 l -87 394 l -89 391 l -91 389 l -93 387 l -95 384 l -97 382 l -99 380 l -100 376 l -102 374 l -104 373 l -106 369 l -108 367 l -110 363 l -112 362 l -113 360 l -115 356 l -117 354 l -119 353 l -121 349 l -123 347 l -125 345 l -126 342 l -128 327 l -130 305 l -132 283 l -134 261 l -136 240 l -138 218 l -139 196 l -141 174 l -143 154 l -145 132 l -147 111 l -149 89 l -149 76 l -147 76 l -141 78 l -132 78 l -125 76 l -117 74 l -110 72 l -100 70 l -93 68 l -85 67 l -78 65 l -71 63 l -61 61 l -54 59 l -46 58 l -39 56 l -30 54 l -22 52 l -15 50 l -7 48 l 0 47 l 9 45 l 16 43 l 24 41 l 31 39 l 41 38 l 48 36 l 55 34 l 63 32 l 70 30 l 80 28 l 87 26 l 95 25 l 102 23 l 113 23 l 119 25 l 122 26 l 126 28 l 132 30 l 135 32 l 141 34 l 145 36 l 148 38 l 154 39 l 158 41 l 163 43 l 167 45 l 171 47 l 176 48 l 180 50 l 185 52 l 189 54 l 193 56 l 199 58 l 202 59 l 206 61 l 212 63 l 215 65 l 221 67 l 224 68 l 228 70 l 234 72 l 238 74 l 243 76 l 247 78 l 251 79 l 256 81 l 260 83 l 266 85 l 269 87 l 273 89 l 279 90 l 282 92 l 288 94 l 292 96 l 295 98 l 301 99 l 304 101 l 310 103 l 314 105 l 318 107 l 323 109 l 327 111 l 333 112 l 336 114 l 340 116 l 346 118 l 349 119 l 355 121 l 358 123 l 362 125 l 368 127 l 372 129 l 377 131 l 381 132 l 385 134 l 390 136 l 394 138 l 399 139 l 403 141 l 407 143 l 412 145 l 416 147 l 422 149 l 426 151 l 429 152 l 435 154 l 438 156 l 442 158 l 448 160 l 452 161 l 457 163 l 461 165 l 465 167 l 470 169 l 474 171 l 479 172 l 483 174 l 487 176 l 492 178 l 496 180 l 502 181 l 506 183 l 509 185 l 515 187 l 518 189 l 524 191 l 528 192 l 531 194 l 537 196 l 541 198 l 546 200 l 550 201 l 554 203 l 559 205 l 563 207 l 569 209 l 572 211 l 576 212 l 582 214 l 585 216 l 591 218 l 595 220 l 598 221 l 604 223 l 608 225 l 613 227 l 617 229 l 621 231 l 626 232 l 630 234 l 635 236 l 639 238 l 643 240 l 649 241 l 652 243 l 658 245 l 662 247 l 665 249 l 667 251 l 667 254 l 671 254 l 673 258 l 674 269 l 676 278 l 678 287 l 680 298 l 682 307 l 684 316 l 686 327 l 688 336 l 689 347 l 691 356 l 693 365 l 695 376 l 697 386 l 697 389 l 695 394 l 693 398 l 691 404 l 689 407 l 688 411 l 686 415 l 684 418 l 682 422 l 680 426 l 678 431 l 676 435 l 674 438 l 673 442 l 671 446 l 669 449 l 667 453 l 665 458 l 664 462 l 662 466 l 660 469 l 658 473 l 656 476 l 654 480 l 652 484 l 650 489 l 649 493 l 647 496 l 645 500 l 643 504 l 641 507 l 639 511 l 637 516 l 635 520 l 634 524 l 632 528 l 630 531 l 628 535 l 626 538 l 625 544 l 623 548 l 621 551 l 619 555 l 617 558 l 615 562 l 613 566 l 611 571 l 610 575 l 608 578 l 606 582 l 604 586 l 602 589 l 600 593 l 598 598 l 596 602 l 595 606 l 598 608 l 606 609 l 613 611 l 621 613 l 630 615 l 637 617 l 645 618 l 652 620 l 660 622 l 667 624 l 674 626 l 682 628 l 688 629 l 689 633 l 691 635 l 693 637 l 695 646 l 697 661 l 699 675 l 701 691 l 702 706 l 704 722 l 706 737 l 708 751 l 710 768 l 712 782 l 713 797 l 715 813 l 717 828 l 719 842 l 721 859 l 723 873 l 725 888 l 725 903 l 723 908 l 721 913 l 719 917 l 717 923 l 715 928 l 713 933 l 712 939 l 710 944 l 708 950 l 706 955 l 704 961 l 702 966 l 701 970 l 699 975 l 697 981 l 695 986 l 693 992 l 691 997 l 689 1003 l 688 1008 l 686 1014 l 684 1019 l 682 1024 l 680 1028 l 678 1034 l 676 1039 l 674 1045 l 673 1050 l 671 1056 l 669 1061 l 667 1066 l 665 1072 l 664 1077 l 662 1083 l 660 1086 l 658 1092 l 656 1097 l 654 1103 l 652 1108 l 650 1114 l 649 1119 l 647 1125 l 645 1130 l 643 1136 l 641 1139 l 639 1145 l 637 1150 l 635 1156 l 634 1161 l 632 1166 l 630 1172 l 630 1176 l 630 1185 l 626 1185 z "},"K":{"ha":712,"x_min":0,"x_max":0,"o":"m 388 1147 l 386 1145 l 384 1142 l 382 1140 l 380 1138 l 378 1134 l 376 1132 l 374 1128 l 372 1126 l 370 1122 l 368 1120 l 366 1116 l 364 1114 l 362 1110 l 360 1108 l 358 1104 l 356 1102 l 354 1098 l 353 1096 l 351 1093 l 349 1090 l 347 1086 l 345 1084 l 342 1081 l 341 1079 l 339 1075 l 337 1073 l 335 1071 l 333 1067 l 331 1065 l 329 1061 l 327 1059 l 325 1055 l 323 1053 l 321 1049 l 319 1047 l 317 1043 l 315 1041 l 313 1037 l 311 1035 l 309 1031 l 307 1029 l 305 1025 l 303 1023 l 301 1019 l 299 1018 l 297 1014 l 295 1011 l 293 1009 l 292 1006 l 290 1004 l 288 1000 l 286 998 l 283 994 l 282 992 l 280 992 l 278 994 l 276 998 l 274 1000 l 272 1004 l 270 1008 l 268 1009 l 266 1014 l 264 1016 l 262 1019 l 260 1023 l 258 1025 l 256 1029 l 254 1031 l 252 1035 l 250 1039 l 248 1041 l 246 1045 l 244 1047 l 242 1051 l 240 1055 l 238 1057 l 236 1061 l 236 1067 l 236 1069 l 224 1069 l 213 1067 l 201 1065 l 189 1063 l 177 1061 l 166 1059 l 154 1057 l 142 1055 l 130 1053 l 120 1051 l 109 1049 l 97 1047 l 85 1045 l 75 1043 l 73 1041 l 71 1033 l 69 1025 l 67 1018 l 65 1011 l 63 1004 l 61 996 l 59 988 l 58 980 l 56 972 l 54 966 l 52 959 l 50 950 l 47 943 l 46 935 l 44 927 l 42 919 l 40 913 l 38 905 l 36 897 l 34 889 l 32 882 l 30 874 l 28 866 l 26 860 l 24 852 l 22 844 l 20 837 l 18 828 l 16 821 l 14 815 l 12 807 l 10 799 l 8 791 l 6 783 l 4 775 l 2 767 l 0 762 l -1 754 l -3 746 l -5 738 l -7 730 l -9 722 l -11 714 l -13 708 l -15 701 l -17 693 l -19 685 l -21 677 l -23 669 l -25 663 l -27 655 l -29 648 l -31 640 l -33 632 l -35 624 l -37 616 l -39 610 l -40 602 l -42 594 l -44 587 l -46 578 l -48 571 l -51 563 l -52 557 l -54 549 l -56 541 l -58 533 l -60 526 l -62 518 l -64 512 l -66 504 l -68 496 l -70 488 l -72 480 l -74 472 l -76 465 l -78 458 l -80 451 l -82 443 l -84 435 l -86 427 l -88 419 l -90 411 l -92 406 l -94 397 l -96 390 l -98 382 l -100 374 l -101 366 l -103 360 l -105 352 l -107 344 l -110 336 l -111 329 l -113 321 l -115 313 l -117 307 l -119 299 l -121 291 l -123 283 l -125 275 l -127 268 l -129 260 l -131 254 l -133 246 l -135 238 l -137 230 l -139 222 l -141 214 l -143 209 l -145 200 l -147 193 l -149 185 l -151 177 l -153 169 l -155 161 l -156 155 l -159 148 l -160 140 l -162 132 l -164 124 l -164 120 l -156 120 l -149 120 l -143 118 l -137 116 l -133 114 l -127 112 l -123 110 l -117 108 l -113 106 l -107 104 l -101 102 l -98 100 l -92 98 l -88 96 l -82 94 l -78 92 l -72 91 l -66 89 l -62 86 l -56 84 l -52 82 l -46 81 l -42 79 l -37 77 l -31 75 l -27 73 l -21 71 l -17 69 l -11 67 l -7 65 l -1 63 l 4 61 l 8 59 l 14 57 l 18 55 l 24 53 l 28 51 l 34 49 l 40 47 l 44 45 l 50 43 l 54 41 l 59 39 l 63 37 l 69 35 l 75 33 l 79 31 l 85 29 l 89 27 l 95 25 l 107 25 l 113 27 l 118 29 l 122 31 l 128 33 l 134 35 l 140 37 l 146 39 l 152 41 l 156 43 l 162 45 l 168 47 l 174 49 l 179 51 l 185 53 l 191 55 l 195 57 l 201 59 l 207 61 l 213 63 l 219 65 l 224 67 l 229 69 l 234 71 l 240 73 l 246 75 l 252 77 l 258 79 l 262 81 l 268 82 l 274 84 l 280 86 l 286 89 l 292 91 l 297 92 l 301 94 l 307 96 l 311 98 l 313 100 l 313 104 l 317 104 l 319 110 l 321 122 l 323 134 l 325 143 l 327 155 l 329 167 l 331 179 l 333 189 l 335 200 l 337 212 l 339 224 l 341 234 l 342 246 l 345 258 l 346 268 l 347 262 l 349 256 l 351 250 l 353 246 l 354 240 l 356 234 l 358 228 l 360 224 l 362 218 l 364 212 l 366 209 l 368 203 l 370 197 l 372 191 l 374 187 l 376 183 l 380 181 l 382 179 l 386 177 l 388 175 l 390 173 l 394 171 l 396 169 l 398 167 l 402 165 l 404 163 l 406 161 l 410 159 l 412 157 l 413 155 l 417 153 l 419 151 l 421 150 l 425 148 l 427 145 l 429 143 l 433 141 l 435 140 l 437 138 l 441 136 l 443 134 l 445 132 l 449 130 l 451 128 l 453 126 l 455 124 l 458 122 l 461 120 l 463 118 l 467 116 l 469 114 l 470 112 l 474 110 l 476 108 l 478 106 l 482 104 l 484 102 l 486 100 l 490 98 l 492 96 l 494 94 l 498 92 l 500 91 l 502 89 l 506 86 l 508 84 l 510 82 l 514 81 l 516 79 l 518 77 l 522 75 l 524 73 l 533 71 l 555 69 l 575 67 l 594 65 l 614 63 l 634 61 l 655 59 l 675 57 l 694 55 l 714 53 l 734 51 l 740 51 l 742 53 l 746 55 l 748 57 l 750 59 l 751 63 l 753 67 l 755 71 l 758 75 l 760 79 l 761 84 l 763 89 l 765 92 l 767 96 l 769 100 l 771 104 l 773 108 l 775 112 l 775 124 l 773 128 l 771 132 l 769 134 l 767 138 l 765 141 l 763 145 l 761 148 l 760 151 l 758 155 l 755 157 l 753 161 l 751 165 l 750 167 l 748 171 l 746 175 l 744 177 l 742 181 l 740 185 l 738 187 l 736 191 l 734 195 l 732 197 l 730 200 l 728 204 l 726 207 l 724 211 l 722 214 l 720 216 l 718 220 l 716 224 l 714 226 l 712 230 l 710 234 l 708 236 l 706 240 l 704 244 l 702 246 l 701 250 l 699 254 l 696 256 l 694 260 l 692 263 l 691 268 l 689 270 l 687 274 l 685 277 l 683 279 l 681 283 l 679 287 l 677 289 l 675 293 l 673 297 l 671 299 l 669 303 l 667 307 l 665 309 l 663 313 l 661 317 l 659 319 l 657 323 l 655 327 l 653 329 l 651 333 l 649 336 l 648 338 l 646 342 l 644 346 l 642 348 l 640 352 l 637 356 l 636 358 l 634 362 l 632 366 l 630 368 l 628 372 l 626 376 l 624 378 l 622 382 l 620 386 l 618 390 l 616 392 l 614 396 l 612 399 l 610 401 l 608 406 l 606 409 l 604 411 l 602 415 l 600 419 l 598 421 l 596 425 l 594 429 l 592 431 l 590 435 l 588 439 l 587 441 l 585 445 l 583 449 l 581 451 l 578 455 l 577 458 l 575 460 l 573 465 l 571 468 l 569 470 l 567 474 l 565 478 l 563 480 l 561 484 l 559 488 l 557 490 l 555 494 l 553 498 l 551 500 l 549 504 l 547 508 l 545 512 l 543 514 l 541 518 l 539 522 l 537 524 l 535 527 l 533 529 l 531 533 l 529 535 l 528 539 l 526 541 l 524 545 l 522 547 l 519 551 l 518 553 l 516 557 l 514 559 l 514 565 l 516 567 l 518 571 l 519 575 l 522 578 l 524 583 l 526 587 l 528 590 l 529 594 l 531 596 l 533 600 l 535 604 l 537 608 l 539 612 l 541 616 l 543 620 l 545 622 l 547 626 l 549 630 l 551 634 l 553 637 l 555 642 l 557 646 l 559 649 l 561 651 l 563 655 l 565 659 l 567 663 l 569 667 l 571 671 l 573 675 l 575 679 l 577 681 l 578 685 l 581 689 l 583 693 l 585 696 l 587 701 l 588 704 l 590 706 l 592 710 l 594 714 l 596 718 l 598 722 l 600 726 l 602 730 l 604 734 l 606 736 l 608 740 l 610 744 l 612 748 l 614 752 l 616 756 l 618 760 l 620 764 l 622 766 l 624 769 l 626 773 l 628 778 l 630 781 l 632 785 l 634 789 l 636 791 l 637 795 l 640 799 l 642 803 l 644 807 l 646 811 l 648 815 l 649 819 l 649 830 l 648 834 l 646 840 l 644 844 l 642 850 l 640 854 l 637 860 l 636 866 l 634 870 l 632 876 l 630 880 l 628 886 l 626 889 l 624 896 l 622 899 l 620 905 l 618 909 l 616 915 l 614 919 l 612 925 l 610 929 l 608 935 l 606 939 l 604 945 l 602 949 l 600 955 l 598 959 l 596 964 l 594 968 l 592 974 l 590 978 l 588 984 l 587 988 l 585 994 l 583 998 l 581 1004 l 578 1008 l 577 1014 l 575 1018 l 573 1023 l 571 1027 l 569 1033 l 567 1037 l 565 1043 l 563 1047 l 561 1053 l 559 1059 l 557 1063 l 555 1069 l 553 1073 l 551 1079 l 549 1082 l 547 1088 l 545 1093 l 543 1098 l 541 1102 l 539 1108 l 537 1112 l 535 1118 l 535 1120 l 537 1124 l 537 1126 l 535 1128 l 524 1130 l 512 1132 l 498 1134 l 486 1136 l 472 1138 l 461 1140 l 447 1142 l 435 1143 l 423 1145 l 410 1147 l 398 1149 l 390 1149 z m 155 542 b 137 444 149 509 143 476 b 121 346 131 411 126 379 b 112 297 118 329 115 313 b 103 247 109 281 106 264 b 95 227 101 235 99 228 b 72 220 91 226 84 224 b 30 205 51 212 37 207 b -56 175 -2 194 -31 184 b -99 159 -63 172 -77 167 b -141 145 -121 150 -135 146 l 88 1027 l 217 1049 l 193 828 l 398 1132 l 512 1114 l 322 760 b 341 752 327 759 334 756 b 361 743 349 748 356 745 b 378 732 370 739 376 736 b 388 714 380 728 383 722 b 428 647 406 685 419 662 b 509 511 458 598 485 553 b 541 457 513 504 524 486 b 596 366 559 428 577 398 b 648 279 615 334 633 305 b 671 238 663 253 671 239 b 658 209 671 235 667 225 b 644 175 650 193 645 182 l 388 199 l 190 740 b 171 642 182 709 176 677 b 155 542 165 608 160 574 z "},"L":{"ha":644,"x_min":0,"x_max":0,"o":"m -114 143 b -91 262 -110 151 -102 191 b -69 394 -79 333 -72 377 b -47 521 -62 437 -54 479 b -25 647 -39 563 -32 605 b -5 773 -19 689 -12 731 b 15 901 2 815 9 858 b 19 934 18 918 19 929 b 27 965 19 940 22 950 b 36 992 30 974 33 983 b 46 1019 39 1001 43 1010 b 65 1074 51 1035 58 1053 b 83 1128 73 1094 79 1112 b 157 1116 87 1126 111 1122 b 241 1104 203 1109 231 1106 b 281 1099 254 1102 268 1100 b 320 1093 294 1097 307 1095 b 340 1090 328 1092 334 1091 b 360 1088 346 1090 353 1089 b 388 1075 381 1084 390 1080 b 359 1013 378 1054 369 1034 b 332 949 350 991 341 970 b 303 887 323 929 314 908 b 277 826 293 867 284 846 b 222 700 260 784 242 742 b 164 575 201 658 182 616 b 136 512 155 554 146 533 b 108 449 125 491 116 470 b 95 418 105 440 100 429 b 80 387 90 407 85 396 b 65 355 77 380 72 369 b 53 325 59 341 55 331 l 434 444 l 620 317 l 597 254 b 538 237 589 253 569 248 b 475 217 507 227 486 220 b 411 196 466 214 445 207 b 351 180 377 186 357 180 b 326 188 349 180 341 183 b 300 198 312 193 303 197 b 272 198 294 200 285 200 b 242 193 259 195 249 194 b 182 184 222 190 202 187 b 123 176 162 182 143 179 b 3 159 84 171 45 165 b -56 149 -12 157 -32 153 b -114 143 -80 145 -100 143 z m 69 1142 l 67 1138 l 65 1132 l 63 1126 l 61 1120 l 59 1114 l 57 1108 l 55 1102 l 53 1096 l 52 1090 l 49 1084 l 47 1081 l 45 1075 l 43 1068 l 41 1063 l 39 1057 l 38 1051 l 36 1045 l 34 1039 l 32 1033 l 30 1029 l 28 1023 l 26 1017 l 24 1011 l 22 1006 l 20 1000 l 18 994 l 16 988 l 14 982 l 12 976 l 10 972 l 8 966 l 6 960 l 4 954 l 2 948 l 0 932 l -2 911 l -3 891 l -5 875 l -7 861 l -9 848 l -12 836 l -14 824 l -15 812 l -17 800 l -19 788 l -21 777 l -23 765 l -25 753 l -27 743 l -29 731 l -31 719 l -33 708 l -35 695 l -37 684 l -39 674 l -41 662 l -43 650 l -45 638 l -47 629 l -49 617 l -51 605 l -53 593 l -55 583 l -57 571 l -59 559 l -61 548 l -63 536 l -65 526 l -67 514 l -69 503 l -71 492 l -73 480 l -75 469 l -77 457 l -79 447 l -80 435 l -82 423 l -84 412 l -86 402 l -89 390 l -90 378 l -92 366 l -94 356 l -96 345 l -98 333 l -100 323 l -102 311 l -104 299 l -106 287 l -108 277 l -110 266 l -112 254 l -114 244 l -116 232 l -118 220 l -120 208 l -122 198 l -124 186 l -126 175 l -128 165 l -130 153 l -132 141 l -134 131 l -134 123 l -120 121 l -116 119 l -112 117 l -108 115 l -104 114 l -100 112 l -96 110 l -92 107 l -89 105 l -84 104 l -80 102 l -75 100 l -71 98 l -67 96 l -63 94 l -59 92 l -55 90 l -51 88 l -47 86 l -43 84 l -39 82 l -35 80 l -31 78 l -25 76 l -21 74 l -17 72 l -14 70 l -9 68 l -5 66 l -2 64 l 2 62 l 6 60 l 10 58 l 14 56 l 18 54 l 24 52 l 28 50 l 32 48 l 36 46 l 39 44 l 43 42 l 47 40 l 52 38 l 55 37 l 59 35 l 73 35 l 87 37 l 101 38 l 115 40 l 128 42 l 144 44 l 158 46 l 172 48 l 185 50 l 199 52 l 213 54 l 227 56 l 241 58 l 257 60 l 270 62 l 284 64 l 298 66 l 312 68 l 326 70 l 339 72 l 353 74 l 367 76 l 383 78 l 402 78 l 409 76 l 412 74 l 418 72 l 424 70 l 430 68 l 436 66 l 442 64 l 444 64 l 446 64 l 450 64 l 456 66 l 462 68 l 470 70 l 475 72 l 481 74 l 487 76 l 495 78 l 501 80 l 507 82 l 513 84 l 521 86 l 527 88 l 533 90 l 538 92 l 547 94 l 552 96 l 558 98 l 566 100 l 572 102 l 578 104 l 584 105 l 592 107 l 598 110 l 604 112 l 610 114 l 617 115 l 624 117 l 629 119 l 637 121 l 643 123 l 649 125 l 651 127 l 651 131 l 655 131 l 657 135 l 659 141 l 661 147 l 663 153 l 665 159 l 667 165 l 669 171 l 671 175 l 673 180 l 675 186 l 675 198 l 673 206 l 671 212 l 669 218 l 667 226 l 665 232 l 663 240 l 661 246 l 659 252 l 657 260 l 655 266 l 653 273 l 651 279 l 649 285 l 647 293 l 645 299 l 643 307 l 641 313 l 639 319 l 639 321 l 639 325 l 637 327 l 633 329 l 631 331 l 627 333 l 625 335 l 622 336 l 620 338 l 615 340 l 614 342 l 612 345 l 608 347 l 606 348 l 602 350 l 600 352 l 596 354 l 594 356 l 590 358 l 588 360 l 584 362 l 582 364 l 580 366 l 576 368 l 574 370 l 570 372 l 568 374 l 564 376 l 562 378 l 558 380 l 556 382 l 552 384 l 550 386 l 547 388 l 545 390 l 543 392 l 538 394 l 537 396 l 533 398 l 531 400 l 527 402 l 525 404 l 521 406 l 519 408 l 515 410 l 513 412 l 511 413 l 507 415 l 505 417 l 501 419 l 499 421 l 495 423 l 493 425 l 489 427 l 487 429 l 483 431 l 481 433 l 477 435 l 475 437 l 473 439 l 470 441 l 468 443 l 464 445 l 462 447 l 458 449 l 456 451 l 452 453 l 450 455 l 446 457 l 444 459 l 442 461 l 438 463 l 436 463 l 430 461 l 422 459 l 416 457 l 410 455 l 405 453 l 399 451 l 393 449 l 385 447 l 379 445 l 373 443 l 367 441 l 361 439 l 353 437 l 347 435 l 341 433 l 335 431 l 330 429 l 328 429 l 330 433 l 332 439 l 333 443 l 335 447 l 337 451 l 339 457 l 341 461 l 343 465 l 345 469 l 347 475 l 349 478 l 351 483 l 353 487 l 355 492 l 357 496 l 359 500 l 361 504 l 363 508 l 365 514 l 367 518 l 369 522 l 371 526 l 373 532 l 375 536 l 377 540 l 379 544 l 381 550 l 383 554 l 385 558 l 387 562 l 389 568 l 391 571 l 393 575 l 395 579 l 396 583 l 399 589 l 400 593 l 402 597 l 405 601 l 406 607 l 409 611 l 410 615 l 412 619 l 414 625 l 416 629 l 418 633 l 420 636 l 422 643 l 424 646 l 426 650 l 428 654 l 430 658 l 432 664 l 434 668 l 436 672 l 438 676 l 440 682 l 442 686 l 444 690 l 446 694 l 448 700 l 450 704 l 452 708 l 454 711 l 456 718 l 458 721 l 460 725 l 462 729 l 464 733 l 466 739 l 468 743 l 470 747 l 472 751 l 473 757 l 475 761 l 477 765 l 479 769 l 481 774 l 483 779 l 485 783 l 487 786 l 489 792 l 491 796 l 493 800 l 495 808 l 495 812 l 493 818 l 491 824 l 489 832 l 487 838 l 485 846 l 483 851 l 481 858 l 479 865 l 477 871 l 475 879 l 473 885 l 472 893 l 470 899 l 468 905 l 466 913 l 464 919 l 462 926 l 460 932 l 458 939 l 456 946 l 454 952 l 452 960 l 450 966 l 448 972 l 446 980 l 444 986 l 442 994 l 440 1000 l 438 1006 l 436 1014 l 434 1019 l 432 1027 l 430 1033 l 428 1039 l 426 1047 l 424 1053 l 422 1061 l 420 1067 l 418 1073 l 416 1081 l 414 1086 l 414 1090 l 416 1094 l 416 1096 l 412 1098 l 399 1100 l 385 1102 l 371 1104 l 357 1106 l 343 1108 l 330 1110 l 316 1112 l 302 1114 l 288 1116 l 274 1118 l 260 1120 l 247 1122 l 231 1124 l 217 1126 l 203 1128 l 190 1130 l 176 1132 l 162 1134 l 148 1136 l 134 1138 l 120 1140 l 106 1142 l 93 1144 l 79 1146 l 71 1146 z "},"M":{"ha":848,"x_min":0,"x_max":0,"o":"m 236 559 l 153 1157 b 231 1139 179 1151 205 1145 b 309 1121 258 1133 284 1127 b 330 1095 316 1119 323 1110 b 346 1062 337 1080 342 1069 b 363 1029 349 1054 355 1043 b 377 999 371 1016 375 1005 l 417 999 b 443 949 421 999 430 982 b 468 890 457 916 465 897 b 494 833 474 876 482 857 b 515 779 505 809 512 791 l 495 771 l 764 199 b 714 150 758 195 741 178 b 669 109 687 122 672 109 l 505 130 l 290 723 l 337 279 l 251 283 l 153 574 b 145 536 152 565 149 553 b 136 499 140 519 137 507 b 128 461 133 486 130 473 b 120 424 125 449 123 437 b 89 276 111 379 100 329 b 73 202 81 245 76 221 b 51 179 71 193 63 186 b 22 163 38 172 29 167 b -35 129 3 151 -15 140 b -90 95 -54 118 -73 107 l -146 116 b -139 158 -145 127 -143 141 b -129 200 -134 174 -131 188 b -120 241 -126 214 -123 228 b -112 282 -117 254 -114 268 b -94 366 -106 311 -100 339 b -78 450 -89 393 -83 421 b -62 535 -72 479 -67 507 b -46 620 -56 563 -51 591 b -38 662 -43 634 -40 648 b -30 704 -35 676 -32 690 b -20 748 -27 714 -24 729 b -14 789 -16 767 -14 780 b -26 844 -14 797 -18 816 b -41 902 -33 872 -38 891 b -68 1013 -52 946 -61 983 b -32 1002 -63 1010 -51 1007 b 7 992 -13 997 0 994 b 44 982 19 989 31 986 b 81 973 56 979 69 976 b 96 965 91 970 96 968 b 102 946 97 962 99 956 b 115 911 108 929 112 917 b 127 876 119 899 123 887 b 138 840 130 864 134 852 l 162 769 b 187 699 170 744 178 721 b 211 624 192 685 200 660 b 236 559 222 588 230 567 z m 133 1167 l 135 1153 l 137 1137 l 139 1123 l 141 1109 l 143 1095 l 145 1081 l 147 1065 l 149 1051 l 151 1037 l 153 1023 l 155 1009 l 157 995 l 159 979 l 161 965 l 163 951 l 165 939 l 161 941 l 159 943 l 157 945 l 155 947 l 151 949 l 149 951 l 147 953 l 143 955 l 141 957 l 139 959 l 137 961 l 133 963 l 131 965 l 129 967 l 127 969 l 123 971 l 121 973 l 119 975 l 117 977 l 113 979 l 111 981 l 109 983 l 107 985 l 99 987 l 93 989 l 85 991 l 77 993 l 69 995 l 61 997 l 55 999 l 47 1001 l 39 1003 l 31 1005 l 23 1007 l 17 1009 l 9 1011 l 1 1013 l -6 1015 l -13 1017 l -20 1019 l -28 1021 l -36 1023 l -44 1025 l -51 1027 l -58 1029 l -66 1031 l -74 1033 l -82 1035 l -89 1037 l -90 1037 l -90 1027 l -89 1019 l -86 1011 l -84 1003 l -82 995 l -80 987 l -78 977 l -76 969 l -74 961 l -73 953 l -70 945 l -68 937 l -66 929 l -64 921 l -62 913 l -60 905 l -58 897 l -56 889 l -54 881 l -53 871 l -51 863 l -48 855 l -46 847 l -44 839 l -42 831 l -40 823 l -38 815 l -36 807 l -34 799 l -33 791 l -33 787 l -34 777 l -36 767 l -38 755 l -40 745 l -42 735 l -44 723 l -46 713 l -48 703 l -51 693 l -53 681 l -54 671 l -56 661 l -58 649 l -60 639 l -62 629 l -64 617 l -66 607 l -68 597 l -70 585 l -73 575 l -74 565 l -76 553 l -78 543 l -80 533 l -82 521 l -84 511 l -86 501 l -89 489 l -90 479 l -92 469 l -94 459 l -96 447 l -98 437 l -100 427 l -102 415 l -104 405 l -106 395 l -109 385 l -110 375 l -112 367 l -114 357 l -116 347 l -118 337 l -120 329 l -122 319 l -124 309 l -126 299 l -129 291 l -130 281 l -132 271 l -134 261 l -136 253 l -138 243 l -140 233 l -142 225 l -144 215 l -146 205 l -149 195 l -150 187 l -152 177 l -154 167 l -156 157 l -158 149 l -160 139 l -162 129 l -164 119 l -166 111 l -166 103 l -160 101 l -154 99 l -149 97 l -144 95 l -138 93 l -132 91 l -126 89 l -122 87 l -116 85 l -110 83 l -104 81 l -98 79 l -94 77 l -82 75 l -70 73 l -56 71 l -44 69 l -31 67 l -18 65 l -4 63 l 7 61 l 21 59 l 33 57 l 47 55 l 59 53 l 73 51 l 85 49 l 99 47 l 111 45 l 125 43 l 137 41 l 151 39 l 163 37 l 177 35 l 189 33 l 203 31 l 215 29 l 229 27 l 241 27 l 245 29 l 249 31 l 251 33 l 255 35 l 259 37 l 261 39 l 265 41 l 269 43 l 271 45 l 275 47 l 279 49 l 281 51 l 285 53 l 289 55 l 291 57 l 295 59 l 299 61 l 301 63 l 305 65 l 309 67 l 311 69 l 315 71 l 319 73 l 321 75 l 325 77 l 329 79 l 331 81 l 335 83 l 339 85 l 341 87 l 345 89 l 349 91 l 351 93 l 355 95 l 359 97 l 361 99 l 365 101 l 369 103 l 371 105 l 375 107 l 377 109 l 377 113 l 381 113 l 383 123 l 385 133 l 387 141 l 389 151 l 391 161 l 393 169 l 395 179 l 397 189 l 399 197 l 401 207 l 403 211 l 409 209 l 415 207 l 421 205 l 427 203 l 433 201 l 439 199 l 445 197 l 451 195 l 457 193 l 463 191 l 465 185 l 467 179 l 469 175 l 471 169 l 473 163 l 475 157 l 477 153 l 479 147 l 481 141 l 483 135 l 485 129 l 487 125 l 489 119 l 491 113 l 501 111 l 509 109 l 515 107 l 523 105 l 531 103 l 537 101 l 545 99 l 551 97 l 559 95 l 567 93 l 573 91 l 581 89 l 589 87 l 595 85 l 603 83 l 611 81 l 617 79 l 625 77 l 633 75 l 639 73 l 647 71 l 655 69 l 661 67 l 669 65 l 675 63 l 683 61 l 691 59 l 697 57 l 705 55 l 719 53 l 735 51 l 751 49 l 767 47 l 781 45 l 797 43 l 813 41 l 829 39 l 843 37 l 849 37 l 855 39 l 857 41 l 859 43 l 861 45 l 863 47 l 865 49 l 867 51 l 869 53 l 871 55 l 873 57 l 875 59 l 877 61 l 879 63 l 881 65 l 883 67 l 885 69 l 887 71 l 889 73 l 891 75 l 893 77 l 895 79 l 897 81 l 899 83 l 901 85 l 903 87 l 905 89 l 909 91 l 911 93 l 913 95 l 915 97 l 917 99 l 919 101 l 921 103 l 923 105 l 925 107 l 927 109 l 929 111 l 931 113 l 933 115 l 935 117 l 937 127 l 937 131 l 935 135 l 933 139 l 931 143 l 929 149 l 927 153 l 925 157 l 923 161 l 921 165 l 919 169 l 917 173 l 915 177 l 913 183 l 911 187 l 909 191 l 907 195 l 905 199 l 903 203 l 901 207 l 899 211 l 897 215 l 895 221 l 893 225 l 891 229 l 889 233 l 887 237 l 885 241 l 883 245 l 881 249 l 879 255 l 877 259 l 875 263 l 873 267 l 871 271 l 869 275 l 867 279 l 865 283 l 863 287 l 861 293 l 859 297 l 857 301 l 855 305 l 853 309 l 851 313 l 849 317 l 847 321 l 845 327 l 843 331 l 841 335 l 839 339 l 837 343 l 835 347 l 833 351 l 831 355 l 829 361 l 827 365 l 825 369 l 823 373 l 821 377 l 819 381 l 817 385 l 815 389 l 813 393 l 811 399 l 809 403 l 807 407 l 805 411 l 803 415 l 801 419 l 799 423 l 797 427 l 795 433 l 793 437 l 791 441 l 789 445 l 787 449 l 785 453 l 783 457 l 781 461 l 779 465 l 777 471 l 775 475 l 773 479 l 771 483 l 769 487 l 767 491 l 765 495 l 763 499 l 761 505 l 759 509 l 757 513 l 755 517 l 753 521 l 751 525 l 749 529 l 747 533 l 745 537 l 743 543 l 741 547 l 739 551 l 737 555 l 735 559 l 733 563 l 731 567 l 729 571 l 727 577 l 731 577 l 735 579 l 735 589 l 739 589 l 739 591 l 737 597 l 735 601 l 733 605 l 731 611 l 729 615 l 727 619 l 725 625 l 723 629 l 721 633 l 719 639 l 717 643 l 715 647 l 713 653 l 711 657 l 709 661 l 707 667 l 705 671 l 703 677 l 701 681 l 699 685 l 697 691 l 695 695 l 693 699 l 691 705 l 689 709 l 687 713 l 685 719 l 683 723 l 681 727 l 679 733 l 677 737 l 675 741 l 673 747 l 671 751 l 669 755 l 667 761 l 665 765 l 663 771 l 661 775 l 659 779 l 657 781 l 655 783 l 653 785 l 651 787 l 649 789 l 647 791 l 645 793 l 643 795 l 641 797 l 639 799 l 637 801 l 635 803 l 633 805 l 631 809 l 629 811 l 627 813 l 625 815 l 623 817 l 621 819 l 619 821 l 617 823 l 615 825 l 613 827 l 611 829 l 609 831 l 607 833 l 605 835 l 603 837 l 601 839 l 599 841 l 597 843 l 595 845 l 593 847 l 591 849 l 589 851 l 587 855 l 585 857 l 583 859 l 581 863 l 579 867 l 577 871 l 575 875 l 573 877 l 571 879 l 569 881 l 567 883 l 565 885 l 563 887 l 561 889 l 559 891 l 557 893 l 555 895 l 553 897 l 551 899 l 549 901 l 547 903 l 545 905 l 543 907 l 541 911 l 539 913 l 537 915 l 535 917 l 533 919 l 531 921 l 529 923 l 527 925 l 525 927 l 523 929 l 521 931 l 519 933 l 517 935 l 515 937 l 513 939 l 511 941 l 509 943 l 507 945 l 505 949 l 503 951 l 501 953 l 499 955 l 497 957 l 495 959 l 493 961 l 491 963 l 489 965 l 487 967 l 485 969 l 483 971 l 481 973 l 479 975 l 477 977 l 475 979 l 473 981 l 471 983 l 469 985 l 467 989 l 465 991 l 463 993 l 461 995 l 459 997 l 457 999 l 455 1001 l 453 1003 l 451 1005 l 449 1007 l 447 1009 l 445 1011 l 443 1013 l 441 1015 l 439 1017 l 437 1019 l 435 1021 l 433 1023 l 431 1027 l 429 1029 l 427 1031 l 425 1033 l 423 1035 l 421 1037 l 419 1039 l 417 1041 l 415 1043 l 413 1045 l 411 1047 l 409 1049 l 407 1051 l 405 1053 l 403 1055 l 401 1057 l 399 1059 l 397 1061 l 395 1065 l 393 1067 l 391 1069 l 389 1071 l 387 1073 l 385 1075 l 383 1077 l 381 1079 l 379 1081 l 377 1083 l 375 1085 l 373 1087 l 371 1089 l 369 1091 l 367 1093 l 365 1095 l 363 1097 l 361 1099 l 359 1101 l 357 1105 l 355 1107 l 353 1109 l 351 1111 l 349 1113 l 347 1115 l 345 1117 l 343 1119 l 341 1121 l 339 1123 l 337 1125 l 335 1127 l 333 1129 l 331 1131 l 329 1135 l 321 1137 l 313 1139 l 303 1141 l 295 1143 l 287 1145 l 277 1147 l 269 1149 l 261 1151 l 251 1153 l 243 1155 l 233 1157 l 225 1159 l 217 1161 l 207 1163 l 199 1165 l 191 1167 l 181 1169 l 173 1171 l 165 1173 l 155 1175 l 147 1177 l 139 1179 l 133 1179 z "},"N":{"ha":678,"x_min":0,"x_max":0,"o":"m 260 808 l 261 804 z m -39 133 l -122 1099 l -36 1147 l 312 440 l 260 1029 l 521 1128 b 534 1092 521 1120 525 1108 b 546 1055 542 1076 546 1064 b 543 1005 545 1039 544 1022 b 539 955 541 988 540 971 b 532 855 537 922 534 889 b 526 755 530 822 528 789 l 555 769 l 531 523 l 504 517 l 475 157 l 474 142 b 437 157 464 145 452 150 b 400 174 423 164 411 170 b 381 182 394 177 387 180 b 363 191 375 185 369 188 b 344 199 352 196 346 198 b 333 214 343 199 339 204 b 297 278 320 235 308 257 b 260 342 285 299 273 320 b 222 406 247 363 234 384 l 185 470 b 168 502 179 481 173 491 b 149 533 162 512 156 523 b 131 567 144 542 138 553 b 111 598 124 580 117 590 l 172 236 z m 523 1149 l 516 1148 l 512 1146 l 508 1144 l 504 1143 l 500 1141 l 496 1140 l 492 1138 l 488 1136 l 484 1135 l 480 1133 l 476 1132 l 472 1130 l 468 1128 l 464 1126 l 459 1125 l 453 1123 l 449 1122 l 446 1120 l 441 1118 l 437 1117 l 433 1115 l 429 1114 l 425 1112 l 421 1110 l 417 1108 l 413 1107 l 409 1105 l 405 1104 l 401 1102 l 397 1100 l 391 1099 l 387 1097 l 382 1096 l 378 1094 l 374 1092 l 370 1091 l 366 1089 l 362 1087 l 358 1086 l 354 1084 l 350 1082 l 346 1081 l 342 1079 l 338 1078 l 334 1076 l 328 1074 l 323 1073 l 319 1071 l 316 1069 l 311 1068 l 307 1066 l 303 1064 l 299 1063 l 295 1061 l 291 1060 l 287 1058 l 283 1056 l 279 1055 l 275 1053 l 271 1052 l 267 1050 l 261 1048 l 257 1047 l 253 1045 l 249 1043 l 244 1042 l 240 1040 l 240 1033 l 241 1019 l 242 1008 l 243 995 l 244 983 l 245 970 l 247 958 l 248 945 l 249 933 l 250 920 l 251 909 l 252 896 l 254 882 l 255 871 l 256 858 l 257 846 l 258 833 l 259 821 l 260 808 l 259 812 l 257 816 l 255 820 l 254 824 l 252 826 l 250 829 l 248 833 l 247 837 l 245 841 l 243 843 l 241 847 l 239 851 l 238 855 l 236 859 l 234 861 l 233 865 l 231 868 l 229 870 l 227 872 l 225 874 l 223 877 l 221 879 l 220 882 l 218 884 l 216 886 l 214 888 l 213 890 l 211 892 l 209 895 l 207 897 l 205 899 l 203 900 l 201 903 l 200 904 l 198 906 l 196 908 l 194 910 l 192 912 l 191 915 l 189 918 l 187 920 l 185 922 l 183 924 l 181 926 l 179 928 l 178 930 l 176 932 l 174 935 l 172 937 l 170 939 l 169 940 l 167 943 l 165 944 l 163 946 l 161 948 l 159 952 l 157 954 l 156 957 l 154 958 l 152 960 l 150 962 l 148 964 l 146 966 l 144 968 l 143 970 l 141 972 l 139 975 l 137 976 l 135 979 l 134 980 l 132 983 l 130 984 l 128 988 l 126 990 l 124 992 l 123 994 l 121 996 l 119 998 l 117 1000 l 115 1002 l 114 1004 l 112 1006 l 110 1008 l 108 1010 l 106 1013 l 104 1015 l 102 1016 l 101 1019 l 99 1022 l 97 1024 l 95 1026 l 93 1028 l 92 1030 l 90 1033 l 88 1035 l 86 1036 l 84 1038 l 82 1040 l 80 1042 l 79 1044 l 77 1046 l 75 1048 l 73 1050 l 71 1053 l 70 1055 l 68 1058 l 66 1060 l 64 1062 l 62 1064 l 60 1066 l 58 1068 l 57 1070 l 55 1073 l 53 1075 l 51 1076 l 49 1078 l 47 1080 l 46 1082 l 44 1084 l 42 1086 l 40 1088 l 38 1090 l 37 1094 l 35 1096 l 33 1098 l 31 1100 l 29 1102 l 27 1104 l 25 1106 l 24 1108 l 22 1111 l 20 1112 l 18 1115 l 16 1116 l 15 1119 l 13 1120 l 11 1122 l 9 1124 l 7 1128 l 5 1130 l 4 1132 l 2 1134 l 0 1136 l -2 1138 l -3 1140 l -5 1142 l -7 1144 l -9 1146 l -11 1148 l -13 1151 l -15 1152 l -16 1155 l -18 1156 l -20 1158 l -22 1160 l -23 1164 l -25 1166 l -27 1170 l -31 1171 l -33 1169 l -37 1167 l -39 1165 l -43 1164 l -45 1162 l -50 1160 l -52 1158 l -56 1157 l -58 1155 l -62 1154 l -64 1152 l -66 1150 l -70 1148 l -72 1146 l -76 1145 l -78 1143 l -82 1142 l -84 1140 l -89 1138 l -91 1136 l -95 1135 l -97 1133 l -101 1131 l -103 1129 l -107 1128 l -109 1126 l -113 1124 l -115 1123 l -117 1121 l -121 1119 l -123 1118 l -127 1116 l -130 1114 l -134 1113 l -136 1111 l -140 1109 l -141 1100 l -139 1088 l -138 1075 l -137 1062 l -136 1048 l -135 1035 l -134 1024 l -133 1010 l -132 997 l -131 984 l -130 972 l -129 959 l -127 946 l -126 932 l -125 921 l -124 907 l -123 894 l -122 881 l -121 869 l -119 856 l -118 843 l -117 830 l -116 816 l -115 805 l -114 791 l -113 778 l -112 765 l -111 753 l -110 740 l -109 727 l -107 713 l -106 702 l -105 689 l -104 675 l -103 662 l -102 649 l -101 637 l -100 624 l -99 611 l -97 598 l -96 586 l -95 573 l -94 559 l -93 546 l -92 535 l -91 522 l -90 508 l -89 495 l -87 484 l -86 470 l -85 457 l -84 444 l -83 430 l -82 419 l -81 406 l -80 392 l -79 379 l -77 368 l -76 354 l -75 341 l -74 328 l -73 316 l -72 303 l -71 290 l -70 276 l -69 263 l -67 251 l -66 238 l -65 225 l -64 212 l -63 200 l -62 187 l -61 174 l -60 160 l -59 149 l -58 135 l -57 122 l -56 109 l -54 107 l -50 106 l -38 106 l -30 103 l -24 101 l -17 99 l -11 97 l -3 94 l 4 92 l 10 90 l 18 87 l 24 85 l 32 82 l 37 80 l 45 78 l 53 76 l 58 73 l 66 71 l 72 68 l 80 66 l 85 64 l 93 62 l 101 59 l 107 57 l 115 55 l 120 52 l 128 50 l 136 47 l 141 45 l 149 43 l 155 41 l 163 38 l 169 36 l 176 34 l 184 32 l 190 29 l 197 27 l 203 24 l 215 24 l 219 25 l 221 27 l 225 29 l 230 31 l 232 32 l 236 34 l 240 36 l 242 37 l 246 39 l 250 41 l 252 42 l 256 44 l 258 46 l 262 47 l 266 49 l 268 51 l 272 52 l 277 54 l 279 56 l 283 58 l 287 59 l 289 61 l 293 62 l 297 64 l 299 66 l 303 67 l 307 69 l 309 71 l 313 73 l 317 74 l 319 76 l 323 78 l 328 79 l 330 81 l 334 83 l 336 84 l 340 86 l 344 88 l 346 90 l 350 91 l 354 93 l 356 95 l 360 96 l 365 98 l 367 100 l 371 101 l 375 103 l 377 104 l 381 106 l 385 108 l 387 110 l 391 111 l 395 113 l 397 115 l 398 122 l 401 122 l 402 127 l 400 135 l 399 143 l 398 149 l 401 146 l 405 144 l 409 142 l 413 140 l 416 138 l 420 136 l 424 134 l 428 132 l 432 130 l 436 127 l 439 125 l 443 123 l 447 121 l 451 119 l 455 117 l 458 115 l 462 113 l 466 111 l 470 108 l 474 106 l 477 104 l 481 102 l 485 100 l 489 98 l 493 96 l 496 93 l 500 91 l 504 89 l 508 87 l 512 85 l 515 83 l 521 80 l 525 78 l 531 76 l 535 74 l 541 72 l 546 70 l 550 67 l 556 65 l 559 63 l 565 61 l 571 58 l 575 56 l 581 54 l 585 52 l 590 50 l 596 47 l 600 45 l 606 43 l 610 41 l 615 39 l 619 37 l 625 34 l 631 34 l 633 36 l 637 37 l 641 39 l 649 124 l 659 248 l 665 340 l 673 340 l 681 341 l 684 347 l 688 348 l 693 399 l 699 465 l 706 531 l 708 567 l 706 570 l 705 574 l 703 576 l 701 580 l 699 582 l 697 586 l 696 588 l 694 592 l 692 594 l 691 598 l 689 600 l 700 792 l 698 796 l 696 800 l 695 806 l 693 809 l 691 813 l 690 817 l 688 823 l 686 827 l 685 831 l 683 835 l 681 840 l 680 844 l 678 848 l 676 852 l 674 856 l 673 860 l 671 864 l 669 868 l 668 870 l 666 873 l 664 878 l 662 881 l 661 885 l 659 887 l 657 891 l 655 895 l 654 899 l 652 903 l 650 905 l 648 909 l 647 912 l 645 917 l 643 920 l 642 924 l 640 926 l 638 930 l 636 934 l 634 938 l 633 942 l 631 944 l 629 948 l 628 952 l 626 956 l 624 960 l 622 961 l 621 965 l 619 969 l 617 973 l 615 977 l 614 979 l 612 983 l 610 987 l 609 991 l 607 995 l 605 997 l 603 1000 l 602 1004 l 600 1008 l 598 1012 l 596 1016 l 594 1018 l 593 1022 l 591 1026 l 589 1030 l 588 1034 l 586 1036 l 584 1039 l 583 1043 l 581 1047 l 579 1051 l 577 1053 l 575 1057 l 574 1061 l 572 1065 l 570 1069 l 568 1071 l 567 1075 l 565 1079 l 563 1082 l 562 1086 l 560 1088 l 558 1092 l 556 1096 l 555 1100 l 553 1104 l 551 1106 l 549 1110 l 548 1114 l 546 1118 l 544 1121 l 543 1125 l 541 1127 l 539 1131 l 537 1135 l 535 1139 l 534 1143 l 532 1147 l 530 1151 l 527 1151 z "},"O":{"ha":610,"x_min":0,"x_max":0,"o":"m 334 465 l 245 687 l 242 688 l 133 382 z m 443 1142 b 435 1089 443 1132 440 1114 b 424 1035 430 1064 426 1046 b 414 981 420 1017 417 999 b 404 929 411 963 407 946 b 394 876 400 911 397 893 b 384 824 391 858 387 841 b 379 796 381 809 379 800 b 385 773 378 793 380 785 b 404 729 390 760 396 746 b 478 551 428 675 453 616 b 496 507 484 538 489 523 b 515 463 502 491 509 477 b 517 410 520 453 521 435 b 511 351 513 385 511 366 l -70 119 b -100 252 -72 138 -82 182 b -124 368 -118 323 -126 361 b -103 423 -118 386 -111 404 b -81 478 -95 442 -88 460 b -59 532 -74 496 -66 514 b -38 586 -52 550 -45 568 b 5 695 -24 622 -10 659 b 47 804 19 731 33 767 b 58 831 51 812 54 821 b 69 859 61 840 65 849 b 75 890 72 867 74 877 b 76 927 76 903 76 915 b 79 1000 76 951 77 975 b 82 1073 81 1024 82 1048 z m 449 1160 l 438 1158 l 429 1157 l 420 1155 l 411 1153 l 402 1151 l 391 1149 l 382 1148 l 373 1146 l 363 1144 l 354 1142 l 343 1140 l 334 1138 l 325 1137 l 316 1135 l 307 1133 l 296 1131 l 287 1129 l 278 1128 l 269 1126 l 260 1124 l 249 1122 l 240 1120 l 231 1119 l 222 1117 l 213 1115 l 202 1113 l 193 1111 l 183 1109 l 174 1108 l 165 1106 l 154 1104 l 145 1102 l 136 1100 l 127 1099 l 118 1097 l 107 1095 l 98 1093 l 89 1091 l 80 1089 l 71 1088 l 67 1086 l 65 1069 l 63 1022 l 62 975 l 60 927 l 58 880 l 56 871 l 54 867 l 53 862 l 51 859 l 49 853 l 47 847 l 45 844 l 43 839 l 42 835 l 40 829 l 38 826 l 36 820 l 34 817 l 33 811 l 31 807 l 29 802 l 27 798 l 25 793 l 23 787 l 22 784 l 20 778 l 18 775 l 16 769 l 14 766 l 13 760 l 11 756 l 9 751 l 7 747 l 5 742 l 3 738 l 2 733 l 0 727 l -2 724 l -3 718 l -5 715 l -7 709 l -9 706 l -11 700 l -13 696 l -14 691 l -16 688 l -18 682 l -20 679 l -22 673 l -23 668 l -25 664 l -27 659 l -29 655 l -31 649 l -33 646 l -34 640 l -36 637 l -38 631 l -40 628 l -42 622 l -43 618 l -45 613 l -47 609 l -49 604 l -51 598 l -53 595 l -54 589 l -56 586 l -58 580 l -60 577 l -62 571 l -63 568 l -65 562 l -67 558 l -69 553 l -71 549 l -73 544 l -74 538 l -76 535 l -78 529 l -80 526 l -82 520 l -83 517 l -85 511 l -87 508 l -89 502 l -91 498 l -93 493 l -94 489 l -96 484 l -98 478 l -100 475 l -102 469 l -103 466 l -105 460 l -107 456 l -109 451 l -111 448 l -113 442 l -114 438 l -116 433 l -118 429 l -120 424 l -122 418 l -123 415 l -125 409 l -127 406 l -129 400 l -131 396 l -133 391 l -134 388 l -136 382 l -138 378 l -140 373 l -142 369 l -142 360 l -140 353 l -138 346 l -136 336 l -134 329 l -133 320 l -131 313 l -129 306 l -127 296 l -125 289 l -123 280 l -122 273 l -120 264 l -118 257 l -116 249 l -114 240 l -113 233 l -111 224 l -109 217 l -107 208 l -105 200 l -103 193 l -102 184 l -100 177 l -98 168 l -96 160 l -94 153 l -93 144 l -91 137 l -89 127 l -87 120 l -85 111 l -83 104 l -82 98 l -78 98 l -71 98 l -63 97 l -56 95 l -49 93 l -42 91 l -36 89 l -29 87 l -22 85 l -14 84 l -7 82 l 0 80 l 5 78 l 13 77 l 20 75 l 27 73 l 34 71 l 42 69 l 47 67 l 54 65 l 62 64 l 69 62 l 76 60 l 83 58 l 89 56 l 96 55 l 103 53 l 111 51 l 118 49 l 125 47 l 131 45 l 138 44 l 145 42 l 153 40 l 160 38 l 171 38 l 174 40 l 180 42 l 183 44 l 189 45 l 193 47 l 198 49 l 202 51 l 207 53 l 211 55 l 216 56 l 220 58 l 225 60 l 229 62 l 234 64 l 238 65 l 243 67 l 247 69 l 253 71 l 256 73 l 262 75 l 265 77 l 271 78 l 274 80 l 280 82 l 283 84 l 289 85 l 293 87 l 298 89 l 302 91 l 307 93 l 311 95 l 316 97 l 320 98 l 325 100 l 329 102 l 334 104 l 338 105 l 343 107 l 347 109 l 353 111 l 356 113 l 362 115 l 365 117 l 371 118 l 374 120 l 378 122 l 384 124 l 387 125 l 393 127 l 396 129 l 402 131 l 405 133 l 411 135 l 414 137 l 420 138 l 424 140 l 429 142 l 432 144 l 438 145 l 442 148 l 447 149 l 451 151 l 456 153 l 460 155 l 465 157 l 469 158 l 474 160 l 478 162 l 484 164 l 487 165 l 492 168 l 496 169 l 502 171 l 505 173 l 511 175 l 514 177 l 520 178 l 524 180 l 529 182 l 532 184 l 538 185 l 542 188 l 547 189 l 551 191 l 556 193 l 560 195 l 565 197 l 569 198 l 574 200 l 578 202 l 584 204 l 587 205 l 592 208 l 596 209 l 602 211 l 605 213 l 611 215 l 614 217 l 620 218 l 624 220 l 629 222 l 632 224 l 638 225 l 642 228 l 644 229 l 645 233 l 647 235 l 649 240 l 651 258 l 652 275 l 654 293 l 656 311 l 656 326 l 654 329 l 652 335 l 651 338 l 649 342 l 647 348 l 645 351 l 644 356 l 642 360 l 640 364 l 638 369 l 636 373 l 634 376 l 632 382 l 631 386 l 629 391 l 627 395 l 625 398 l 624 404 l 622 408 l 620 411 l 618 416 l 616 420 l 614 424 l 612 429 l 611 433 l 609 438 l 607 442 l 605 446 l 604 451 l 602 455 l 600 458 l 598 464 l 596 468 l 594 473 l 592 477 l 591 480 l 589 486 l 587 489 l 585 493 l 584 498 l 582 502 l 580 506 l 578 511 l 576 515 l 574 520 l 572 524 l 571 528 l 569 533 l 567 537 l 565 540 l 564 546 l 562 549 l 560 555 l 558 558 l 556 562 l 554 568 l 552 571 l 551 575 l 549 580 l 547 584 l 545 589 l 545 602 l 547 613 l 549 622 l 551 631 l 552 642 l 554 651 l 556 660 l 558 669 l 560 680 l 562 689 l 564 698 l 565 708 l 567 718 l 569 727 l 571 736 l 572 747 l 574 756 l 576 766 l 578 775 l 580 786 l 582 795 l 584 804 l 585 815 l 587 824 l 589 833 l 591 842 l 592 853 l 594 862 l 596 871 l 596 886 l 594 889 l 592 893 l 591 897 l 589 900 l 587 904 l 585 907 l 584 911 l 582 915 l 580 919 l 578 922 l 576 926 l 574 929 l 572 933 l 571 937 l 569 940 l 567 944 l 565 947 l 564 951 l 562 955 l 560 959 l 558 962 l 556 966 l 554 969 l 552 973 l 551 977 l 549 980 l 547 984 l 545 987 l 544 991 l 542 995 l 540 999 l 538 1004 l 536 1007 l 534 1011 l 532 1015 l 531 1019 l 529 1022 l 527 1026 l 525 1029 l 524 1033 l 522 1037 l 520 1040 l 518 1044 l 516 1048 l 514 1051 l 512 1055 l 511 1059 l 509 1062 l 507 1066 l 505 1069 l 504 1073 l 502 1077 l 500 1080 l 498 1084 l 496 1088 l 494 1091 l 492 1095 l 491 1099 l 489 1102 l 487 1106 l 485 1109 l 484 1113 l 481 1117 l 480 1120 l 478 1124 l 476 1128 l 474 1131 l 472 1135 l 471 1138 l 469 1142 l 467 1146 l 465 1149 l 464 1153 l 464 1155 l 464 1162 l 458 1162 z "},"P":{"ha":509,"x_min":0,"x_max":0,"o":"m 62 945 l 101 691 b 144 702 115 695 130 698 b 187 714 159 706 173 710 b 230 725 197 716 211 720 b 240 743 236 726 239 732 b 241 769 240 754 241 762 b 251 869 242 800 245 834 b 260 969 257 903 260 937 z m 300 537 l 115 482 l 160 190 l -19 139 l -63 160 l -79 585 l -54 599 l -47 822 l -96 822 l -111 1089 l 411 1154 l 465 1088 z m 396 1168 l 379 1167 l 363 1165 l 348 1163 l 333 1161 l 318 1159 l 303 1157 l 286 1155 l 271 1154 l 256 1152 l 241 1150 l 226 1148 l 209 1146 l 194 1144 l 179 1142 l 164 1140 l 149 1138 l 132 1137 l 116 1135 l 101 1133 l 86 1131 l 71 1129 l 54 1127 l 39 1125 l 24 1123 l 9 1121 l -6 1120 l -21 1118 l -38 1116 l -53 1114 l -68 1112 l -83 1110 l -98 1108 l -115 1106 l -129 1104 l -129 1085 l -126 1054 l -124 1020 l -123 986 l -121 954 l -119 920 l -117 886 l -115 853 l -113 820 l -111 807 l -107 805 l -106 803 l -104 799 l -102 797 l -100 795 l -98 793 l -96 790 l -94 788 l -93 786 l -91 782 l -89 780 l -87 778 l -85 777 l -83 773 l -81 771 l -79 769 l -77 767 l -76 763 l -74 761 l -72 760 l -70 756 l -68 754 l -68 705 l -70 631 l -70 607 l -74 607 l -77 605 l -81 603 l -85 601 l -89 599 l -93 597 l -96 595 l -96 569 l -94 520 l -93 471 l -91 422 l -89 373 l -87 322 l -85 273 l -83 224 l -81 175 l -79 147 l -74 145 l -72 143 l -68 141 l -64 139 l -60 137 l -57 135 l -53 134 l -51 132 l -47 130 l -43 128 l -40 126 l -36 124 l -32 122 l -31 120 l -26 118 l -23 117 l -19 115 l -15 113 l -12 111 l -8 109 l -6 107 l -2 105 l 1 103 l 5 101 l 9 100 l 13 98 l 15 96 l 18 94 l 22 92 l 26 90 l 30 89 l 34 86 l 35 84 l 39 83 l 43 81 l 47 79 l 51 77 l 54 75 l 56 73 l 60 72 l 64 70 l 67 67 l 71 66 l 75 64 l 79 62 l 81 60 l 84 58 l 88 56 l 92 55 l 96 53 l 99 51 l 103 49 l 109 47 l 113 45 l 116 43 l 122 41 l 126 39 l 130 38 l 135 36 l 147 36 l 152 38 l 160 39 l 165 41 l 173 43 l 179 45 l 186 47 l 194 49 l 199 51 l 207 53 l 213 55 l 220 56 l 226 58 l 233 60 l 239 62 l 247 64 l 254 66 l 260 67 l 267 70 l 273 72 l 280 73 l 286 75 l 294 77 l 296 83 l 297 84 l 299 86 l 299 92 l 297 103 l 296 117 l 294 128 l 292 141 l 290 153 l 288 164 l 286 177 l 284 188 l 282 201 l 280 213 l 279 226 l 277 237 l 275 249 l 273 262 l 271 273 l 269 286 l 267 298 l 266 311 l 266 313 l 273 315 l 279 316 l 284 318 l 290 320 l 297 322 l 303 324 l 309 326 l 314 328 l 322 330 l 328 332 l 333 333 l 341 335 l 347 337 l 352 339 l 358 341 l 366 343 l 371 345 l 377 347 l 382 349 l 390 350 l 396 352 l 401 354 l 405 356 l 405 360 l 409 360 l 411 366 l 413 371 l 414 377 l 416 384 l 418 390 l 420 396 l 422 403 l 424 409 l 426 415 l 428 422 l 429 428 l 431 433 l 433 441 l 435 447 l 437 452 l 439 460 l 441 466 l 443 471 l 445 478 l 446 484 l 448 490 l 450 497 l 452 503 l 454 509 l 456 516 l 458 522 l 459 528 l 461 535 l 464 541 l 465 547 l 467 554 l 469 560 l 471 565 l 473 573 l 475 578 l 477 586 l 478 592 l 480 597 l 482 605 l 484 611 l 486 616 l 488 624 l 490 629 l 492 635 l 494 643 l 495 648 l 497 654 l 499 662 l 501 667 l 503 673 l 505 681 l 507 686 l 509 691 l 511 699 l 512 705 l 514 710 l 516 718 l 518 724 l 520 729 l 522 737 l 524 743 l 526 748 l 528 756 l 529 761 l 531 767 l 533 774 l 535 780 l 537 786 l 539 793 l 541 799 l 543 807 l 543 818 l 541 825 l 539 835 l 537 844 l 535 852 l 533 861 l 531 871 l 529 878 l 528 888 l 526 895 l 524 905 l 522 914 l 520 922 l 518 931 l 516 939 l 514 948 l 512 957 l 511 965 l 509 974 l 507 984 l 505 991 l 503 1001 l 501 1008 l 499 1018 l 497 1027 l 495 1035 l 494 1044 l 492 1054 l 490 1061 l 488 1070 l 486 1078 l 484 1087 l 482 1095 l 480 1097 l 478 1099 l 477 1102 l 475 1104 l 473 1106 l 471 1108 l 469 1112 l 467 1114 l 465 1116 l 464 1118 l 461 1120 l 459 1123 l 458 1125 l 456 1127 l 454 1129 l 452 1131 l 450 1135 l 448 1137 l 446 1138 l 445 1140 l 443 1142 l 441 1146 l 439 1148 l 437 1150 l 435 1152 l 433 1155 l 431 1157 l 429 1159 l 428 1161 l 426 1163 l 424 1167 l 422 1168 l 420 1171 l 411 1171 z "},"Q":{"ha":610,"x_min":0,"x_max":0,"o":"m 68 410 l 309 607 l 244 857 l 240 857 b 218 805 238 848 231 831 b 190 752 204 780 195 762 b 164 700 181 734 173 717 b 139 648 156 683 148 666 b 114 596 130 631 122 614 b 88 545 105 579 97 562 b 75 480 84 538 80 517 b 68 410 70 444 68 420 z m 486 1133 l 466 494 l 379 425 l 589 205 b 528 193 578 204 558 200 b 465 178 497 185 476 180 b 402 163 455 175 434 170 b 344 152 371 155 351 152 b 285 221 340 152 321 175 b 217 300 249 268 226 294 l -10 148 l -97 201 l -111 531 b -87 556 -108 535 -100 543 l -61 582 b -36 605 -51 591 -43 599 b -20 637 -30 611 -25 622 b 3 711 -13 662 -5 686 b 25 785 11 735 18 760 b 47 858 31 809 39 834 b 71 932 56 883 64 908 b 94 1007 77 957 85 982 b 116 1080 103 1032 110 1057 z m 483 1148 l 470 1147 l 458 1145 l 445 1143 l 433 1142 l 420 1140 l 410 1138 l 397 1136 l 385 1135 l 372 1133 l 360 1131 l 347 1129 l 335 1128 l 322 1126 l 310 1124 l 297 1122 l 285 1121 l 274 1119 l 262 1117 l 249 1115 l 237 1114 l 224 1112 l 212 1110 l 199 1108 l 187 1107 l 175 1105 l 162 1103 l 150 1101 l 139 1100 l 126 1098 l 114 1096 l 103 1095 l 101 1089 l 100 1084 l 98 1077 l 96 1072 l 95 1066 l 93 1059 l 91 1054 l 89 1049 l 87 1042 l 85 1037 l 84 1031 l 82 1026 l 80 1019 l 78 1014 l 77 1009 l 75 1002 l 73 996 l 71 991 l 70 984 l 68 979 l 66 974 l 64 967 l 62 961 l 61 956 l 59 949 l 57 944 l 55 939 l 54 933 l 52 926 l 50 921 l 48 916 l 46 909 l 44 904 l 43 899 l 41 891 l 39 886 l 38 881 l 36 874 l 34 869 l 32 863 l 30 857 l 28 851 l 27 846 l 25 841 l 23 834 l 21 828 l 20 823 l 18 816 l 16 811 l 14 806 l 13 799 l 11 793 l 9 788 l 7 781 l 5 776 l 4 771 l 2 764 l 0 759 l -1 753 l -3 748 l -5 741 l -7 736 l -8 730 l -10 724 l -12 718 l -14 713 l -16 706 l -17 701 l -19 695 l -21 688 l -23 684 l -24 678 l -26 671 l -28 666 l -30 661 l -32 655 l -34 648 l -35 643 l -37 638 l -39 631 l -40 626 l -42 624 l -44 622 l -46 621 l -48 617 l -50 615 l -51 613 l -53 612 l -55 610 l -57 608 l -58 606 l -60 605 l -62 603 l -64 601 l -65 600 l -67 598 l -69 596 l -71 594 l -73 592 l -74 591 l -76 589 l -78 587 l -80 585 l -81 584 l -83 582 l -85 580 l -87 578 l -89 577 l -90 575 l -92 573 l -94 570 l -96 568 l -98 566 l -99 565 l -101 563 l -103 561 l -105 559 l -106 557 l -108 556 l -110 554 l -112 552 l -114 550 l -115 549 l -117 547 l -119 545 l -121 544 l -122 542 l -124 540 l -126 538 l -126 514 l -124 468 l -122 425 l -121 379 l -119 333 l -117 290 l -115 244 l -114 199 l -112 192 l -110 190 l -106 188 l -105 186 l -101 185 l -99 183 l -96 181 l -92 180 l -90 178 l -87 176 l -83 174 l -81 173 l -78 171 l -76 169 l -73 167 l -69 165 l -67 164 l -64 162 l -62 160 l -58 158 l -55 157 l -53 155 l -50 153 l -46 152 l -44 150 l -40 148 l -39 146 l -35 144 l -32 143 l -30 141 l -26 139 l -23 138 l -21 136 l -17 134 l -16 132 l -12 131 l -7 129 l -3 127 l 0 125 l 4 123 l 9 122 l 13 120 l 16 118 l 20 117 l 23 115 l 28 113 l 32 111 l 36 110 l 39 108 l 44 106 l 48 104 l 52 102 l 55 101 l 61 99 l 64 97 l 68 96 l 71 94 l 77 92 l 80 90 l 84 89 l 87 87 l 93 85 l 96 83 l 100 81 l 103 80 l 107 78 l 112 76 l 116 75 l 119 73 l 123 71 l 128 69 l 132 67 l 135 66 l 139 64 l 144 62 l 148 61 l 151 59 l 155 57 l 160 55 l 164 54 l 168 52 l 171 50 l 176 48 l 180 46 l 183 45 l 187 43 l 192 41 l 196 40 l 199 38 l 203 36 l 207 34 l 212 33 l 216 31 l 219 29 l 223 27 l 233 27 l 237 29 l 239 31 l 242 33 l 244 34 l 248 36 l 249 38 l 253 40 l 255 41 l 258 43 l 260 45 l 262 46 l 266 48 l 267 50 l 271 52 l 273 54 l 276 55 l 278 57 l 281 59 l 283 61 l 287 62 l 289 64 l 290 66 l 294 67 l 296 69 l 299 71 l 301 73 l 304 75 l 307 76 l 310 78 l 312 80 l 315 81 l 317 83 l 320 85 l 322 87 l 324 89 l 328 90 l 330 92 l 333 94 l 335 96 l 338 97 l 340 99 l 344 101 l 346 102 l 349 104 l 351 106 l 354 108 l 356 110 l 358 111 l 361 113 l 363 115 l 369 115 l 372 113 l 374 111 l 378 110 l 379 108 l 383 106 l 385 104 l 388 102 l 392 101 l 394 99 l 397 97 l 399 96 l 402 94 l 404 92 l 408 90 l 411 89 l 413 87 l 417 85 l 418 83 l 422 81 l 424 80 l 428 78 l 431 76 l 433 75 l 436 73 l 438 71 l 442 69 l 444 67 l 447 66 l 451 64 l 452 62 l 456 61 l 458 59 l 461 57 l 463 55 l 467 54 l 470 52 l 472 50 l 475 48 l 477 46 l 481 45 l 483 43 l 486 41 l 490 40 l 492 38 l 495 36 l 497 34 l 500 33 l 502 31 l 509 29 l 511 29 l 518 31 l 527 33 l 534 34 l 543 36 l 550 38 l 559 40 l 566 41 l 575 43 l 582 45 l 591 46 l 598 48 l 606 50 l 614 52 l 622 54 l 630 55 l 637 57 l 647 59 l 654 61 l 663 62 l 670 64 l 679 66 l 686 67 l 694 69 l 702 71 l 709 73 l 718 75 l 721 76 l 723 80 l 725 85 l 725 90 l 723 92 l 721 94 l 719 96 l 718 97 l 716 99 l 714 101 l 712 102 l 710 104 l 709 108 l 707 110 l 705 111 l 703 113 l 702 115 l 700 117 l 698 118 l 696 120 l 694 122 l 693 123 l 691 125 l 689 127 l 687 129 l 686 131 l 684 132 l 682 134 l 680 138 l 679 139 l 677 141 l 675 143 l 673 144 l 671 146 l 670 148 l 668 150 l 666 152 l 664 153 l 663 155 l 661 157 l 659 158 l 657 160 l 655 162 l 654 164 l 652 165 l 650 169 l 648 171 l 647 173 l 645 174 l 643 176 l 641 178 l 639 180 l 637 181 l 636 183 l 634 185 l 632 186 l 630 188 l 629 190 l 627 192 l 625 194 l 623 195 l 622 199 l 620 200 l 618 202 l 616 204 l 614 206 l 613 208 l 611 209 l 609 211 l 607 213 l 606 214 l 604 216 l 602 218 l 600 220 l 598 221 l 597 223 l 595 225 l 593 229 l 591 230 l 589 232 l 588 234 l 586 236 l 584 237 l 582 239 l 581 241 l 579 242 l 577 244 l 575 246 l 573 248 l 572 250 l 570 251 l 568 253 l 566 255 l 565 258 l 563 260 l 563 263 l 565 265 l 568 267 l 570 269 l 572 271 l 573 272 l 577 274 l 579 276 l 581 277 l 582 279 l 586 281 l 588 283 l 589 284 l 591 286 l 595 288 l 597 290 l 598 292 l 600 293 l 602 295 l 606 297 l 607 298 l 609 300 l 611 302 l 614 304 l 616 306 l 618 307 l 620 309 l 622 311 l 623 314 l 625 340 l 627 396 l 629 452 l 630 509 l 632 565 l 634 621 l 636 676 l 637 732 l 639 790 l 639 843 l 637 846 l 636 849 l 634 853 l 632 858 l 630 862 l 629 865 l 627 869 l 625 874 l 623 878 l 622 881 l 620 884 l 618 890 l 616 893 l 614 897 l 613 900 l 611 905 l 609 909 l 607 912 l 606 916 l 604 921 l 602 925 l 600 928 l 598 932 l 597 937 l 595 940 l 593 944 l 591 947 l 589 952 l 588 956 l 586 960 l 584 963 l 582 968 l 581 972 l 579 976 l 577 979 l 575 984 l 573 988 l 572 991 l 570 995 l 568 1000 l 566 1003 l 565 1007 l 563 1010 l 561 1016 l 559 1019 l 557 1023 l 556 1028 l 554 1031 l 552 1035 l 550 1039 l 549 1044 l 547 1047 l 545 1051 l 543 1054 l 542 1059 l 539 1063 l 538 1066 l 536 1070 l 534 1075 l 532 1079 l 531 1082 l 529 1086 l 527 1091 l 526 1095 l 524 1098 l 522 1101 l 520 1107 l 518 1110 l 516 1114 l 515 1117 l 513 1122 l 511 1126 l 509 1129 l 508 1133 l 506 1138 l 504 1142 l 502 1151 l 495 1151 z "},"R":{"ha":543,"x_min":0,"x_max":0,"o":"m 101 770 l 228 794 l 252 996 l 84 1013 z m 319 1132 l 388 1074 l 356 796 l 235 736 l 389 706 l 499 225 b 464 231 489 226 477 228 b 428 238 450 234 438 236 b 392 244 416 240 404 242 b 358 251 381 247 369 249 b 322 258 346 253 334 256 b 288 264 310 261 298 263 b 270 268 281 266 275 267 b 252 271 264 269 259 270 b 239 296 244 272 239 281 b 235 375 238 322 236 348 b 233 452 234 402 233 428 b 231 529 233 478 232 503 b 228 606 229 555 228 580 l 106 661 b 106 592 106 637 106 614 b 107 526 107 569 107 547 b 106 457 107 505 107 482 b 107 391 105 433 106 411 b 109 325 109 370 109 349 b 109 258 109 302 109 280 b 108 225 109 239 109 228 b 99 199 108 221 105 213 b 87 176 96 192 92 184 b 78 153 83 168 80 161 l -119 147 l -60 746 l -31 779 l -26 1086 z m 304 1146 l 292 1144 l 279 1142 l 266 1141 l 252 1139 l 239 1137 l 226 1136 l 213 1134 l 198 1132 l 186 1130 l 173 1128 l 160 1127 l 145 1125 l 133 1123 l 120 1122 l 107 1120 l 93 1118 l 80 1116 l 67 1115 l 54 1113 l 40 1111 l 27 1109 l 14 1107 l 1 1106 l -13 1104 l -26 1102 l -39 1101 l -40 1099 l -42 1071 l -44 969 l -46 868 l -48 784 l -50 782 l -52 781 l -53 779 l -55 777 l -57 773 l -59 772 l -60 770 l -62 768 l -64 767 l -66 765 l -68 763 l -70 761 l -72 760 l -73 756 l -75 754 l -77 744 l -79 725 l -81 705 l -82 686 l -84 669 l -86 650 l -88 630 l -90 611 l -92 594 l -93 574 l -95 555 l -97 536 l -99 518 l -101 499 l -103 480 l -104 461 l -106 443 l -108 424 l -110 405 l -112 386 l -114 368 l -115 349 l -117 330 l -119 311 l -121 293 l -123 274 l -124 255 l -126 235 l -128 218 l -130 199 l -132 179 l -134 160 l -136 143 l -136 132 l -128 131 l -124 129 l -121 127 l -119 125 l -115 123 l -112 122 l -108 120 l -104 118 l -101 116 l -99 115 l -95 113 l -92 111 l -88 110 l -84 108 l -81 106 l -79 104 l -75 102 l -72 101 l -68 99 l -64 97 l -60 95 l -59 94 l -55 92 l -52 90 l -48 89 l -44 87 l -40 85 l -39 83 l -35 81 l -31 80 l -28 78 l -24 76 l -20 75 l -19 73 l -15 71 l -11 69 l -7 67 l -4 66 l 0 64 l 1 62 l 5 61 l 8 59 l 12 57 l 16 55 l 19 54 l 21 52 l 25 50 l 28 48 l 32 46 l 36 45 l 40 43 l 41 41 l 45 40 l 49 38 l 52 36 l 56 34 l 60 33 l 61 31 l 65 29 l 69 27 l 103 27 l 162 29 l 222 31 l 240 33 l 242 34 l 248 36 l 250 40 l 252 43 l 253 48 l 255 52 l 257 55 l 259 59 l 261 62 l 262 66 l 264 71 l 266 75 l 268 78 l 270 81 l 272 85 l 274 90 l 275 94 l 277 99 l 277 127 l 276 213 l 277 209 l 279 208 l 281 205 l 283 204 l 284 202 l 286 200 l 288 199 l 290 197 l 292 195 l 293 193 l 295 192 l 297 190 l 299 188 l 301 186 l 303 184 l 304 183 l 307 179 l 308 178 l 310 176 l 312 174 l 314 172 l 315 171 l 317 169 l 319 167 l 321 165 l 323 164 l 325 162 l 327 160 l 328 158 l 330 157 l 332 155 l 334 153 l 336 150 l 337 148 l 339 146 l 341 144 l 343 143 l 345 141 l 347 139 l 348 138 l 350 136 l 352 134 l 354 132 l 356 131 l 359 129 l 369 127 l 378 125 l 389 123 l 398 122 l 407 120 l 416 118 l 425 116 l 434 115 l 443 113 l 452 111 l 462 110 l 471 108 l 480 106 l 489 104 l 498 102 l 509 101 l 518 99 l 527 97 l 536 95 l 546 94 l 555 92 l 564 90 l 573 89 l 582 89 l 584 92 l 586 94 l 589 95 l 589 102 l 588 110 l 586 118 l 584 125 l 582 134 l 581 141 l 578 150 l 577 158 l 575 165 l 573 174 l 571 181 l 569 190 l 568 197 l 566 205 l 564 214 l 562 221 l 560 230 l 558 237 l 557 246 l 555 253 l 553 261 l 551 269 l 549 277 l 548 286 l 546 293 l 544 302 l 542 309 l 540 317 l 538 325 l 536 333 l 535 342 l 533 349 l 531 358 l 529 365 l 527 373 l 526 380 l 524 389 l 522 396 l 520 405 l 518 414 l 516 421 l 515 429 l 513 436 l 511 445 l 509 452 l 507 461 l 506 470 l 504 476 l 502 485 l 500 492 l 498 497 l 496 503 l 494 506 l 493 512 l 491 515 l 489 518 l 487 524 l 486 527 l 484 532 l 481 536 l 480 539 l 478 545 l 476 548 l 474 553 l 474 561 l 476 576 l 478 594 l 480 611 l 481 627 l 484 645 l 486 660 l 487 677 l 489 695 l 491 711 l 493 728 l 494 744 l 496 761 l 498 779 l 498 789 l 496 794 l 494 800 l 493 807 l 491 812 l 489 817 l 487 823 l 486 828 l 484 833 l 481 840 l 480 845 l 478 850 l 476 856 l 474 861 l 473 868 l 471 873 l 469 879 l 467 884 l 465 889 l 464 896 l 462 901 l 460 906 l 458 912 l 456 917 l 454 924 l 452 929 l 451 935 l 449 940 l 447 945 l 445 950 l 443 957 l 441 962 l 440 968 l 438 973 l 436 978 l 434 985 l 432 990 l 431 996 l 429 1001 l 427 1006 l 425 1013 l 423 1018 l 421 1024 l 419 1029 l 418 1034 l 416 1041 l 414 1046 l 412 1052 l 410 1057 l 409 1062 l 407 1067 l 405 1074 l 403 1081 l 401 1083 l 399 1085 l 398 1086 l 396 1088 l 394 1090 l 390 1092 l 389 1094 l 387 1095 l 385 1097 l 383 1099 l 381 1101 l 379 1102 l 378 1104 l 376 1106 l 374 1107 l 372 1109 l 369 1111 l 367 1113 l 365 1115 l 363 1116 l 361 1118 l 359 1120 l 357 1122 l 356 1123 l 354 1125 l 352 1127 l 348 1128 l 347 1130 l 345 1132 l 343 1134 l 341 1136 l 339 1137 l 337 1139 l 336 1141 l 334 1142 l 332 1144 l 328 1146 l 327 1148 l 319 1148 z "},"S":{"ha":576,"x_min":0,"x_max":0,"o":"m -156 730 b -121 767 -155 732 -144 745 b -45 841 -99 789 -73 814 b 36 918 -16 868 11 894 b 84 964 62 943 78 958 b 143 1023 103 983 123 1003 b 204 1081 164 1043 184 1062 b 220 1096 209 1085 214 1090 b 237 1107 225 1103 231 1106 b 260 1111 245 1108 252 1109 b 283 1115 267 1112 275 1113 b 331 1123 294 1116 310 1119 b 376 1129 351 1128 367 1130 l 385 1055 l 468 1065 l 416 777 l 268 761 l 290 900 l 21 715 b 98 711 46 711 71 710 b 173 707 125 711 150 710 b 248 703 197 704 222 703 b 324 700 274 704 300 703 b 361 698 335 699 347 698 b 400 696 375 698 388 697 b 437 694 410 696 422 695 b 475 694 452 693 464 693 b 510 690 498 694 509 693 b 506 651 510 686 509 674 b 502 612 504 638 503 625 b 498 572 501 600 500 587 b 443 521 483 555 465 538 b 386 470 421 504 402 487 b 283 356 355 437 321 399 b 232 298 265 335 248 316 b 203 276 228 293 218 286 b 171 253 187 266 177 258 b 140 230 160 246 150 238 b 110 208 130 223 120 215 b 79 184 103 202 93 194 b 48 163 65 173 55 166 l -93 256 l -20 481 b 56 495 -17 484 8 488 b 136 504 103 502 130 505 b 147 486 138 503 142 498 b 161 469 152 475 157 469 b 186 486 161 469 169 474 b 241 524 203 497 221 510 b 295 563 260 538 279 551 b 321 583 312 575 321 581 l -81 580 b -121 659 -84 586 -97 612 b -156 730 -144 706 -156 730 z m 379 1149 l 371 1148 l 365 1147 l 358 1146 l 352 1144 l 344 1143 l 338 1142 l 332 1141 l 323 1140 l 317 1139 l 311 1138 l 303 1137 l 297 1135 l 291 1134 l 283 1133 l 277 1132 l 270 1131 l 264 1129 l 256 1128 l 250 1127 l 244 1126 l 236 1125 l 230 1124 l 223 1123 l 221 1121 l 219 1119 l 217 1118 l 214 1116 l 212 1112 l 210 1111 l 208 1109 l 205 1107 l 203 1103 l 201 1102 l 198 1100 l 196 1098 l 194 1095 l 192 1093 l 189 1091 l 187 1089 l 185 1087 l 182 1084 l 180 1082 l 178 1080 l 176 1079 l 173 1075 l 171 1073 l 169 1072 l 167 1070 l 164 1066 l 162 1064 l 160 1063 l 157 1061 l 155 1057 l 153 1056 l 151 1054 l 149 1052 l 146 1048 l 144 1047 l 141 1045 l 139 1043 l 137 1042 l 135 1038 l 132 1036 l 130 1035 l 128 1033 l 125 1029 l 123 1027 l 121 1025 l 119 1024 l 116 1020 l 114 1019 l 112 1017 l 110 1015 l 107 1011 l 105 1009 l 103 1008 l 101 1006 l 98 1002 l 96 1001 l 94 999 l 92 997 l 89 994 l 87 992 l 84 990 l 82 988 l 80 987 l 78 983 l 75 981 l 73 980 l 71 978 l 68 974 l 66 972 l 64 971 l 62 969 l 59 965 l 57 964 l 55 962 l 53 960 l 50 957 l 48 955 l 46 953 l 44 951 l 41 948 l 39 946 l 37 944 l 35 943 l 32 941 l 30 937 l 28 936 l 25 933 l 23 932 l 21 928 l 19 926 l 16 925 l 14 923 l 12 920 l 9 918 l 7 916 l 5 914 l 2 910 l 0 909 l -2 907 l -4 905 l -6 902 l -8 900 l -11 898 l -13 897 l -15 893 l -18 891 l -20 889 l -22 888 l -24 886 l -27 882 l -29 881 l -31 879 l -34 877 l -36 873 l -38 872 l -40 870 l -42 868 l -45 865 l -47 863 l -50 861 l -52 860 l -54 856 l -56 854 l -59 852 l -61 850 l -63 847 l -65 845 l -67 844 l -70 842 l -72 840 l -75 836 l -77 834 l -79 833 l -81 831 l -84 827 l -86 826 l -88 824 l -90 822 l -93 819 l -95 817 l -97 815 l -99 813 l -102 810 l -104 808 l -106 806 l -109 805 l -111 801 l -113 799 l -115 798 l -118 796 l -120 794 l -122 790 l -124 789 l -127 787 l -129 785 l -132 781 l -134 780 l -136 778 l -138 776 l -140 773 l -143 771 l -145 769 l -147 767 l -150 764 l -152 762 l -154 760 l -156 759 l -159 755 l -161 753 l -163 751 l -165 750 l -168 746 l -170 744 l -172 743 l -175 741 l -177 739 l -177 733 l -176 731 l -174 727 l -173 725 l -171 721 l -170 718 l -168 714 l -166 712 l -165 708 l -163 705 l -161 701 l -160 699 l -158 695 l -157 693 l -155 688 l -153 686 l -152 682 l -150 680 l -149 676 l -147 672 l -145 669 l -144 665 l -142 663 l -141 659 l -139 656 l -138 652 l -136 650 l -135 646 l -133 644 l -131 640 l -130 637 l -128 633 l -126 631 l -125 627 l -123 625 l -122 621 l -120 618 l -118 614 l -117 612 l -115 608 l -114 605 l -112 601 l -110 599 l -109 595 l -107 591 l -106 588 l -104 584 l -102 582 l -101 578 l -99 575 l -98 571 l -96 569 l -95 565 l -93 563 l -89 560 l -85 558 l -84 556 l -80 553 l -78 551 l -75 549 l -73 546 l -69 544 l -67 542 l -66 539 l -62 537 l -60 535 l -57 532 l -55 530 l -51 528 l -50 526 l -46 523 l -44 521 l -40 518 l -39 516 l -35 513 l -33 511 l -32 509 l -28 507 l -26 505 l -22 504 l -23 500 l -29 501 l -33 499 l -36 492 l -39 482 l -42 472 l -46 461 l -49 451 l -52 442 l -55 432 l -59 420 l -62 411 l -65 401 l -69 390 l -72 380 l -75 371 l -78 361 l -82 350 l -85 340 l -88 330 l -92 319 l -95 309 l -98 299 l -101 288 l -105 278 l -108 269 l -111 259 l -113 247 l -109 245 l -105 242 l -101 240 l -98 237 l -94 235 l -90 233 l -87 230 l -83 228 l -79 225 l -76 223 l -72 220 l -68 218 l -64 215 l -61 213 l -57 211 l -54 208 l -50 205 l -46 203 l -42 200 l -37 198 l -33 195 l -30 193 l -26 191 l -22 188 l -18 185 l -15 183 l -11 180 l -7 178 l -3 176 l 0 173 l 4 171 l 7 168 l 11 166 l 15 163 l 18 161 l 22 158 l 26 156 l 30 154 l 35 151 l 39 148 l 42 146 l 46 143 l 50 141 l 54 138 l 59 136 l 63 133 l 66 131 l 72 128 l 76 126 l 80 123 l 85 120 l 89 118 l 93 116 l 98 113 l 102 111 l 106 108 l 111 105 l 115 103 l 119 100 l 124 98 l 128 95 l 132 93 l 138 90 l 141 87 l 145 85 l 151 82 l 154 80 l 158 77 l 164 75 l 167 72 l 171 70 l 177 67 l 180 64 l 184 62 l 190 59 l 193 57 l 197 55 l 203 52 l 207 49 l 210 47 l 216 44 l 219 42 l 223 39 l 229 36 l 233 34 l 236 32 l 242 29 l 250 28 l 256 29 l 258 31 l 260 33 l 262 34 l 265 36 l 267 38 l 269 39 l 271 41 l 274 43 l 276 44 l 278 46 l 280 48 l 282 50 l 285 52 l 287 53 l 289 55 l 291 57 l 294 58 l 296 60 l 298 62 l 300 63 l 304 65 l 307 67 l 309 68 l 311 70 l 313 72 l 316 74 l 318 75 l 320 77 l 322 79 l 325 80 l 327 82 l 329 84 l 331 85 l 333 87 l 335 89 l 338 91 l 340 93 l 342 94 l 344 96 l 347 98 l 349 99 l 353 101 l 355 102 l 357 104 l 359 106 l 362 107 l 364 110 l 366 111 l 369 113 l 371 115 l 373 116 l 375 118 l 377 120 l 379 121 l 382 123 l 384 125 l 386 127 l 389 128 l 391 130 l 393 132 l 395 134 l 397 135 l 401 137 l 404 138 l 406 142 l 408 144 l 411 148 l 413 149 l 415 151 l 418 155 l 420 156 l 422 160 l 425 162 l 427 165 l 429 167 l 432 171 l 434 173 l 436 176 l 439 178 l 441 180 l 443 183 l 446 185 l 448 189 l 450 191 l 453 194 l 455 196 l 457 200 l 460 201 l 462 205 l 464 207 l 467 209 l 469 212 l 471 214 l 474 218 l 476 219 l 478 223 l 480 225 l 483 229 l 485 230 l 488 234 l 490 236 l 492 237 l 495 241 l 497 243 l 499 247 l 502 248 l 504 252 l 506 254 l 509 257 l 511 259 l 513 263 l 515 264 l 518 266 l 520 270 l 523 271 l 525 273 l 527 277 l 529 279 l 532 280 l 534 282 l 536 284 l 538 286 l 541 289 l 543 291 l 545 293 l 547 294 l 550 296 l 552 300 l 554 301 l 556 303 l 559 305 l 561 307 l 563 308 l 566 312 l 568 314 l 570 315 l 572 317 l 574 319 l 577 320 l 579 324 l 582 326 l 584 328 l 586 330 l 588 331 l 591 335 l 593 336 l 595 338 l 597 340 l 599 342 l 602 343 l 604 347 l 606 349 l 608 351 l 611 352 l 613 354 l 615 356 l 617 359 l 620 361 l 623 367 l 627 402 l 633 469 l 633 479 l 631 482 l 629 486 l 628 490 l 626 492 l 625 496 l 623 499 l 622 503 l 620 507 l 618 509 l 617 513 l 615 516 l 614 520 l 612 524 l 611 526 l 609 530 l 607 533 l 606 537 l 605 541 l 603 543 l 601 548 l 600 550 l 598 554 l 596 558 l 595 560 l 593 565 l 592 567 l 590 571 l 589 575 l 587 577 l 585 582 l 584 584 l 582 588 l 581 592 l 579 594 l 578 598 l 576 601 l 574 605 l 573 609 l 576 633 l 582 668 l 588 701 l 595 734 l 601 767 l 602 773 l 601 779 l 599 784 l 597 788 l 596 792 l 594 796 l 593 800 l 591 804 l 590 809 l 588 811 l 587 815 l 585 819 l 584 824 l 583 828 l 581 832 l 579 836 l 578 840 l 576 844 l 575 849 l 574 853 l 572 855 l 570 859 l 569 863 l 568 867 l 566 872 l 565 876 l 563 880 l 562 884 l 560 888 l 558 892 l 557 895 l 555 899 l 554 903 l 552 907 l 551 911 l 549 916 l 548 920 l 547 924 l 545 928 l 544 932 l 542 937 l 541 939 l 539 943 l 537 947 l 536 951 l 534 956 l 533 960 l 532 964 l 530 968 l 529 972 l 527 977 l 526 979 l 524 983 l 523 987 l 521 991 l 519 996 l 518 1000 l 516 1004 l 515 1008 l 514 1012 l 512 1016 l 511 1021 l 509 1023 l 508 1027 l 506 1031 l 505 1036 l 503 1040 l 502 1044 l 500 1048 l 498 1052 l 497 1056 l 496 1060 l 494 1065 l 492 1067 l 491 1071 l 489 1075 l 490 1079 l 491 1085 l 485 1086 l 477 1085 l 471 1084 l 463 1083 l 454 1082 l 446 1081 l 438 1080 l 430 1079 l 424 1078 l 418 1076 l 418 1080 l 417 1084 l 415 1087 l 413 1091 l 412 1095 l 410 1097 l 409 1101 l 407 1105 l 406 1110 l 404 1112 l 402 1116 l 401 1120 l 399 1125 l 398 1127 l 396 1131 l 395 1135 l 393 1139 l 392 1142 l 391 1149 l 385 1151 z "},"T":{"ha":644,"x_min":0,"x_max":0,"o":"m 613 1040 l 535 867 l 278 867 b 321 753 282 861 296 823 b 403 528 347 684 374 609 b 482 309 432 448 458 375 l 517 210 b 493 191 517 208 509 202 b 466 171 478 179 468 173 b 437 150 463 169 454 162 l 413 132 b 372 151 411 132 397 138 b 289 194 347 164 319 178 b 202 241 258 211 229 226 b 151 268 174 255 157 265 l 227 401 l 172 864 l -122 839 l -103 1138 z m -119 1131 l -121 1104 l -123 1078 l -125 1051 l -126 1025 l -128 998 l -130 970 l -132 943 l -134 917 l -135 890 l -137 864 l -139 836 l -139 821 l -132 820 l -130 818 l -128 814 l -126 812 l -125 811 l -123 809 l -121 807 l -119 805 l -118 804 l -116 802 l -114 800 l -112 798 l -111 797 l -109 795 l -107 793 l -105 791 l -103 788 l -102 786 l -100 784 l -98 782 l -96 781 l -95 779 l -93 777 l -91 775 l -90 773 l -87 772 l -86 770 l -84 768 l -82 766 l -80 765 l -79 761 l -77 759 l -75 758 l -73 756 l -72 754 l -70 752 l -68 750 l -66 749 l -65 747 l -63 745 l -61 744 l -59 742 l -58 740 l -56 738 l -54 734 l -52 733 l -51 731 l -49 729 l -47 727 l -45 726 l -43 724 l -42 722 l -40 721 l -38 719 l -36 717 l -35 715 l -33 713 l -31 710 l -29 708 l -27 706 l -26 705 l -24 703 l -22 701 l -20 699 l -19 697 l -17 696 l -15 694 l -13 692 l -12 690 l -10 689 l -8 687 l -6 684 l -4 682 l -3 680 l -1 678 l 1 676 l 2 674 l 4 673 l 6 671 l 8 669 l 9 668 l 11 666 l 13 664 l 15 662 l 16 661 l 18 657 l 20 655 l 22 653 l 23 652 l 25 650 l 27 648 l 29 646 l 31 645 l 32 643 l 34 641 l 36 639 l 38 637 l 39 636 l 41 634 l 43 630 l 45 629 l 46 627 l 48 625 l 50 623 l 52 622 l 54 620 l 55 618 l 57 616 l 59 614 l 61 613 l 62 611 l 64 609 l 66 606 l 68 604 l 70 602 l 71 601 l 73 598 l 75 597 l 78 595 l 94 595 l 114 597 l 135 598 l 154 601 l 176 602 l 188 604 l 188 590 l 190 576 l 192 560 l 193 546 l 195 531 l 197 517 l 199 503 l 200 489 l 202 473 l 204 459 l 206 445 l 208 431 l 209 416 l 209 402 l 208 399 l 206 397 l 204 394 l 202 390 l 200 387 l 199 385 l 197 381 l 195 378 l 193 374 l 192 372 l 190 369 l 188 365 l 186 362 l 184 360 l 183 356 l 181 353 l 179 349 l 177 348 l 176 344 l 174 340 l 172 337 l 170 335 l 169 332 l 167 328 l 165 325 l 163 323 l 161 319 l 160 316 l 158 312 l 156 309 l 154 307 l 153 303 l 151 300 l 149 296 l 148 295 l 145 291 l 144 288 l 142 284 l 140 282 l 138 279 l 137 275 l 135 272 l 133 270 l 131 266 l 131 261 l 133 259 l 137 257 l 138 256 l 142 254 l 144 252 l 145 251 l 149 249 l 151 247 l 154 245 l 156 243 l 158 241 l 161 240 l 163 238 l 165 236 l 169 234 l 170 233 l 174 231 l 176 229 l 177 228 l 181 225 l 183 224 l 184 222 l 188 220 l 190 218 l 193 217 l 195 215 l 197 213 l 200 211 l 202 210 l 206 208 l 208 206 l 209 204 l 213 203 l 215 201 l 216 199 l 220 197 l 222 196 l 225 194 l 227 192 l 229 190 l 232 189 l 234 187 l 236 185 l 239 183 l 241 181 l 244 180 l 247 178 l 248 176 l 252 174 l 254 173 l 255 171 l 259 169 l 260 167 l 264 165 l 266 164 l 268 162 l 271 160 l 273 158 l 275 157 l 278 155 l 280 153 l 283 151 l 285 150 l 287 148 l 291 146 l 292 144 l 296 142 l 299 141 l 301 139 l 305 137 l 308 135 l 312 134 l 315 132 l 319 130 l 322 128 l 326 127 l 330 125 l 333 123 l 335 121 l 338 120 l 342 118 l 346 116 l 349 114 l 353 113 l 356 111 l 359 109 l 363 107 l 365 105 l 369 104 l 372 102 l 376 100 l 379 98 l 382 97 l 386 95 l 390 93 l 393 91 l 397 90 l 398 87 l 402 86 l 406 84 l 409 82 l 413 81 l 416 79 l 420 77 l 423 75 l 427 74 l 429 72 l 432 70 l 436 68 l 439 66 l 443 65 l 446 63 l 450 61 l 453 59 l 457 58 l 458 56 l 462 54 l 466 52 l 469 51 l 473 49 l 476 47 l 480 45 l 484 43 l 487 42 l 491 40 l 492 38 l 496 36 l 499 35 l 503 33 l 506 31 l 510 29 l 520 29 l 523 31 l 526 33 l 528 35 l 531 36 l 533 38 l 535 40 l 538 42 l 540 43 l 542 45 l 545 47 l 547 49 l 549 51 l 552 52 l 554 54 l 558 56 l 559 58 l 561 59 l 565 61 l 567 63 l 568 65 l 572 66 l 574 68 l 575 70 l 579 72 l 581 74 l 583 75 l 586 77 l 588 79 l 591 81 l 593 82 l 595 84 l 598 86 l 600 87 l 602 90 l 605 91 l 607 93 l 609 95 l 612 97 l 614 104 l 614 111 l 612 116 l 611 121 l 609 127 l 607 130 l 605 135 l 604 141 l 602 146 l 600 150 l 598 155 l 597 160 l 595 165 l 593 169 l 591 174 l 590 180 l 588 185 l 586 189 l 584 194 l 583 199 l 581 204 l 579 208 l 577 213 l 575 218 l 574 224 l 572 228 l 570 233 l 568 238 l 567 243 l 565 247 l 563 252 l 561 257 l 559 263 l 558 266 l 556 272 l 554 277 l 552 282 l 551 286 l 549 291 l 547 296 l 545 302 l 544 305 l 542 310 l 540 316 l 538 321 l 536 325 l 535 330 l 533 335 l 531 340 l 529 344 l 528 349 l 526 355 l 524 360 l 523 363 l 520 369 l 519 374 l 517 379 l 515 383 l 513 388 l 512 394 l 510 399 l 508 402 l 506 408 l 505 413 l 503 418 l 501 422 l 499 427 l 497 432 l 496 438 l 494 441 l 492 447 l 491 452 l 489 457 l 487 461 l 485 466 l 484 471 l 481 477 l 480 480 l 478 486 l 476 491 l 475 496 l 473 499 l 471 505 l 469 510 l 468 514 l 466 519 l 464 525 l 462 530 l 460 533 l 458 538 l 457 544 l 455 549 l 453 553 l 452 558 l 450 563 l 448 569 l 446 572 l 445 577 l 443 583 l 441 588 l 439 591 l 437 597 l 436 602 l 434 608 l 432 611 l 430 616 l 429 620 l 620 620 l 622 622 l 625 623 l 627 625 l 628 629 l 630 634 l 632 637 l 634 641 l 635 645 l 637 650 l 639 653 l 641 657 l 643 661 l 645 664 l 646 669 l 648 673 l 650 676 l 651 680 l 653 684 l 655 689 l 657 692 l 659 696 l 660 699 l 662 705 l 664 708 l 666 712 l 667 715 l 669 719 l 671 724 l 673 727 l 674 731 l 676 734 l 678 740 l 680 744 l 682 747 l 683 750 l 685 754 l 687 759 l 688 763 l 690 766 l 692 770 l 692 781 l 690 789 l 688 797 l 687 804 l 685 812 l 683 820 l 682 828 l 680 836 l 678 843 l 676 851 l 674 858 l 673 867 l 671 874 l 669 881 l 667 890 l 666 897 l 664 906 l 662 913 l 660 920 l 659 929 l 657 936 l 655 945 l 653 952 l 651 959 l 650 968 l 648 975 l 646 984 l 645 991 l 643 1000 l 641 1007 l 639 1014 l 637 1023 l 635 1030 l 634 1039 l 634 1047 l 634 1053 l 622 1055 l 607 1056 l 595 1058 l 583 1060 l 570 1062 l 556 1063 l 544 1065 l 531 1067 l 519 1069 l 505 1070 l 492 1072 l 480 1074 l 468 1076 l 453 1078 l 441 1079 l 429 1081 l 416 1083 l 402 1085 l 390 1086 l 377 1088 l 365 1090 l 353 1092 l 338 1094 l 326 1095 l 314 1097 l 301 1099 l 287 1101 l 275 1102 l 262 1104 l 250 1106 l 236 1108 l 223 1109 l 211 1111 l 199 1113 l 184 1115 l 172 1117 l 160 1118 l 148 1120 l 133 1122 l 121 1124 l 109 1125 l 96 1127 l 82 1129 l 70 1131 l 57 1132 l 45 1134 l 31 1136 l 18 1138 l 6 1139 l -6 1141 l -20 1143 l -33 1145 l -45 1146 l -58 1148 l -72 1150 l -84 1152 l -96 1154 l -109 1155 l -118 1155 z "},"U":{"ha":543,"x_min":0,"x_max":0,"o":"m -119 261 b -116 330 -119 284 -118 307 b -112 398 -114 353 -112 376 b -104 462 -110 422 -108 444 b -90 521 -100 481 -95 500 b -62 638 -80 559 -71 598 b -35 755 -54 678 -44 717 b -7 872 -25 794 -16 833 b 20 989 1 911 10 950 b 27 1019 23 1000 25 1009 b 34 1049 29 1028 31 1038 b 44 1074 38 1066 41 1074 b 67 1087 46 1075 54 1079 b 158 1139 92 1102 122 1120 b 172 1125 162 1136 167 1131 b 187 1109 177 1119 182 1114 b 193 1088 192 1104 194 1097 b 190 1063 192 1079 191 1071 b 183 1012 187 1049 185 1032 b 179 961 181 991 180 974 b 170 860 178 929 175 896 b 158 759 164 824 160 791 b 149 656 156 725 153 691 b 137 554 144 621 141 587 b 131 503 135 538 133 521 b 127 452 129 484 128 468 b 122 402 127 435 125 419 b 118 350 119 385 118 368 l 233 375 l 245 969 l 405 922 l 414 803 l 382 773 b 391 710 382 762 385 741 b 405 645 397 679 402 657 b 416 579 409 623 413 601 b 428 515 420 558 424 536 b 451 386 437 470 445 427 b 457 353 453 375 455 364 b 463 321 459 342 461 332 b 456 294 464 310 462 301 b 438 274 449 288 443 281 b 421 253 432 267 427 259 b 404 231 416 246 410 239 b 387 210 395 219 390 212 b 358 202 384 208 374 206 b 294 189 336 198 315 193 b 231 176 273 185 252 180 b 104 151 189 168 147 160 b -21 124 62 143 20 134 z m 156 1158 l 152 1156 l 151 1154 l 146 1152 l 143 1151 l 139 1148 l 137 1146 l 133 1145 l 129 1143 l 125 1141 l 123 1139 l 120 1137 l 116 1135 l 112 1133 l 110 1131 l 106 1129 l 102 1127 l 98 1125 l 96 1123 l 93 1121 l 89 1119 l 85 1118 l 83 1116 l 79 1114 l 75 1112 l 72 1110 l 70 1108 l 65 1106 l 62 1104 l 58 1102 l 56 1100 l 52 1098 l 48 1096 l 44 1095 l 42 1093 l 38 1090 l 35 1088 l 31 1087 l 29 1085 l 25 1083 l 23 1079 l 21 1071 l 19 1063 l 17 1054 l 15 1046 l 14 1039 l 12 1031 l 9 1021 l 8 1013 l 6 1006 l 4 998 l 2 988 l 0 981 l -2 973 l -3 965 l -5 956 l -7 948 l -9 940 l -11 932 l -13 923 l -15 915 l -17 907 l -19 900 l -21 890 l -23 882 l -25 874 l -27 867 l -29 857 l -31 849 l -33 842 l -34 834 l -36 824 l -38 817 l -40 809 l -42 801 l -44 791 l -46 784 l -48 776 l -50 768 l -52 759 l -54 751 l -56 743 l -58 735 l -60 726 l -61 718 l -63 710 l -65 703 l -67 693 l -69 685 l -71 678 l -73 670 l -75 661 l -77 653 l -79 645 l -81 637 l -83 628 l -85 620 l -86 612 l -89 605 l -90 595 l -92 587 l -94 579 l -96 572 l -98 562 l -100 554 l -102 547 l -104 539 l -106 529 l -108 522 l -110 514 l -112 506 l -114 496 l -116 489 l -117 481 l -119 473 l -121 464 l -123 456 l -125 448 l -127 440 l -129 410 l -131 375 l -133 342 l -135 307 l -137 275 l -137 255 l -135 253 l -133 250 l -131 248 l -129 244 l -127 242 l -125 240 l -123 236 l -121 234 l -119 230 l -117 228 l -116 227 l -114 222 l -112 220 l -110 219 l -108 215 l -106 213 l -104 209 l -102 207 l -100 205 l -98 201 l -96 199 l -94 197 l -92 194 l -90 192 l -89 188 l -86 186 l -85 184 l -83 180 l -81 178 l -79 174 l -77 172 l -75 171 l -73 166 l -71 164 l -69 163 l -67 159 l -65 157 l -63 153 l -61 151 l -60 149 l -58 145 l -56 143 l -54 141 l -52 138 l -50 136 l -48 132 l -46 130 l -44 128 l -42 124 l -40 122 l -38 118 l -36 116 l -34 115 l -33 111 l -31 109 l -29 107 l -23 105 l -17 103 l -11 101 l -5 99 l -2 97 l 4 95 l 9 93 l 15 91 l 19 89 l 25 87 l 31 85 l 37 84 l 40 82 l 46 80 l 52 78 l 58 76 l 62 74 l 67 72 l 73 70 l 79 68 l 83 66 l 89 64 l 95 62 l 100 60 l 104 58 l 110 57 l 116 55 l 121 53 l 125 51 l 131 49 l 137 47 l 143 45 l 146 43 l 152 41 l 158 39 l 164 37 l 168 35 l 174 33 l 179 32 l 185 30 l 197 30 l 207 32 l 214 33 l 224 35 l 233 37 l 243 39 l 253 41 l 262 43 l 270 45 l 280 47 l 289 49 l 299 51 l 309 53 l 318 55 l 328 57 l 336 58 l 345 60 l 355 62 l 365 64 l 374 66 l 384 68 l 392 70 l 401 72 l 411 74 l 420 76 l 430 78 l 440 80 l 449 82 l 457 84 l 467 85 l 476 87 l 486 89 l 496 91 l 506 93 l 513 95 l 523 97 l 525 99 l 529 101 l 530 103 l 532 105 l 534 107 l 536 111 l 538 113 l 540 115 l 542 118 l 544 120 l 546 122 l 548 124 l 550 128 l 552 130 l 554 132 l 555 134 l 557 138 l 559 140 l 562 141 l 563 143 l 565 147 l 567 149 l 569 151 l 571 155 l 573 157 l 575 159 l 577 161 l 579 164 l 581 166 l 583 169 l 585 171 l 586 174 l 588 176 l 590 178 l 592 180 l 594 184 l 596 190 l 596 197 l 594 209 l 592 219 l 590 230 l 588 240 l 586 251 l 585 261 l 583 273 l 581 284 l 579 294 l 577 306 l 575 315 l 573 327 l 571 336 l 569 348 l 567 357 l 565 369 l 563 381 l 562 390 l 559 402 l 557 412 l 555 423 l 554 433 l 552 444 l 550 454 l 548 466 l 546 477 l 544 487 l 542 498 l 540 508 l 538 519 l 536 529 l 534 541 l 532 550 l 532 558 l 534 560 l 536 562 l 538 564 l 540 566 l 542 568 l 546 570 l 548 572 l 550 574 l 552 575 l 554 579 l 555 583 l 555 591 l 554 618 l 552 647 l 550 674 l 548 691 l 546 695 l 544 699 l 542 703 l 540 707 l 538 710 l 536 714 l 534 718 l 532 722 l 530 726 l 529 728 l 527 732 l 525 735 l 523 740 l 521 743 l 519 747 l 517 751 l 515 755 l 513 759 l 511 763 l 509 764 l 507 768 l 506 772 l 504 776 l 502 780 l 499 784 l 498 788 l 496 791 l 494 795 l 492 799 l 490 801 l 488 805 l 486 809 l 484 813 l 482 817 l 480 821 l 478 824 l 476 828 l 475 832 l 473 836 l 471 838 l 469 842 l 467 846 l 465 849 l 463 853 l 461 857 l 459 861 l 457 865 l 455 869 l 453 872 l 451 874 l 449 878 l 448 882 l 446 886 l 444 890 l 442 894 l 440 898 l 438 902 l 436 905 l 434 909 l 432 913 l 430 915 l 428 919 l 426 923 l 424 926 l 422 930 l 420 934 l 419 936 l 413 938 l 405 940 l 399 942 l 392 944 l 386 946 l 380 948 l 372 950 l 367 952 l 361 954 l 353 956 l 347 957 l 341 959 l 334 961 l 328 963 l 320 965 l 314 967 l 309 969 l 301 971 l 295 973 l 291 973 l 291 977 l 289 979 l 287 983 l 286 986 l 283 988 l 282 992 l 280 994 l 278 998 l 276 1002 l 274 1004 l 272 1008 l 270 1011 l 268 1013 l 266 1017 l 264 1021 l 262 1023 l 260 1027 l 258 1029 l 257 1033 l 255 1037 l 253 1039 l 251 1042 l 249 1046 l 247 1048 l 245 1052 l 243 1056 l 241 1058 l 239 1062 l 237 1063 l 235 1067 l 233 1071 l 231 1073 l 230 1077 l 228 1081 l 226 1083 l 224 1087 l 222 1088 l 220 1093 l 218 1096 l 216 1098 l 214 1102 l 212 1106 l 210 1108 l 208 1110 l 207 1114 l 204 1116 l 202 1118 l 200 1119 l 199 1121 l 197 1123 l 195 1125 l 193 1127 l 191 1129 l 189 1133 l 187 1135 l 185 1137 l 183 1139 l 181 1141 l 179 1143 l 177 1145 l 176 1146 l 174 1148 l 172 1152 l 170 1154 l 168 1156 l 166 1158 l 164 1160 l 160 1160 z "},"V":{"ha":712,"x_min":0,"x_max":0,"o":"m -163 846 b -163 930 -163 863 -163 890 b -159 1007 -163 969 -161 995 b -140 1071 -154 1029 -147 1050 b -121 1135 -132 1092 -125 1114 b -72 1119 -106 1132 -90 1126 b -23 1101 -54 1112 -38 1105 b 74 1066 4 1091 37 1080 b 87 1046 81 1064 85 1057 b 94 1020 90 1036 92 1027 b 101 994 97 1011 99 1002 b 109 969 103 986 106 977 b 124 918 114 952 119 935 b 138 866 129 900 134 883 b 167 764 148 832 158 798 b 198 662 177 729 187 696 b 228 554 202 648 212 612 b 257 459 244 496 254 464 l 456 1023 b 489 1013 462 1020 473 1016 b 526 1004 505 1009 517 1006 b 560 995 538 1001 549 998 b 594 986 571 992 582 989 b 629 977 614 981 625 978 b 655 965 648 972 656 968 b 643 934 652 955 648 945 b 630 903 638 924 634 913 b 579 780 613 862 596 821 b 529 658 561 740 545 699 b 478 535 512 616 496 575 b 428 412 461 494 444 453 b 402 350 419 391 411 371 b 377 290 394 330 385 310 b 350 225 373 280 364 258 b 328 166 336 192 328 173 l 322 166 l 187 175 b 169 219 185 183 179 198 b 148 265 159 240 152 256 b 108 352 133 294 120 323 b 67 440 96 381 82 411 b 29 528 53 470 40 499 b -10 616 18 556 5 586 b -51 704 -24 646 -38 675 b -70 747 -60 725 -66 739 b -99 783 -73 755 -83 767 b -133 816 -106 790 -117 801 b -163 846 -150 831 -159 841 z m -133 1149 l -135 1144 l -137 1137 l -138 1132 l -140 1126 l -142 1119 l -144 1114 l -145 1107 l -147 1102 l -149 1097 l -151 1089 l -153 1084 l -154 1079 l -156 1072 l -158 1066 l -159 1061 l -161 1054 l -163 1049 l -165 1044 l -166 1037 l -168 1031 l -170 1026 l -172 1019 l -174 1014 l -175 1001 l -177 936 l -179 873 l -179 839 l -177 838 l -175 836 l -174 834 l -172 832 l -170 830 l -168 829 l -166 827 l -165 824 l -163 822 l -161 820 l -159 818 l -158 817 l -156 815 l -154 813 l -153 811 l -151 809 l -149 808 l -147 806 l -145 804 l -144 802 l -142 801 l -140 799 l -138 795 l -137 793 l -135 792 l -133 790 l -131 788 l -130 787 l -128 785 l -126 783 l -124 781 l -122 780 l -121 778 l -119 776 l -117 774 l -116 772 l -114 769 l -112 767 l -110 765 l -109 764 l -106 762 l -105 760 l -103 758 l -101 756 l -100 755 l -98 753 l -96 751 l -94 749 l -93 748 l -91 746 l -89 744 l -87 741 l -85 739 l -84 737 l -82 735 l -80 732 l -79 728 l -77 723 l -75 720 l -73 716 l -72 712 l -70 709 l -68 704 l -66 700 l -64 697 l -63 693 l -61 688 l -59 684 l -57 681 l -56 677 l -54 674 l -52 669 l -51 665 l -48 662 l -47 658 l -45 654 l -43 649 l -41 646 l -40 642 l -38 638 l -36 633 l -35 630 l -33 626 l -31 623 l -29 619 l -27 614 l -26 610 l -24 607 l -22 604 l -20 598 l -19 594 l -17 591 l -15 588 l -14 584 l -12 579 l -10 575 l -8 572 l -6 568 l -4 565 l -3 559 l -1 556 l 0 552 l 2 549 l 4 544 l 6 540 l 7 536 l 9 533 l 11 529 l 13 524 l 15 521 l 16 517 l 18 514 l 20 508 l 21 505 l 23 501 l 25 498 l 27 494 l 28 489 l 30 486 l 32 482 l 34 478 l 36 475 l 37 470 l 39 466 l 41 463 l 43 459 l 44 454 l 46 450 l 48 447 l 50 443 l 52 439 l 53 434 l 55 431 l 57 427 l 58 424 l 60 418 l 62 415 l 64 411 l 65 408 l 67 405 l 69 399 l 71 396 l 73 392 l 74 389 l 76 385 l 78 380 l 80 376 l 81 373 l 83 369 l 85 364 l 87 360 l 89 357 l 90 353 l 92 350 l 94 345 l 95 341 l 97 337 l 99 334 l 101 330 l 102 325 l 104 321 l 106 318 l 108 315 l 110 309 l 111 306 l 113 302 l 115 299 l 117 295 l 118 290 l 120 287 l 122 283 l 124 279 l 125 274 l 127 271 l 129 267 l 131 263 l 132 260 l 134 255 l 136 251 l 138 248 l 139 244 l 141 240 l 143 235 l 145 232 l 146 228 l 148 225 l 150 219 l 152 216 l 154 212 l 155 209 l 157 205 l 159 200 l 160 197 l 162 193 l 164 190 l 166 184 l 168 181 l 169 177 l 171 174 l 173 170 l 175 165 l 176 161 l 180 160 l 183 158 l 185 156 l 187 154 l 191 153 l 192 151 l 196 149 l 197 147 l 199 145 l 203 144 l 204 142 l 208 140 l 210 138 l 212 137 l 215 135 l 217 133 l 220 131 l 222 130 l 224 128 l 228 126 l 229 124 l 231 122 l 234 121 l 236 119 l 240 117 l 241 116 l 243 114 l 247 112 l 249 110 l 252 109 l 254 107 l 256 105 l 259 103 l 261 101 l 264 100 l 266 98 l 268 96 l 272 94 l 273 93 l 277 91 l 278 89 l 280 87 l 284 85 l 286 84 l 289 82 l 291 80 l 293 78 l 296 77 l 298 75 l 301 73 l 303 72 l 305 70 l 309 68 l 310 66 l 314 64 l 315 63 l 317 61 l 321 59 l 322 57 l 324 56 l 328 54 l 330 52 l 333 50 l 335 48 l 337 47 l 340 45 l 342 43 l 346 41 l 347 40 l 356 38 l 382 36 l 407 35 l 432 33 l 456 31 l 470 31 l 472 33 l 477 35 l 479 36 l 481 41 l 483 45 l 485 50 l 486 54 l 488 59 l 490 63 l 492 68 l 493 72 l 495 75 l 497 80 l 498 84 l 500 89 l 502 93 l 504 98 l 506 101 l 507 105 l 509 110 l 511 114 l 513 119 l 514 122 l 516 128 l 518 131 l 520 135 l 522 140 l 523 144 l 525 149 l 527 153 l 529 158 l 530 161 l 532 165 l 534 170 l 535 174 l 537 179 l 539 182 l 541 188 l 543 191 l 544 195 l 546 200 l 548 203 l 550 209 l 551 212 l 553 218 l 555 221 l 557 225 l 558 230 l 560 234 l 562 239 l 564 242 l 565 248 l 567 251 l 569 255 l 571 260 l 572 263 l 574 269 l 576 272 l 578 277 l 579 281 l 581 284 l 583 290 l 585 293 l 587 299 l 588 302 l 590 308 l 592 311 l 594 315 l 595 320 l 597 323 l 599 329 l 601 332 l 602 337 l 604 341 l 606 345 l 608 350 l 609 353 l 611 359 l 613 362 l 615 367 l 616 371 l 618 374 l 620 380 l 622 383 l 624 389 l 625 392 l 627 397 l 629 401 l 631 405 l 632 410 l 634 413 l 636 418 l 637 422 l 639 427 l 641 431 l 643 434 l 645 439 l 646 443 l 648 449 l 650 452 l 652 457 l 653 461 l 655 466 l 657 470 l 659 473 l 661 478 l 662 482 l 664 487 l 666 491 l 668 496 l 669 499 l 671 503 l 673 508 l 674 512 l 676 517 l 678 521 l 680 526 l 682 529 l 683 533 l 685 538 l 687 542 l 688 547 l 690 551 l 692 556 l 694 559 l 695 563 l 697 568 l 699 572 l 701 577 l 703 581 l 704 586 l 706 589 l 708 593 l 710 598 l 711 602 l 713 607 l 715 610 l 717 616 l 719 619 l 720 623 l 722 628 l 724 632 l 726 637 l 727 641 l 729 646 l 731 649 l 732 653 l 734 658 l 736 662 l 738 667 l 740 670 l 741 676 l 743 679 l 745 683 l 747 688 l 747 698 l 745 705 l 743 712 l 741 718 l 740 725 l 738 732 l 736 739 l 734 746 l 732 753 l 731 760 l 729 767 l 727 774 l 726 781 l 724 788 l 722 793 l 720 801 l 719 808 l 717 815 l 715 822 l 713 829 l 711 836 l 710 843 l 708 850 l 706 857 l 704 864 l 703 869 l 701 876 l 699 883 l 697 890 l 695 898 l 694 904 l 692 911 l 690 919 l 688 926 l 687 932 l 685 940 l 683 945 l 682 952 l 680 959 l 678 966 l 676 973 l 676 975 l 676 980 l 674 982 l 668 984 l 661 986 l 653 987 l 646 989 l 641 991 l 634 992 l 627 994 l 620 996 l 613 998 l 606 1000 l 599 1001 l 592 1003 l 587 1005 l 579 1007 l 572 1008 l 565 1010 l 558 1012 l 551 1014 l 544 1016 l 539 1017 l 532 1019 l 525 1021 l 518 1022 l 511 1024 l 504 1026 l 497 1028 l 490 1029 l 485 1031 l 477 1033 l 470 1035 l 463 1037 l 456 1038 l 449 1040 l 446 1040 l 444 1038 l 442 1033 l 440 1028 l 439 1022 l 437 1017 l 435 1012 l 433 1008 l 432 1003 l 430 998 l 428 992 l 426 987 l 425 982 l 423 977 l 421 973 l 419 968 l 418 963 l 416 957 l 414 952 l 412 947 l 411 943 l 409 938 l 407 932 l 405 927 l 404 922 l 402 917 l 400 913 l 398 908 l 396 903 l 395 898 l 393 892 l 391 887 l 390 883 l 388 878 l 386 873 l 384 867 l 382 862 l 380 857 l 379 853 l 377 848 l 375 843 l 374 838 l 372 832 l 370 827 l 368 824 l 367 818 l 365 813 l 363 808 l 361 802 l 359 797 l 358 793 l 356 788 l 354 783 l 353 778 l 351 772 l 349 767 l 347 764 l 346 758 l 343 753 l 342 748 l 340 743 l 338 737 l 337 734 l 335 728 l 333 723 l 331 718 l 330 712 l 328 707 l 326 704 l 324 698 l 322 693 l 321 688 l 319 683 l 317 677 l 315 674 l 314 669 l 312 674 l 310 679 l 309 686 l 307 691 l 305 698 l 303 704 l 301 709 l 300 716 l 298 721 l 296 728 l 294 734 l 293 741 l 291 746 l 289 753 l 287 758 l 286 765 l 284 770 l 282 774 l 280 776 l 278 780 l 277 783 l 275 785 l 273 788 l 272 790 l 270 793 l 268 797 l 266 799 l 264 802 l 263 804 l 261 808 l 259 811 l 257 813 l 256 817 l 254 818 l 252 822 l 250 825 l 249 827 l 247 830 l 245 832 l 243 836 l 241 839 l 240 841 l 238 845 l 236 846 l 234 850 l 233 853 l 231 855 l 229 859 l 228 860 l 226 864 l 224 867 l 222 869 l 220 873 l 219 874 l 217 878 l 215 882 l 213 883 l 212 887 l 210 889 l 208 892 l 207 896 l 204 898 l 203 901 l 201 903 l 199 906 l 197 910 l 196 911 l 194 915 l 192 917 l 191 920 l 189 924 l 187 926 l 185 929 l 183 931 l 182 935 l 180 938 l 178 940 l 176 943 l 175 945 l 173 948 l 171 952 l 169 954 l 168 957 l 166 959 l 164 963 l 162 966 l 160 968 l 159 971 l 157 975 l 155 977 l 154 980 l 152 982 l 150 986 l 148 989 l 146 991 l 145 994 l 143 996 l 141 1000 l 139 1003 l 138 1005 l 136 1008 l 134 1010 l 132 1014 l 131 1017 l 129 1019 l 127 1022 l 125 1024 l 124 1028 l 122 1031 l 120 1033 l 118 1037 l 117 1038 l 115 1042 l 113 1045 l 111 1047 l 110 1051 l 108 1053 l 106 1056 l 104 1059 l 102 1061 l 101 1065 l 99 1066 l 97 1070 l 95 1074 l 94 1076 l 92 1077 l 87 1079 l 81 1081 l 76 1082 l 71 1084 l 65 1086 l 62 1088 l 57 1089 l 52 1091 l 46 1093 l 41 1095 l 37 1097 l 32 1098 l 27 1100 l 21 1102 l 16 1103 l 11 1105 l 7 1107 l 2 1109 l -3 1111 l -8 1112 l -14 1114 l -17 1116 l -22 1118 l -27 1119 l -33 1121 l -38 1123 l -43 1125 l -47 1126 l -52 1128 l -57 1130 l -63 1132 l -68 1134 l -72 1135 l -77 1137 l -82 1139 l -87 1141 l -93 1142 l -98 1144 l -101 1146 l -106 1148 l -112 1149 l -117 1151 l -122 1153 l -126 1155 l -131 1155 z "},"W":{"ha":848,"x_min":0,"x_max":0,"o":"m 393 522 b 408 582 394 523 399 543 b 439 711 418 621 428 664 b 470 846 450 759 460 804 b 488 926 479 889 485 915 b 499 976 491 942 495 959 b 511 1027 503 993 507 1010 b 526 1075 517 1057 522 1073 b 572 1092 529 1077 545 1083 b 618 1108 587 1097 602 1102 b 665 1124 634 1114 650 1119 b 712 1142 674 1127 690 1133 b 757 1156 735 1150 750 1155 b 777 1103 759 1145 766 1128 b 794 1055 788 1078 794 1062 b 765 957 794 1048 784 1016 b 731 846 747 898 735 861 b 698 741 721 812 710 777 b 669 637 686 706 676 671 l 705 641 b 687 586 705 636 699 618 b 667 527 676 553 669 534 b 646 467 664 520 657 500 b 624 417 636 434 628 417 l 613 417 b 597 371 609 403 604 387 b 579 324 590 354 584 339 b 562 277 574 308 568 292 b 545 231 556 262 550 246 b 537 207 542 224 540 216 b 523 189 535 197 530 191 b 498 182 514 186 505 184 b 473 175 490 180 482 178 b 422 159 462 172 445 167 b 373 148 399 152 383 148 l 310 570 b 297 533 308 567 304 555 b 274 458 290 510 282 485 b 251 379 266 430 258 404 b 237 332 243 355 239 339 b 219 271 231 311 225 291 b 201 212 212 252 207 232 b 189 186 198 198 194 190 b 166 170 184 182 176 177 b 142 153 161 167 153 161 b 119 140 131 145 123 140 l -122 1107 l 113 1085 l 193 483 l 196 483 b 205 538 196 494 199 513 b 219 596 212 564 216 583 b 231 652 223 615 227 634 b 243 709 235 671 239 690 b 249 738 245 719 247 729 b 255 766 251 747 253 757 b 261 795 257 777 259 786 b 277 812 262 805 268 810 b 335 825 287 814 306 818 b 387 840 363 831 381 836 z m 757 1175 l 751 1173 l 746 1171 l 740 1169 l 734 1167 l 728 1165 l 723 1163 l 719 1161 l 713 1159 l 707 1158 l 701 1156 l 695 1154 l 690 1152 l 684 1150 l 678 1148 l 672 1146 l 669 1144 l 663 1142 l 657 1140 l 651 1138 l 645 1136 l 640 1134 l 634 1132 l 628 1131 l 622 1128 l 616 1127 l 613 1125 l 607 1123 l 601 1121 l 595 1119 l 589 1117 l 584 1115 l 578 1113 l 572 1111 l 566 1109 l 563 1107 l 557 1105 l 551 1103 l 545 1102 l 539 1100 l 533 1098 l 528 1096 l 522 1094 l 516 1092 l 512 1090 l 509 1088 l 507 1084 l 505 1077 l 503 1069 l 501 1059 l 499 1052 l 497 1044 l 495 1034 l 493 1026 l 491 1019 l 489 1009 l 487 1001 l 485 994 l 483 984 l 481 976 l 479 969 l 477 959 l 475 951 l 474 943 l 472 934 l 470 926 l 468 919 l 466 909 l 464 901 l 462 893 l 460 884 l 458 876 l 456 868 l 454 859 l 452 851 l 451 843 l 449 833 l 447 826 l 445 818 l 443 809 l 441 803 l 439 807 l 437 809 l 435 810 l 433 814 l 431 816 l 429 818 l 427 822 l 426 824 l 424 826 l 421 830 l 419 832 l 418 833 l 416 836 l 414 840 l 412 841 l 410 843 l 408 847 l 406 849 l 404 851 l 402 859 l 395 859 l 387 857 l 379 855 l 370 853 l 362 851 l 354 849 l 346 847 l 339 845 l 337 845 l 335 847 l 333 849 l 331 853 l 329 855 l 327 857 l 325 859 l 323 863 l 321 864 l 319 866 l 317 868 l 315 870 l 313 874 l 312 876 l 310 878 l 308 880 l 306 882 l 304 886 l 302 888 l 300 889 l 298 891 l 296 895 l 294 897 l 292 899 l 290 901 l 289 903 l 287 907 l 284 909 l 283 911 l 281 912 l 279 915 l 277 919 l 275 920 l 273 922 l 271 924 l 269 928 l 267 930 l 265 932 l 263 934 l 261 936 l 259 940 l 257 942 l 256 943 l 254 945 l 252 947 l 250 951 l 248 953 l 246 955 l 244 957 l 242 961 l 240 963 l 238 965 l 236 967 l 234 969 l 233 972 l 231 974 l 229 976 l 227 978 l 225 980 l 223 984 l 221 986 l 219 988 l 217 990 l 215 994 l 213 996 l 211 998 l 209 999 l 208 1001 l 205 1005 l 203 1007 l 201 1009 l 200 1011 l 198 1013 l 196 1017 l 194 1019 l 192 1021 l 190 1022 l 188 1026 l 186 1028 l 184 1030 l 182 1032 l 180 1034 l 178 1038 l 177 1040 l 175 1042 l 173 1044 l 171 1046 l 169 1049 l 167 1052 l 165 1053 l 163 1055 l 161 1059 l 159 1061 l 157 1063 l 155 1065 l 153 1067 l 151 1071 l 150 1073 l 148 1075 l 145 1077 l 144 1079 l 142 1082 l 140 1084 l 138 1086 l 136 1088 l 134 1092 l 132 1094 l 130 1096 l 128 1102 l 107 1103 l 87 1105 l 66 1107 l 45 1109 l 26 1111 l 5 1113 l -14 1115 l -36 1117 l -57 1119 l -76 1121 l -97 1123 l -116 1125 l -138 1127 l -143 1127 l -143 1121 l -142 1113 l -140 1105 l -138 1098 l -136 1090 l -134 1082 l -132 1075 l -130 1067 l -128 1059 l -126 1052 l -124 1044 l -122 1036 l -120 1028 l -118 1021 l -116 1013 l -115 1005 l -113 998 l -111 990 l -109 982 l -107 974 l -105 967 l -103 959 l -101 951 l -99 943 l -97 936 l -95 928 l -93 920 l -92 912 l -90 905 l -87 897 l -86 889 l -84 882 l -82 874 l -80 866 l -78 859 l -76 851 l -74 843 l -72 836 l -70 828 l -68 820 l -66 812 l -64 805 l -62 797 l -60 789 l -59 782 l -57 774 l -55 766 l -53 759 l -51 751 l -49 743 l -47 735 l -45 728 l -43 718 l -41 710 l -39 703 l -37 695 l -36 687 l -34 680 l -32 672 l -30 664 l -28 656 l -26 649 l -24 641 l -22 633 l -20 626 l -18 618 l -16 610 l -14 603 l -12 595 l -11 587 l -8 579 l -6 572 l -5 564 l -3 556 l -1 549 l 1 541 l 3 533 l 5 526 l 7 518 l 8 510 l 11 502 l 13 495 l 14 487 l 16 479 l 18 471 l 20 464 l 22 456 l 24 448 l 26 440 l 28 433 l 30 425 l 32 417 l 34 410 l 36 402 l 38 394 l 39 387 l 41 379 l 43 371 l 45 363 l 47 356 l 49 348 l 51 340 l 53 333 l 55 325 l 57 317 l 59 310 l 61 302 l 63 294 l 64 287 l 66 279 l 68 271 l 70 263 l 72 256 l 74 248 l 76 240 l 78 232 l 80 225 l 82 217 l 84 209 l 86 201 l 87 194 l 90 186 l 92 178 l 94 171 l 95 163 l 97 155 l 99 148 l 101 140 l 103 132 l 105 124 l 107 117 l 109 111 l 113 111 l 115 113 l 119 113 l 122 111 l 128 109 l 132 107 l 138 105 l 142 103 l 148 101 l 151 99 l 157 98 l 161 96 l 167 94 l 171 92 l 177 90 l 180 88 l 186 86 l 190 84 l 196 82 l 200 80 l 205 78 l 209 76 l 215 74 l 219 72 l 225 71 l 229 68 l 234 67 l 238 65 l 244 63 l 248 61 l 254 59 l 257 57 l 263 55 l 267 53 l 273 51 l 277 49 l 283 47 l 287 45 l 292 43 l 296 41 l 302 40 l 306 38 l 312 36 l 315 34 l 319 32 l 325 30 l 329 28 l 335 26 l 339 24 l 344 22 l 348 20 l 360 20 l 363 22 l 366 24 l 368 26 l 371 28 l 373 30 l 377 32 l 379 34 l 383 36 l 385 38 l 387 40 l 391 41 l 393 43 l 396 45 l 398 47 l 400 49 l 404 51 l 406 53 l 410 55 l 412 57 l 416 59 l 418 61 l 419 63 l 424 65 l 426 67 l 429 68 l 431 72 l 433 74 l 435 80 l 437 86 l 439 88 l 443 86 l 447 84 l 451 82 l 454 80 l 458 78 l 462 76 l 466 74 l 470 72 l 472 71 l 475 68 l 479 67 l 483 65 l 487 63 l 491 61 l 495 59 l 499 57 l 503 55 l 507 53 l 510 51 l 514 49 l 518 47 l 520 45 l 524 43 l 528 41 l 532 40 l 535 38 l 539 36 l 543 34 l 547 32 l 551 30 l 564 30 l 570 32 l 578 34 l 584 36 l 591 38 l 597 40 l 605 41 l 611 43 l 618 45 l 624 47 l 632 49 l 637 51 l 645 53 l 651 55 l 659 57 l 665 59 l 672 61 l 678 63 l 686 65 l 692 67 l 695 68 l 695 72 l 701 72 l 703 78 l 705 84 l 707 90 l 709 94 l 711 99 l 713 105 l 715 109 l 717 115 l 719 121 l 721 126 l 723 130 l 724 136 l 726 142 l 728 148 l 730 151 l 732 157 l 734 163 l 736 169 l 738 173 l 740 178 l 742 184 l 744 190 l 746 194 l 747 200 l 749 205 l 751 211 l 753 215 l 755 221 l 757 227 l 759 231 l 761 236 l 763 242 l 763 248 l 771 248 l 773 250 l 774 252 l 779 254 l 781 256 l 782 261 l 784 267 l 786 273 l 788 279 l 790 284 l 792 290 l 794 296 l 796 300 l 798 306 l 800 311 l 802 317 l 804 323 l 805 329 l 807 335 l 809 340 l 811 344 l 813 350 l 815 356 l 817 361 l 819 367 l 821 373 l 823 379 l 825 385 l 827 390 l 829 394 l 830 400 l 832 406 l 834 412 l 837 417 l 838 423 l 840 429 l 842 435 l 844 440 l 846 445 l 846 448 l 844 456 l 842 460 l 840 462 l 838 466 l 837 469 l 834 471 l 832 475 l 830 479 l 829 481 l 829 487 l 830 493 l 832 498 l 834 506 l 837 512 l 838 518 l 840 526 l 842 531 l 844 537 l 846 545 l 848 550 l 850 556 l 852 564 l 854 570 l 856 575 l 858 583 l 860 589 l 861 595 l 863 603 l 865 608 l 867 614 l 869 622 l 871 628 l 873 633 l 875 641 l 877 647 l 879 653 l 881 660 l 883 666 l 885 672 l 886 680 l 888 685 l 890 691 l 892 699 l 894 704 l 896 710 l 898 718 l 900 724 l 902 730 l 904 737 l 906 743 l 908 749 l 910 756 l 912 762 l 913 768 l 913 780 l 912 785 l 910 791 l 908 795 l 906 801 l 904 807 l 902 812 l 900 816 l 898 822 l 896 828 l 894 833 l 892 840 l 890 843 l 888 849 l 886 855 l 885 861 l 883 864 l 881 870 l 879 876 l 877 882 l 875 886 l 873 891 l 871 897 l 869 903 l 867 907 l 865 912 l 863 919 l 861 924 l 860 930 l 858 934 l 856 940 l 854 945 l 852 951 l 850 955 l 848 961 l 846 967 l 844 972 l 842 976 l 840 982 l 838 988 l 837 994 l 834 998 l 832 1003 l 830 1009 l 829 1015 l 827 1021 l 825 1024 l 823 1030 l 821 1036 l 819 1042 l 817 1046 l 815 1052 l 813 1057 l 811 1063 l 809 1067 l 807 1073 l 805 1077 l 804 1082 l 802 1088 l 800 1092 l 798 1098 l 796 1103 l 794 1107 l 792 1113 l 790 1117 l 788 1123 l 786 1128 l 784 1132 l 782 1138 l 781 1144 l 779 1148 l 777 1154 l 774 1158 l 773 1163 l 771 1169 l 769 1173 l 767 1177 l 763 1177 z "},"X":{"ha":746,"x_min":0,"x_max":0,"o":"m 274 1071 l 457 1135 b 488 1100 460 1132 470 1121 b 514 1065 505 1080 514 1068 b 472 968 514 1062 500 1030 b 423 858 444 906 427 869 b 374 748 418 844 401 807 b 334 651 347 688 334 655 b 383 600 334 650 350 633 b 439 542 415 566 434 547 b 491 488 457 524 474 506 b 544 433 508 469 526 451 b 597 379 562 415 580 397 b 650 326 614 362 631 344 b 677 297 654 321 663 312 b 701 269 692 282 700 273 b 711 224 703 260 707 245 b 719 181 716 203 718 189 l 473 167 l 472 165 l 253 519 l 251 520 l 91 215 l -106 226 l -125 336 l 149 605 l -91 878 l -76 974 l 54 1044 l 199 791 z m 454 1154 l 448 1152 l 442 1149 l 435 1147 l 429 1145 l 422 1143 l 418 1141 l 412 1139 l 406 1137 l 399 1135 l 393 1133 l 387 1131 l 380 1128 l 374 1126 l 368 1124 l 363 1122 l 357 1120 l 351 1118 l 344 1116 l 338 1114 l 332 1112 l 325 1109 l 319 1107 l 315 1105 l 308 1103 l 302 1101 l 296 1099 l 289 1097 l 283 1095 l 277 1093 l 270 1090 l 264 1088 l 260 1086 l 257 1078 l 255 1072 l 253 1063 l 251 1055 l 249 1046 l 247 1040 l 245 1031 l 243 1023 l 240 1016 l 238 1008 l 236 999 l 234 991 l 232 985 l 230 976 l 228 968 l 226 961 l 223 953 l 221 944 l 219 936 l 217 930 l 215 921 l 213 913 l 211 904 l 209 898 l 207 892 l 204 894 l 202 898 l 200 900 l 198 902 l 196 904 l 194 906 l 192 911 l 190 913 l 188 915 l 185 917 l 183 919 l 181 923 l 179 925 l 177 927 l 175 930 l 173 932 l 171 936 l 169 938 l 166 940 l 164 942 l 162 944 l 160 949 l 158 951 l 156 953 l 154 955 l 152 957 l 150 961 l 148 963 l 145 966 l 143 968 l 141 970 l 139 974 l 137 976 l 135 978 l 133 980 l 131 983 l 128 987 l 126 989 l 124 991 l 122 993 l 120 995 l 118 999 l 116 1002 l 114 1004 l 111 1006 l 109 1008 l 107 1012 l 105 1014 l 103 1016 l 101 1019 l 99 1021 l 97 1025 l 95 1027 l 92 1029 l 90 1031 l 88 1033 l 86 1038 l 84 1040 l 82 1042 l 80 1044 l 78 1046 l 75 1050 l 73 1053 l 71 1055 l 69 1057 l 67 1059 l 65 1063 l 63 1067 l 56 1067 l 52 1065 l 48 1063 l 44 1061 l 39 1059 l 35 1057 l 33 1055 l 29 1053 l 24 1050 l 20 1048 l 16 1046 l 12 1044 l 8 1042 l 5 1040 l 1 1038 l -3 1036 l -7 1033 l -11 1031 l -15 1029 l -20 1027 l -22 1025 l -26 1023 l -30 1021 l -34 1019 l -39 1016 l -43 1014 l -47 1012 l -49 1010 l -54 1008 l -58 1006 l -62 1004 l -66 1002 l -70 999 l -75 997 l -77 995 l -81 993 l -85 991 l -90 989 l -92 987 l -94 983 l -96 970 l -98 955 l -100 942 l -102 930 l -104 915 l -106 902 l -109 887 l -111 875 l -111 870 l -109 868 l -106 866 l -104 864 l -102 862 l -100 860 l -98 856 l -96 853 l -94 851 l -92 849 l -90 847 l -87 845 l -85 843 l -83 839 l -81 837 l -79 834 l -77 832 l -75 830 l -73 828 l -70 826 l -68 824 l -66 820 l -64 818 l -62 815 l -60 813 l -58 811 l -56 809 l -54 807 l -51 803 l -49 801 l -47 799 l -45 797 l -43 794 l -41 792 l -39 790 l -37 788 l -34 784 l -32 782 l -30 780 l -28 778 l -26 775 l -24 773 l -22 771 l -20 767 l -17 765 l -15 763 l -13 761 l -11 758 l -9 756 l -7 754 l -5 752 l -3 748 l 0 746 l 1 744 l 3 742 l 5 739 l 8 737 l 10 735 l 12 731 l 14 729 l 16 727 l 18 725 l 20 723 l 22 720 l 24 718 l 27 714 l 29 712 l 31 710 l 33 708 l 35 706 l 37 704 l 39 701 l 41 699 l 44 695 l 46 693 l 48 691 l 50 689 l 52 687 l 54 684 l 56 682 l 58 678 l 61 676 l 63 674 l 65 672 l 67 670 l 69 668 l 71 665 l 73 663 l 75 659 l 78 657 l 80 655 l 82 653 l 84 651 l 86 649 l 88 646 l 90 642 l 92 640 l 95 638 l 97 636 l 99 634 l 101 632 l 103 630 l 105 627 l 107 623 l 109 621 l 111 619 l 114 617 l 116 615 l 118 613 l 120 611 l 120 604 l 118 602 l 116 600 l 114 598 l 111 596 l 109 594 l 107 591 l 105 589 l 103 587 l 101 585 l 99 583 l 97 581 l 95 579 l 92 577 l 90 575 l 88 572 l 86 570 l 84 568 l 82 566 l 80 564 l 78 562 l 75 560 l 73 558 l 71 555 l 69 553 l 67 551 l 65 549 l 63 547 l 61 545 l 58 543 l 54 541 l 52 538 l 50 536 l 48 534 l 46 532 l 44 530 l 41 528 l 39 526 l 37 524 l 35 522 l 33 519 l 31 517 l 29 515 l 27 513 l 24 511 l 22 509 l 20 507 l 18 505 l 16 503 l 14 500 l 12 498 l 10 496 l 8 494 l 5 492 l 3 490 l 1 488 l 0 486 l -3 484 l -5 481 l -7 479 l -9 477 l -11 475 l -13 473 l -15 471 l -17 469 l -20 467 l -22 465 l -24 463 l -26 460 l -28 458 l -30 456 l -34 454 l -37 452 l -39 450 l -41 448 l -43 446 l -45 444 l -47 441 l -49 439 l -51 437 l -54 435 l -56 433 l -58 431 l -60 429 l -62 427 l -64 425 l -66 422 l -68 420 l -70 418 l -73 416 l -75 414 l -77 412 l -79 410 l -81 408 l -83 406 l -85 403 l -87 401 l -90 399 l -92 397 l -94 395 l -96 393 l -98 391 l -100 389 l -102 387 l -104 384 l -106 382 l -109 380 l -111 378 l -113 376 l -115 374 l -117 372 l -119 370 l -123 367 l -125 365 l -127 363 l -130 361 l -132 359 l -134 357 l -136 355 l -138 353 l -140 350 l -142 348 l -144 346 l -144 338 l -142 325 l -140 312 l -138 302 l -136 289 l -134 276 l -132 266 l -130 253 l -127 240 l -125 230 l -123 217 l -121 209 l -115 207 l -111 204 l -104 202 l -100 200 l -96 198 l -90 196 l -85 194 l -81 192 l -75 190 l -70 188 l -66 185 l -60 183 l -56 181 l -51 179 l -45 177 l -41 175 l -34 173 l -30 171 l -26 169 l -20 166 l -15 164 l -11 162 l -5 160 l 0 158 l 3 156 l 10 154 l 14 152 l 18 150 l 24 148 l 29 145 l 33 143 l 39 141 l 44 139 l 48 137 l 54 135 l 58 133 l 63 131 l 69 128 l 73 126 l 80 124 l 84 122 l 88 120 l 95 118 l 99 116 l 103 114 l 109 111 l 114 109 l 118 107 l 124 105 l 128 103 l 133 101 l 139 99 l 143 97 l 148 95 l 154 92 l 190 90 l 230 88 l 268 86 l 308 84 l 323 84 l 325 86 l 332 88 l 334 92 l 336 95 l 338 99 l 340 103 l 342 107 l 344 111 l 347 116 l 349 120 l 351 124 l 353 128 l 355 133 l 357 135 l 359 139 l 361 143 l 363 148 l 366 152 l 368 156 l 370 160 l 372 164 l 374 169 l 376 173 l 378 177 l 380 179 l 382 183 l 385 188 l 387 192 l 389 196 l 391 200 l 393 204 l 395 209 l 397 213 l 399 217 l 401 219 l 404 223 l 406 228 l 406 232 l 410 230 l 412 225 l 414 221 l 416 219 l 418 215 l 420 211 l 422 209 l 425 204 l 427 202 l 429 198 l 431 194 l 433 192 l 435 188 l 437 185 l 439 181 l 442 177 l 444 175 l 446 171 l 448 166 l 450 164 l 452 160 l 454 158 l 456 154 l 458 150 l 461 148 l 467 145 l 469 143 l 473 141 l 475 139 l 480 137 l 482 135 l 486 133 l 488 131 l 492 128 l 495 126 l 499 124 l 501 122 l 503 120 l 507 118 l 509 116 l 514 114 l 516 111 l 520 109 l 522 107 l 526 105 l 529 103 l 533 101 l 535 99 l 539 97 l 541 95 l 545 92 l 548 90 l 552 88 l 554 86 l 558 84 l 560 82 l 565 80 l 567 78 l 571 75 l 573 73 l 577 71 l 579 69 l 584 67 l 586 65 l 590 63 l 592 61 l 596 59 l 598 56 l 603 54 l 605 52 l 609 50 l 611 48 l 615 46 l 638 46 l 674 48 l 711 50 l 747 52 l 783 54 l 819 56 l 833 59 l 836 65 l 840 67 l 840 75 l 838 84 l 836 95 l 833 105 l 831 114 l 829 124 l 827 135 l 825 143 l 823 154 l 821 158 l 819 160 l 817 162 l 814 166 l 812 169 l 810 171 l 808 173 l 806 175 l 804 179 l 802 181 l 800 183 l 798 185 l 795 188 l 793 192 l 791 194 l 789 196 l 787 198 l 785 200 l 783 204 l 781 207 l 778 209 l 776 211 l 774 215 l 772 217 l 770 219 l 768 221 l 766 223 l 764 228 l 761 230 l 759 232 l 757 234 l 755 236 l 753 240 l 751 242 l 749 244 l 747 247 l 744 249 l 742 253 l 740 255 l 738 257 l 736 259 l 734 261 l 732 266 l 730 268 l 727 270 l 725 272 l 723 276 l 721 278 l 719 280 l 717 283 l 715 285 l 713 287 l 711 289 l 708 291 l 706 293 l 704 295 l 702 297 l 700 300 l 698 302 l 696 306 l 694 308 l 691 310 l 689 312 l 687 314 l 685 316 l 683 319 l 681 321 l 679 323 l 677 325 l 674 327 l 672 329 l 670 331 l 668 333 l 666 336 l 664 338 l 662 340 l 660 342 l 657 344 l 655 346 l 653 348 l 651 350 l 649 353 l 647 355 l 645 357 l 643 359 l 641 361 l 638 363 l 636 365 l 634 367 l 632 370 l 630 372 l 628 376 l 626 378 l 624 380 l 622 382 l 620 384 l 617 387 l 615 389 l 613 391 l 611 393 l 609 395 l 607 397 l 605 399 l 603 401 l 601 403 l 598 406 l 596 408 l 594 410 l 592 412 l 590 414 l 588 416 l 586 418 l 584 420 l 582 422 l 579 425 l 577 427 l 575 429 l 573 431 l 571 433 l 569 435 l 567 437 l 565 439 l 562 441 l 560 446 l 558 448 l 556 450 l 554 452 l 552 454 l 550 456 l 548 458 l 545 460 l 543 463 l 541 465 l 541 471 l 543 477 l 545 481 l 548 486 l 550 492 l 552 496 l 554 500 l 556 505 l 558 511 l 560 515 l 562 519 l 565 526 l 567 530 l 569 534 l 571 538 l 573 545 l 575 549 l 577 553 l 579 558 l 582 564 l 584 568 l 586 572 l 588 579 l 590 583 l 592 587 l 594 591 l 596 598 l 598 602 l 601 606 l 603 613 l 605 617 l 607 621 l 609 625 l 611 632 l 613 636 l 615 640 l 617 646 l 620 651 l 622 655 l 624 659 l 626 665 l 628 670 l 630 674 l 632 680 l 634 684 l 636 689 l 638 693 l 641 699 l 643 704 l 645 708 l 647 714 l 649 718 l 651 723 l 653 727 l 655 733 l 657 737 l 660 742 l 662 748 l 664 752 l 666 756 l 668 761 l 670 767 l 672 771 l 674 775 l 674 792 l 672 797 l 670 801 l 668 805 l 666 809 l 664 813 l 662 818 l 660 822 l 657 826 l 655 830 l 653 834 l 651 839 l 649 843 l 647 847 l 645 851 l 643 856 l 641 860 l 638 864 l 636 868 l 634 873 l 632 877 l 630 881 l 628 885 l 626 889 l 624 894 l 622 898 l 620 902 l 617 906 l 615 911 l 613 915 l 611 919 l 609 923 l 607 927 l 605 932 l 603 936 l 601 940 l 598 944 l 596 949 l 594 953 l 592 957 l 590 961 l 588 966 l 586 970 l 584 974 l 582 978 l 579 983 l 577 987 l 575 991 l 573 995 l 571 1002 l 569 1006 l 567 1010 l 565 1014 l 562 1019 l 560 1023 l 558 1027 l 556 1031 l 554 1036 l 552 1040 l 550 1044 l 548 1048 l 545 1053 l 543 1057 l 541 1061 l 539 1065 l 537 1069 l 535 1074 l 533 1076 l 531 1078 l 529 1082 l 526 1084 l 524 1086 l 522 1088 l 520 1090 l 518 1095 l 516 1097 l 514 1099 l 512 1101 l 509 1103 l 507 1107 l 505 1109 l 503 1112 l 501 1114 l 499 1116 l 497 1120 l 495 1122 l 492 1124 l 490 1126 l 488 1128 l 486 1133 l 484 1135 l 482 1137 l 480 1139 l 478 1141 l 475 1143 l 473 1147 l 471 1149 l 469 1152 l 467 1154 l 465 1156 l 461 1156 z "},"Y":{"ha":576,"x_min":0,"x_max":0,"o":"m 431 744 b 461 871 443 767 453 809 b 474 1018 470 932 474 981 b 492 979 475 1017 481 1004 b 527 898 503 954 515 927 b 561 818 540 869 551 842 l 577 782 l 568 649 b 553 674 565 651 560 659 b 538 702 545 688 540 697 b 523 728 534 710 529 719 b 516 756 518 737 515 746 z m -104 1139 l 89 1146 l 173 1062 l 72 669 l 230 709 l 229 710 l 260 1001 l 417 1088 b 440 1069 420 1086 428 1080 b 459 1048 453 1058 459 1051 l 459 1041 b 455 955 459 1012 458 983 b 446 872 451 926 449 898 b 432 794 443 844 438 819 b 422 760 429 784 426 772 b 397 741 417 747 409 741 b 398 731 398 736 398 732 l 398 725 l 495 738 l 472 625 l 376 604 l 312 173 l 84 132 b 54 168 83 132 73 144 b -11 248 34 192 13 218 b -78 332 -35 277 -57 306 b -115 380 -99 358 -111 374 l 36 477 l 187 311 l 219 572 l -41 528 l -131 597 l -74 870 l -119 897 z m 8 1160 l -51 1158 l -110 1157 l -119 1155 l -121 1136 l -123 1105 l -125 1075 l -126 1044 l -129 1014 l -130 986 l -132 955 l -134 925 l -136 895 l -136 887 l -132 885 l -130 883 l -129 881 l -126 879 l -125 877 l -123 876 l -121 873 l -119 872 l -117 870 l -115 868 l -113 866 l -112 864 l -110 862 l -107 860 l -106 858 l -104 857 l -102 854 l -100 853 l -98 851 l -96 849 l -96 847 l -98 837 l -100 828 l -102 819 l -104 811 l -106 801 l -107 792 l -110 784 l -112 775 l -113 765 l -115 756 l -117 748 l -119 739 l -121 729 l -123 722 l -125 712 l -126 703 l -129 695 l -130 686 l -132 676 l -134 667 l -136 659 l -138 650 l -140 640 l -142 632 l -144 623 l -145 613 l -148 606 l -150 596 l -150 589 l -145 587 l -144 585 l -142 583 l -138 581 l -136 579 l -134 577 l -132 575 l -129 574 l -126 572 l -125 570 l -121 568 l -119 566 l -117 564 l -115 562 l -112 560 l -110 558 l -107 556 l -106 555 l -102 553 l -100 551 l -98 549 l -94 547 l -93 545 l -91 543 l -89 541 l -85 539 l -83 537 l -81 535 l -77 534 l -75 532 l -73 530 l -72 528 l -68 526 l -66 524 l -64 523 l -60 520 l -58 518 l -56 517 l -55 515 l -51 513 l -49 511 l -47 509 l -43 507 l -41 505 l -39 503 l -36 502 l -34 499 l -32 498 l -28 496 l -26 494 l -24 492 l -20 490 l -18 488 l -17 486 l -13 484 l -11 483 l -9 480 l -5 478 l -3 477 l -1 475 l -3 473 l -5 471 l -9 469 l -11 467 l -15 465 l -17 464 l -20 461 l -22 459 l -26 458 l -30 456 l -32 454 l -36 452 l -37 450 l -41 448 l -43 446 l -47 445 l -49 443 l -53 441 l -55 439 l -58 437 l -62 435 l -64 433 l -68 431 l -70 429 l -73 427 l -75 426 l -79 424 l -81 422 l -85 420 l -89 418 l -91 416 l -94 414 l -96 412 l -100 410 l -102 408 l -106 406 l -107 405 l -112 402 l -115 401 l -117 399 l -121 397 l -123 395 l -126 393 l -129 391 l -132 389 l -134 388 l -138 386 l -138 380 l -136 378 l -134 374 l -132 372 l -130 370 l -129 369 l -126 365 l -125 363 l -123 361 l -121 359 l -119 355 l -117 353 l -115 351 l -113 350 l -112 348 l -110 344 l -107 342 l -106 340 l -104 338 l -102 334 l -100 332 l -98 331 l -96 329 l -94 325 l -93 323 l -91 321 l -89 319 l -87 315 l -85 313 l -83 312 l -81 310 l -79 306 l -77 304 l -75 302 l -73 300 l -72 296 l -70 294 l -68 293 l -66 291 l -64 287 l -62 285 l -60 283 l -58 281 l -56 277 l -55 275 l -53 274 l -51 272 l -49 268 l -47 266 l -45 264 l -43 262 l -41 258 l -39 256 l -37 255 l -36 253 l -34 249 l -32 247 l -30 245 l -28 243 l -26 239 l -24 237 l -22 236 l -20 234 l -18 230 l -17 228 l -15 226 l -13 224 l -11 220 l -9 218 l -7 217 l -5 215 l -3 213 l -1 209 l 0 207 l 2 205 l 4 203 l 6 199 l 8 197 l 10 196 l 12 194 l 14 190 l 15 188 l 17 186 l 19 184 l 21 180 l 23 179 l 25 177 l 27 175 l 28 171 l 31 169 l 32 167 l 34 165 l 36 161 l 38 160 l 40 158 l 42 156 l 44 152 l 46 150 l 47 148 l 50 146 l 52 142 l 53 141 l 55 139 l 57 137 l 59 133 l 61 131 l 63 129 l 65 127 l 66 123 l 68 121 l 71 120 l 72 118 l 74 114 l 82 112 l 85 110 l 91 108 l 95 106 l 99 104 l 104 103 l 108 101 l 112 99 l 118 97 l 121 95 l 125 93 l 129 91 l 135 89 l 139 87 l 142 85 l 148 84 l 152 82 l 156 80 l 160 78 l 165 76 l 169 74 l 173 72 l 178 70 l 182 68 l 186 66 l 192 64 l 196 63 l 199 61 l 203 59 l 209 57 l 213 55 l 216 53 l 222 52 l 226 50 l 230 47 l 235 45 l 239 44 l 243 42 l 247 40 l 253 38 l 256 36 l 260 34 l 266 32 l 270 31 l 281 31 l 292 32 l 304 34 l 313 36 l 325 38 l 336 40 l 347 42 l 357 44 l 368 45 l 379 47 l 391 50 l 400 52 l 412 53 l 423 55 l 433 57 l 444 59 l 455 61 l 467 63 l 469 64 l 469 68 l 472 68 l 474 70 l 476 76 l 478 89 l 480 103 l 482 116 l 484 129 l 486 141 l 488 154 l 490 167 l 492 180 l 493 194 l 495 205 l 497 218 l 499 232 l 501 245 l 503 258 l 505 270 l 507 283 l 509 296 l 510 310 l 512 323 l 514 334 l 516 348 l 518 361 l 520 374 l 522 388 l 524 399 l 524 410 l 528 410 l 535 412 l 545 414 l 552 416 l 562 418 l 569 420 l 579 422 l 586 424 l 596 426 l 598 429 l 602 431 l 603 437 l 605 446 l 607 454 l 609 464 l 611 471 l 613 480 l 615 488 l 617 498 l 618 505 l 621 515 l 622 523 l 624 532 l 624 541 l 622 545 l 621 549 l 618 553 l 617 556 l 615 560 l 613 564 l 611 568 l 609 572 l 607 575 l 605 577 l 603 581 l 602 585 l 600 589 l 598 593 l 596 596 l 594 600 l 592 604 l 590 608 l 588 611 l 586 615 l 585 619 l 583 621 l 583 634 l 585 650 l 586 667 l 588 686 l 590 706 l 592 733 l 594 765 l 594 788 l 592 792 l 590 796 l 588 800 l 586 805 l 585 809 l 583 813 l 581 819 l 579 822 l 577 826 l 575 832 l 573 836 l 571 839 l 569 845 l 567 849 l 565 853 l 564 858 l 562 862 l 560 866 l 558 870 l 556 876 l 554 879 l 552 883 l 550 889 l 548 892 l 547 896 l 545 902 l 543 906 l 541 909 l 539 915 l 537 919 l 535 923 l 533 927 l 531 932 l 529 936 l 528 940 l 526 946 l 524 949 l 522 953 l 520 959 l 518 963 l 516 966 l 514 972 l 512 976 l 510 980 l 509 986 l 507 989 l 505 993 l 503 997 l 501 1003 l 499 1006 l 497 1010 l 495 1016 l 493 1020 l 492 1023 l 490 1029 l 488 1033 l 486 1037 l 484 1042 l 482 1046 l 480 1050 l 478 1056 l 476 1060 l 474 1062 l 472 1063 l 471 1065 l 467 1067 l 465 1069 l 463 1071 l 461 1073 l 459 1075 l 457 1077 l 455 1079 l 453 1081 l 450 1082 l 448 1084 l 446 1086 l 444 1088 l 442 1090 l 440 1092 l 438 1094 l 435 1096 l 433 1098 l 431 1099 l 429 1101 l 427 1103 l 425 1105 l 423 1107 l 416 1107 l 412 1105 l 410 1103 l 406 1101 l 402 1099 l 398 1098 l 395 1096 l 393 1094 l 389 1092 l 385 1090 l 381 1088 l 379 1086 l 376 1084 l 372 1082 l 368 1081 l 365 1079 l 362 1077 l 359 1075 l 355 1073 l 351 1071 l 347 1069 l 346 1067 l 342 1065 l 338 1063 l 334 1062 l 332 1060 l 328 1058 l 325 1056 l 321 1054 l 317 1052 l 315 1050 l 311 1048 l 308 1046 l 304 1044 l 302 1042 l 298 1041 l 294 1039 l 290 1037 l 287 1035 l 285 1033 l 281 1031 l 277 1029 l 273 1027 l 271 1025 l 268 1023 l 264 1022 l 260 1020 l 256 1018 l 254 1016 l 251 1014 l 247 1012 l 245 1010 l 243 1001 l 242 985 l 241 989 l 239 993 l 237 995 l 235 999 l 234 1001 l 232 1005 l 230 1006 l 228 1010 l 226 1012 l 224 1016 l 222 1020 l 220 1022 l 218 1025 l 216 1027 l 215 1031 l 213 1033 l 211 1037 l 209 1041 l 207 1042 l 205 1046 l 203 1048 l 201 1052 l 199 1054 l 197 1058 l 196 1060 l 194 1063 l 192 1067 l 190 1069 l 188 1071 l 186 1073 l 184 1075 l 182 1077 l 180 1079 l 178 1081 l 177 1082 l 175 1084 l 173 1086 l 171 1088 l 169 1090 l 167 1092 l 165 1094 l 163 1096 l 161 1098 l 160 1099 l 158 1101 l 156 1103 l 154 1105 l 152 1107 l 150 1109 l 148 1111 l 146 1113 l 144 1115 l 142 1117 l 141 1119 l 139 1120 l 137 1122 l 135 1124 l 133 1126 l 131 1128 l 129 1130 l 127 1132 l 125 1134 l 123 1136 l 121 1138 l 120 1139 l 118 1141 l 116 1143 l 114 1145 l 112 1147 l 110 1149 l 108 1151 l 106 1153 l 104 1155 l 103 1157 l 101 1158 l 99 1160 l 97 1162 l 66 1162 z m 577 782 l 568 649 b 553 674 565 651 560 659 b 538 702 545 688 540 697 b 523 728 534 710 529 719 b 516 756 518 737 515 746 l 431 744 b 461 871 443 767 453 809 b 474 1018 470 932 474 981 b 492 979 475 1017 481 1004 b 527 898 503 954 515 927 b 561 818 540 869 551 842 z "},"Z":{"ha":576,"x_min":0,"x_max":0,"o":"m -35 1098 l 74 1135 l 73 1061 l 434 1078 b 463 989 436 1062 446 1033 b 488 911 480 945 488 919 b 460 871 488 909 479 895 b 398 789 442 846 421 819 b 332 703 375 759 353 730 b 294 650 311 676 298 658 b 270 617 288 641 280 630 b 245 586 260 605 251 594 b 221 553 236 575 228 564 b 196 521 213 542 205 531 b 172 488 188 510 180 500 b 148 456 164 477 156 466 b 122 424 142 449 134 438 b 99 391 110 409 103 398 l 520 450 b 544 427 520 449 528 442 b 571 402 559 413 569 405 l 511 132 l 314 116 l 274 191 l -119 150 l -122 288 l 238 860 l 70 840 l 64 755 l -13 711 b -62 728 -18 714 -35 719 b -106 745 -90 736 -105 742 b -96 800 -106 746 -103 765 b -83 862 -89 835 -84 856 b -59 980 -75 901 -67 941 b -35 1098 -51 1019 -43 1058 z m 76 1154 l 72 1152 l 66 1150 l 61 1148 l 55 1146 l 51 1145 l 44 1143 l 39 1141 l 34 1139 l 28 1137 l 23 1135 l 17 1134 l 13 1132 l 7 1130 l 2 1128 l -3 1126 l -8 1124 l -14 1122 l -20 1121 l -25 1119 l -31 1117 l -35 1115 l -41 1113 l -46 1111 l -47 1107 l -49 1100 l -51 1093 l -52 1085 l -54 1078 l -55 1070 l -57 1063 l -58 1056 l -60 1048 l -61 1041 l -63 1033 l -64 1026 l -65 1019 l -67 1011 l -68 1004 l -70 996 l -72 989 l -73 981 l -75 974 l -76 966 l -78 959 l -79 952 l -81 944 l -82 937 l -84 929 l -85 922 l -87 915 l -88 907 l -90 900 l -91 890 l -93 883 l -94 876 l -96 868 l -97 861 l -99 853 l -100 846 l -102 839 l -103 831 l -105 824 l -106 816 l -108 809 l -110 801 l -111 794 l -113 787 l -114 779 l -116 772 l -117 764 l -119 757 l -120 749 l -122 742 l -123 734 l -123 733 l -120 731 l -117 729 l -116 727 l -114 725 l -111 724 l -110 722 l -108 720 l -106 718 l -105 716 l -103 714 l -100 712 l -99 710 l -97 709 l -96 707 l -94 705 l -93 703 l -90 701 l -88 699 l -87 697 l -85 695 l -84 694 l -82 692 l -79 690 l -78 688 l -76 686 l -75 685 l -73 683 l -72 681 l -68 679 l -67 677 l -65 675 l -64 673 l -63 672 l -60 670 l -58 668 l -57 666 l -55 664 l -54 662 l -52 661 l -49 659 l -47 657 l -46 655 l -44 653 l -43 651 l -41 649 l -38 648 l -37 646 l -35 644 l -34 642 l -32 640 l -31 638 l -28 636 l -26 634 l -25 633 l -23 631 l -22 629 l -20 627 l -17 625 l -16 623 l -14 622 l -13 620 l -11 618 l -9 616 l -6 614 l -5 612 l -3 610 l -2 608 l 0 607 l 1 605 l 4 603 l 5 601 l 7 599 l 8 597 l 10 595 l 11 594 l 14 592 l 16 590 l 17 588 l 19 586 l 20 585 l 22 583 l 25 581 l 26 579 l 28 577 l 30 575 l 31 573 l 33 571 l 36 570 l 36 566 l 34 564 l 33 560 l 31 558 l 30 556 l 28 555 l 26 551 l 25 549 l 23 547 l 22 544 l 20 542 l 19 540 l 17 538 l 16 534 l 14 532 l 13 531 l 11 527 l 10 525 l 8 523 l 7 519 l 5 518 l 4 516 l 2 514 l 1 510 l 0 508 l -2 506 l -3 503 l -5 501 l -6 499 l -8 495 l -9 493 l -11 492 l -13 490 l -14 486 l -16 484 l -17 483 l -19 478 l -20 477 l -22 475 l -23 471 l -25 469 l -26 468 l -28 466 l -29 462 l -31 460 l -32 458 l -34 454 l -35 453 l -37 451 l -38 447 l -40 445 l -41 443 l -43 441 l -44 438 l -46 436 l -47 434 l -49 430 l -51 429 l -52 427 l -54 423 l -55 421 l -57 419 l -58 417 l -60 414 l -61 412 l -63 410 l -64 406 l -65 405 l -67 402 l -68 399 l -70 397 l -72 395 l -73 393 l -75 390 l -76 388 l -78 386 l -79 382 l -81 380 l -82 378 l -84 375 l -85 373 l -87 371 l -88 369 l -90 366 l -91 363 l -93 362 l -94 358 l -96 356 l -97 354 l -99 351 l -100 349 l -102 347 l -103 345 l -105 341 l -106 339 l -108 338 l -110 334 l -111 332 l -113 330 l -114 327 l -116 325 l -117 323 l -119 321 l -120 317 l -122 315 l -123 313 l -125 310 l -126 308 l -127 306 l -129 302 l -131 300 l -132 299 l -134 297 l -135 293 l -135 267 l -134 219 l -132 171 l -131 132 l -127 132 l -123 132 l -119 130 l -114 128 l -110 126 l -105 124 l -100 122 l -96 121 l -91 119 l -87 117 l -82 115 l -78 113 l -73 111 l -68 109 l -64 107 l -60 106 l -55 104 l -51 102 l -46 100 l -40 98 l -35 96 l -31 95 l -26 93 l -22 91 l -17 89 l -13 87 l -8 85 l -3 83 l 1 81 l 5 80 l 10 78 l 14 76 l 19 74 l 23 72 l 28 71 l 33 68 l 37 67 l 43 65 l 47 63 l 52 61 l 57 59 l 61 57 l 69 57 l 87 59 l 104 61 l 122 63 l 138 65 l 157 67 l 173 68 l 191 71 l 208 72 l 225 74 l 243 76 l 260 78 l 278 80 l 294 81 l 313 83 l 329 85 l 331 85 l 332 83 l 335 81 l 338 80 l 341 78 l 344 76 l 346 74 l 349 72 l 352 71 l 355 68 l 358 67 l 359 65 l 362 63 l 366 61 l 369 59 l 370 57 l 373 56 l 376 54 l 379 52 l 382 50 l 384 48 l 387 46 l 390 44 l 393 42 l 396 41 l 397 39 l 400 37 l 403 35 l 406 33 l 410 32 l 425 32 l 449 33 l 473 35 l 497 37 l 522 39 l 544 41 l 568 42 l 577 44 l 577 48 l 581 48 l 582 50 l 584 52 l 585 59 l 587 65 l 588 72 l 590 80 l 591 85 l 593 93 l 594 100 l 595 107 l 597 113 l 598 121 l 600 128 l 602 134 l 603 141 l 605 148 l 606 156 l 608 161 l 609 169 l 611 176 l 612 182 l 614 189 l 615 197 l 617 204 l 618 210 l 620 217 l 622 224 l 623 230 l 625 237 l 626 245 l 627 251 l 629 258 l 630 265 l 632 273 l 632 282 l 630 288 l 629 291 l 627 295 l 626 299 l 625 302 l 623 308 l 622 312 l 620 315 l 618 319 l 617 325 l 615 328 l 614 332 l 612 336 l 611 339 l 609 345 l 608 349 l 606 353 l 605 356 l 603 360 l 602 366 l 600 369 l 598 373 l 597 376 l 595 382 l 594 386 l 593 390 l 591 393 l 590 397 l 588 402 l 587 406 l 585 412 l 582 414 l 581 416 l 579 417 l 576 419 l 574 421 l 573 423 l 570 425 l 568 427 l 565 429 l 564 430 l 562 432 l 559 434 l 558 436 l 556 438 l 553 440 l 552 441 l 550 443 l 547 445 l 546 447 l 543 449 l 541 451 l 539 453 l 536 454 l 535 456 l 534 458 l 531 460 l 529 462 l 528 464 l 525 466 l 511 466 l 497 464 l 484 462 l 472 460 l 458 458 l 444 456 l 431 454 l 418 453 l 405 451 l 397 451 l 399 453 l 400 454 l 402 456 l 403 458 l 405 460 l 406 462 l 408 464 l 410 466 l 411 468 l 413 469 l 414 473 l 415 475 l 417 477 l 418 478 l 420 480 l 421 483 l 423 484 l 425 486 l 426 488 l 428 490 l 429 492 l 431 493 l 432 497 l 434 499 l 435 501 l 437 503 l 438 505 l 440 506 l 441 508 l 443 510 l 444 512 l 446 514 l 447 516 l 449 518 l 450 521 l 452 523 l 453 525 l 455 527 l 456 529 l 458 531 l 459 532 l 461 534 l 463 536 l 464 538 l 466 540 l 467 544 l 469 545 l 470 547 l 472 549 l 473 551 l 475 553 l 476 555 l 477 556 l 479 558 l 480 560 l 482 562 l 484 564 l 485 568 l 487 570 l 488 571 l 490 573 l 491 575 l 493 577 l 494 579 l 496 581 l 497 583 l 499 585 l 500 586 l 502 588 l 503 592 l 505 594 l 506 595 l 508 597 l 509 599 l 511 601 l 512 603 l 514 605 l 515 607 l 517 608 l 518 610 l 520 612 l 522 616 l 523 618 l 525 620 l 526 622 l 528 623 l 529 625 l 531 627 l 532 629 l 534 631 l 535 633 l 536 634 l 538 638 l 539 640 l 541 642 l 543 644 l 544 646 l 546 648 l 547 649 l 549 651 l 550 653 l 552 655 l 553 657 l 555 659 l 556 662 l 558 664 l 559 666 l 561 668 l 562 670 l 564 672 l 565 673 l 567 679 l 567 685 l 565 690 l 564 695 l 562 701 l 561 707 l 559 712 l 558 718 l 556 724 l 555 729 l 553 733 l 552 738 l 550 744 l 549 749 l 547 755 l 546 761 l 544 766 l 543 772 l 541 777 l 539 783 l 538 788 l 536 794 l 535 800 l 534 805 l 532 811 l 531 816 l 529 820 l 528 825 l 526 831 l 525 837 l 523 842 l 522 848 l 520 853 l 518 859 l 517 864 l 515 870 l 514 876 l 512 881 l 511 887 l 509 892 l 508 898 l 506 902 l 505 909 l 503 912 l 502 918 l 500 922 l 499 927 l 497 931 l 496 935 l 494 941 l 493 944 l 491 950 l 490 954 l 488 959 l 487 963 l 485 966 l 484 972 l 482 976 l 480 981 l 479 985 l 477 990 l 476 994 l 475 998 l 473 1004 l 472 1007 l 470 1013 l 469 1017 l 467 1022 l 466 1026 l 464 1029 l 463 1035 l 461 1039 l 459 1044 l 458 1048 l 456 1054 l 455 1057 l 453 1061 l 452 1067 l 450 1070 l 449 1076 l 447 1080 l 446 1085 l 444 1089 l 443 1093 l 441 1095 l 425 1095 l 385 1093 l 347 1091 l 310 1089 l 272 1087 l 234 1085 l 196 1083 l 158 1082 l 122 1082 l 120 1085 l 119 1089 l 117 1091 l 116 1095 l 114 1096 l 113 1100 l 111 1102 l 110 1106 l 108 1107 l 107 1111 l 105 1113 l 104 1117 l 102 1119 l 101 1122 l 99 1124 l 98 1128 l 96 1132 l 95 1134 l 93 1137 l 92 1139 l 90 1143 l 89 1145 l 87 1148 l 85 1156 l 82 1156 z "},"a":{"ha":814,"x_min":0,"x_max":0,"o":"m 339 881 l 306 714 l 360 697 z m 273 1148 l 271 1143 l 269 1139 l 267 1133 l 266 1127 l 263 1123 l 261 1118 l 260 1114 l 258 1110 l 256 1104 l 254 1098 l 252 1095 l 250 1090 l 248 1085 l 246 1079 l 244 1075 l 242 1069 l 240 1065 l 238 1062 l 237 1056 l 235 1050 l 233 1046 l 231 1040 l 229 1037 l 227 1031 l 225 1025 l 223 1021 l 221 1017 l 219 1011 l 217 1006 l 215 1002 l 213 996 l 211 992 l 210 988 l 208 983 l 205 977 l 204 973 l 202 969 l 200 963 l 198 958 l 196 954 l 194 948 l 192 944 l 190 940 l 188 935 l 186 929 l 184 925 l 182 919 l 180 915 l 179 909 l 177 903 l 175 900 l 173 896 l 171 890 l 169 884 l 167 880 l 165 877 l 163 871 l 161 865 l 159 861 l 157 855 l 155 851 l 154 848 l 152 842 l 150 836 l 148 832 l 146 826 l 144 823 l 142 817 l 140 811 l 138 807 l 136 803 l 134 798 l 132 792 l 131 788 l 129 782 l 126 778 l 124 774 l 123 767 l 121 763 l 119 759 l 117 755 l 115 749 l 113 744 l 111 740 l 109 734 l 107 730 l 105 724 l 103 719 l 101 714 l 100 711 l 98 705 l 96 701 l 94 695 l 92 689 l 90 686 l 88 682 l 86 676 l 84 670 l 82 667 l 80 661 l 78 657 l 76 653 l 75 647 l 73 642 l 71 637 l 68 634 l 67 626 l 65 622 l 63 618 l 61 612 l 59 609 l 57 603 l 55 597 l 53 593 l 51 589 l 49 584 l 47 578 l 45 574 l 44 568 l 42 564 l 40 561 l 38 553 l 36 549 l 34 545 l 32 539 l 30 535 l 28 530 l 26 526 l 24 520 l 22 516 l 20 510 l 18 505 l 17 501 l 15 497 l 13 491 l 11 487 l 9 481 l 7 475 l 5 472 l 3 466 l 1 462 l 0 456 l -2 452 l -4 447 l -6 443 l -8 439 l -10 431 l -12 427 l -14 424 l -16 420 l -18 414 l -20 408 l -22 404 l -23 398 l -25 395 l -27 389 l -30 383 l -31 379 l -33 375 l -35 370 l -37 366 l -39 360 l -41 354 l -43 350 l -45 345 l -47 339 l -49 335 l -51 331 l -53 325 l -55 321 l -57 316 l -58 310 l -60 306 l -62 302 l -64 296 l -66 291 l -68 287 l -70 283 l -72 277 l -74 273 l -76 267 l -78 261 l -80 258 l -81 252 l -83 248 l -85 242 l -87 238 l -89 233 l -91 229 l -93 225 l -95 217 l -97 213 l -99 210 l -101 204 l -103 200 l -105 194 l -106 190 l -109 184 l -110 180 l -112 175 l -114 169 l -116 165 l -118 161 l -120 156 l -122 152 l -124 146 l -126 140 l -128 136 l -130 131 l -130 121 l -128 117 l -126 115 l -124 113 l -122 109 l -120 107 l -118 103 l -116 101 l -114 98 l -112 96 l -110 94 l -109 90 l -106 88 l -105 84 l -103 82 l -101 78 l -99 77 l -97 75 l -95 71 l -93 69 l -91 65 l -89 63 l -87 59 l -85 57 l -83 55 l -81 52 l -80 50 l -78 47 l -74 45 l -33 44 l 1 42 l 38 40 l 73 38 l 109 36 l 144 34 l 180 32 l 219 32 l 223 34 l 229 36 l 233 38 l 237 40 l 242 42 l 248 44 l 250 45 l 256 47 l 260 50 l 266 52 l 269 53 l 273 55 l 279 57 l 283 59 l 289 61 l 293 63 l 298 65 l 302 67 l 306 69 l 312 71 l 317 73 l 319 75 l 325 77 l 331 78 l 335 80 l 339 82 l 345 84 l 348 86 l 354 88 l 358 90 l 364 92 l 368 94 l 372 96 l 377 98 l 381 100 l 387 101 l 391 103 l 395 105 l 400 107 l 404 109 l 408 111 l 414 113 l 418 115 l 424 117 l 428 119 l 431 121 l 437 123 l 441 125 l 443 126 l 445 129 l 447 132 l 449 134 l 451 142 l 452 150 l 454 159 l 455 168 l 458 165 l 464 163 l 470 161 l 476 159 l 481 157 l 487 156 l 491 154 l 497 152 l 503 150 l 509 148 l 514 146 l 520 144 l 526 142 l 532 140 l 535 138 l 541 136 l 547 134 l 553 132 l 558 131 l 565 129 l 572 126 l 576 125 l 582 123 l 588 121 l 593 119 l 599 117 l 605 115 l 611 113 l 616 111 l 621 109 l 626 107 l 632 105 l 638 103 l 644 101 l 649 100 l 655 98 l 661 96 l 665 94 l 671 92 l 680 90 l 690 88 l 701 86 l 713 84 l 723 82 l 734 80 l 746 78 l 755 77 l 765 75 l 777 73 l 786 71 l 798 69 l 815 69 l 817 71 l 819 73 l 821 75 l 823 77 l 825 78 l 827 80 l 829 82 l 830 84 l 832 86 l 834 88 l 836 92 l 838 94 l 840 96 l 842 98 l 844 100 l 846 101 l 848 103 l 850 109 l 850 123 l 848 129 l 846 136 l 844 144 l 842 150 l 840 157 l 838 163 l 836 169 l 834 177 l 832 184 l 830 190 l 829 196 l 827 204 l 825 210 l 823 217 l 821 223 l 819 231 l 817 237 l 815 244 l 813 252 l 811 258 l 809 266 l 807 271 l 805 277 l 804 285 l 802 291 l 800 298 l 798 304 l 796 312 l 794 317 l 792 325 l 790 331 l 788 339 l 786 345 l 784 352 l 782 358 l 781 366 l 779 372 l 777 379 l 774 385 l 773 393 l 771 398 l 769 406 l 767 414 l 765 420 l 763 427 l 761 433 l 759 439 l 757 445 l 755 452 l 753 458 l 751 466 l 749 474 l 748 479 l 746 487 l 744 493 l 742 501 l 740 506 l 738 514 l 736 520 l 734 528 l 732 533 l 730 541 l 728 547 l 726 555 l 724 561 l 723 566 l 721 574 l 719 582 l 717 588 l 715 595 l 713 601 l 711 607 l 709 614 l 707 620 l 705 628 l 703 636 l 701 642 l 699 649 l 697 655 l 695 663 l 694 668 l 692 676 l 690 684 l 688 689 l 686 695 l 684 701 l 682 709 l 680 714 l 678 722 l 676 728 l 674 736 l 672 744 l 671 749 l 669 757 l 667 763 l 665 769 l 663 776 l 661 782 l 659 790 l 657 798 l 655 803 l 653 811 l 651 817 l 649 824 l 647 830 l 645 836 l 644 844 l 642 851 l 640 857 l 638 863 l 636 871 l 634 877 l 632 880 l 630 882 l 628 884 l 626 888 l 624 890 l 622 892 l 621 894 l 618 898 l 616 900 l 614 902 l 613 903 l 611 905 l 609 909 l 607 911 l 605 913 l 603 915 l 601 919 l 599 921 l 597 923 l 595 925 l 593 927 l 591 930 l 590 932 l 588 935 l 586 938 l 584 940 l 582 942 l 580 944 l 578 946 l 576 950 l 574 952 l 572 954 l 570 956 l 568 960 l 566 961 l 565 963 l 563 965 l 561 967 l 558 971 l 557 973 l 555 975 l 553 977 l 551 981 l 549 983 l 547 984 l 545 986 l 543 988 l 541 992 l 539 994 l 537 998 l 535 1000 l 534 1002 l 532 1006 l 530 1008 l 528 1009 l 526 1011 l 524 1014 l 522 1017 l 520 1019 l 518 1021 l 516 1023 l 514 1027 l 512 1029 l 510 1031 l 509 1033 l 507 1035 l 505 1039 l 503 1040 l 501 1042 l 499 1044 l 497 1046 l 495 1050 l 493 1052 l 491 1054 l 489 1056 l 487 1060 l 486 1062 l 484 1064 l 481 1065 l 479 1069 l 478 1071 l 476 1073 l 474 1075 l 472 1079 l 470 1081 l 468 1083 l 466 1085 l 464 1087 l 462 1090 l 460 1093 l 458 1095 l 456 1096 l 454 1100 l 452 1102 l 451 1104 l 449 1106 l 443 1108 l 437 1110 l 429 1112 l 422 1114 l 414 1116 l 406 1118 l 400 1119 l 393 1121 l 387 1123 l 379 1125 l 372 1127 l 366 1129 l 358 1131 l 348 1133 l 342 1135 l 335 1137 l 329 1139 l 321 1141 l 314 1143 l 308 1145 l 300 1146 l 294 1148 l 285 1150 l 275 1150 z m -109 129 b -95 169 -109 132 -104 146 b -64 247 -86 193 -75 219 b -31 328 -52 275 -41 302 b -11 379 -20 354 -13 371 b 39 504 4 421 20 462 b 89 629 58 545 74 587 b 137 754 103 670 119 712 b 188 879 155 797 172 838 b 213 941 196 900 204 920 b 238 1004 221 962 229 983 b 262 1067 246 1024 254 1045 b 275 1099 265 1076 269 1086 b 287 1129 281 1111 284 1121 b 353 1108 303 1121 325 1114 b 425 1092 380 1103 404 1097 b 443 1065 433 1090 438 1081 b 452 1030 446 1050 450 1038 b 462 997 456 1019 459 1008 b 472 963 465 985 468 974 b 510 828 485 918 498 873 b 549 692 522 782 535 737 b 587 555 563 647 576 601 b 627 419 599 508 612 463 b 649 351 634 400 641 377 b 667 283 657 325 663 302 b 684 213 670 267 675 243 b 705 148 692 182 699 160 l 673 113 b 603 135 653 117 629 125 b 532 161 576 146 553 154 b 497 173 521 165 509 169 b 461 186 485 177 473 181 b 449 196 454 189 450 192 b 446 217 449 200 448 207 b 443 236 445 223 444 229 b 439 256 442 243 440 250 b 424 335 434 282 429 308 b 410 414 419 361 414 388 b 395 493 406 436 401 462 b 387 533 393 502 390 516 b 381 572 383 551 381 564 l 274 614 l 233 414 l 250 393 l 202 179 l -69 67 l -70 69 b -91 100 -73 74 -80 84 b -109 129 -103 116 -109 125 z "},"b":{"ha":644,"x_min":0,"x_max":0,"o":"m 174 567 l 150 387 l 357 500 l 369 606 z m 318 688 l 506 709 l 445 341 l -83 63 l -115 137 b -103 178 -112 149 -108 163 b -90 218 -98 192 -94 206 b -77 259 -85 232 -81 245 b -65 300 -74 273 -70 286 b -15 465 -46 355 -29 410 b 6 550 -7 493 -1 521 b 26 636 12 578 19 607 b 37 679 30 651 34 665 b 47 722 40 693 44 707 b 57 767 50 731 53 746 b 68 809 62 788 65 803 l 15 799 l 59 1071 l 383 1132 l 547 919 z m 227 822 l 209 744 l 334 852 z m 373 1148 l 363 1146 l 353 1144 l 342 1142 l 332 1140 l 322 1138 l 310 1136 l 301 1134 l 291 1132 l 279 1130 l 270 1128 l 260 1126 l 248 1124 l 238 1122 l 229 1121 l 217 1119 l 207 1117 l 197 1115 l 185 1113 l 176 1111 l 166 1109 l 154 1107 l 144 1105 l 135 1103 l 123 1101 l 113 1099 l 104 1097 l 92 1095 l 82 1093 l 72 1091 l 61 1089 l 51 1087 l 43 1085 l 41 1074 l 39 1062 l 37 1050 l 35 1039 l 34 1025 l 32 1013 l 30 1002 l 27 988 l 25 976 l 24 964 l 22 951 l 20 939 l 18 927 l 16 916 l 14 902 l 12 890 l 10 879 l 8 865 l 6 853 l 4 842 l 2 828 l 0 816 l -1 804 l -3 793 l -5 779 l -5 777 l 6 775 l 10 773 l 14 771 l 16 769 l 20 767 l 24 765 l 25 764 l 30 762 l 34 760 l 35 758 l 37 755 l 35 748 l 34 740 l 32 732 l 30 724 l 27 716 l 25 707 l 24 699 l 22 691 l 20 684 l 18 676 l 16 668 l 14 660 l 12 652 l 10 643 l 8 635 l 6 627 l 4 619 l 2 611 l 0 604 l -1 596 l -3 586 l -5 578 l -7 570 l -9 563 l -11 555 l -13 547 l -15 539 l -17 531 l -19 522 l -21 514 l -23 506 l -25 498 l -27 490 l -29 483 l -31 475 l -33 469 l -35 461 l -37 455 l -38 449 l -40 441 l -42 436 l -44 430 l -46 424 l -48 416 l -50 410 l -52 405 l -54 397 l -56 391 l -58 385 l -60 377 l -62 371 l -64 366 l -66 359 l -68 352 l -70 346 l -72 340 l -74 332 l -76 327 l -77 320 l -79 315 l -81 307 l -83 301 l -85 295 l -87 288 l -89 281 l -91 276 l -93 268 l -95 262 l -97 256 l -99 251 l -101 242 l -103 237 l -105 231 l -107 223 l -109 217 l -111 211 l -113 205 l -115 198 l -116 192 l -118 186 l -120 178 l -122 172 l -124 166 l -126 160 l -128 153 l -130 147 l -132 141 l -132 133 l -130 129 l -128 123 l -126 120 l -124 116 l -122 110 l -120 106 l -118 100 l -116 96 l -115 92 l -113 86 l -111 82 l -109 79 l -107 73 l -105 69 l -103 63 l -101 59 l -99 55 l -97 49 l -95 45 l -93 40 l -89 40 l -85 41 l -81 41 l -31 40 l 18 38 l 68 36 l 119 34 l 170 32 l 199 32 l 203 34 l 207 36 l 211 38 l 215 40 l 219 41 l 221 43 l 224 45 l 229 47 l 232 49 l 236 52 l 240 53 l 244 55 l 248 57 l 252 59 l 256 61 l 258 63 l 262 65 l 266 67 l 270 69 l 273 71 l 277 73 l 281 75 l 285 77 l 289 79 l 293 81 l 295 82 l 299 84 l 303 86 l 307 89 l 310 91 l 314 92 l 318 94 l 322 96 l 326 98 l 330 100 l 332 102 l 336 104 l 340 106 l 343 108 l 348 110 l 351 112 l 355 114 l 359 116 l 363 118 l 365 120 l 369 121 l 373 123 l 377 125 l 381 127 l 385 129 l 389 131 l 392 133 l 396 135 l 400 137 l 402 139 l 406 141 l 410 143 l 414 145 l 418 147 l 422 149 l 426 151 l 429 153 l 433 155 l 437 157 l 439 159 l 443 160 l 447 162 l 451 164 l 455 166 l 459 168 l 463 171 l 467 172 l 470 174 l 474 176 l 476 178 l 480 180 l 484 182 l 488 184 l 492 186 l 496 188 l 500 190 l 504 192 l 508 194 l 511 196 l 513 198 l 517 200 l 521 201 l 525 203 l 529 205 l 533 208 l 537 210 l 541 211 l 545 213 l 549 215 l 550 217 l 554 219 l 558 221 l 562 223 l 566 225 l 570 227 l 574 229 l 578 231 l 582 233 l 586 235 l 588 237 l 591 239 l 595 240 l 599 242 l 603 244 l 607 247 l 611 249 l 615 251 l 619 252 l 623 254 l 625 256 l 628 258 l 630 260 l 630 264 l 634 264 l 636 268 l 638 280 l 640 291 l 642 303 l 644 315 l 646 327 l 648 338 l 650 350 l 652 361 l 654 373 l 656 385 l 658 397 l 660 410 l 662 422 l 664 434 l 666 446 l 668 457 l 669 469 l 671 480 l 673 492 l 675 504 l 677 516 l 679 528 l 681 539 l 683 551 l 685 563 l 685 578 l 683 582 l 681 584 l 679 586 l 677 588 l 673 590 l 671 592 l 669 594 l 668 596 l 666 598 l 664 600 l 662 602 l 660 604 l 656 606 l 654 608 l 652 609 l 650 611 l 648 613 l 646 615 l 644 617 l 642 619 l 638 621 l 636 623 l 634 625 l 632 627 l 630 629 l 628 631 l 627 633 l 627 635 l 628 637 l 630 638 l 632 641 l 634 643 l 636 645 l 638 647 l 640 648 l 642 650 l 644 652 l 646 654 l 648 656 l 650 658 l 652 660 l 654 662 l 656 664 l 658 666 l 660 668 l 662 670 l 664 672 l 666 674 l 668 676 l 669 677 l 671 682 l 673 684 l 675 685 l 677 687 l 679 689 l 681 691 l 683 693 l 685 695 l 687 697 l 689 699 l 691 701 l 693 703 l 695 705 l 697 707 l 699 709 l 701 711 l 703 713 l 704 714 l 706 716 l 708 719 l 710 721 l 712 723 l 714 724 l 716 726 l 718 728 l 718 742 l 716 744 l 714 746 l 712 748 l 710 752 l 708 753 l 706 755 l 704 760 l 703 762 l 701 764 l 699 767 l 697 769 l 695 771 l 693 773 l 691 777 l 689 779 l 687 781 l 685 785 l 683 787 l 681 789 l 679 791 l 677 794 l 675 797 l 673 799 l 671 803 l 669 804 l 668 806 l 666 808 l 664 812 l 662 814 l 660 816 l 658 820 l 656 822 l 654 824 l 652 828 l 650 830 l 648 832 l 646 833 l 644 838 l 642 840 l 640 842 l 638 845 l 636 847 l 634 849 l 632 851 l 630 855 l 628 857 l 627 859 l 625 863 l 623 865 l 621 867 l 619 869 l 617 873 l 615 874 l 613 877 l 611 881 l 609 883 l 607 884 l 605 888 l 603 890 l 601 892 l 599 894 l 597 898 l 595 900 l 593 902 l 591 906 l 589 908 l 588 910 l 586 912 l 584 916 l 582 918 l 580 920 l 578 922 l 576 925 l 574 927 l 572 929 l 570 931 l 568 935 l 566 937 l 564 939 l 562 941 l 560 943 l 558 947 l 556 949 l 554 951 l 552 952 l 550 957 l 549 959 l 547 961 l 545 963 l 543 964 l 541 968 l 539 970 l 537 972 l 535 974 l 533 978 l 531 980 l 529 982 l 527 984 l 525 986 l 523 990 l 521 992 l 519 994 l 517 996 l 515 1000 l 513 1002 l 511 1003 l 509 1005 l 508 1007 l 506 1011 l 504 1013 l 502 1015 l 500 1017 l 498 1021 l 496 1023 l 494 1025 l 492 1027 l 490 1029 l 488 1033 l 486 1035 l 484 1037 l 482 1039 l 480 1042 l 478 1044 l 476 1046 l 474 1048 l 472 1050 l 470 1054 l 469 1056 l 467 1058 l 465 1060 l 463 1062 l 461 1066 l 459 1068 l 457 1070 l 455 1072 l 453 1076 l 451 1078 l 449 1080 l 447 1082 l 445 1083 l 443 1087 l 441 1089 l 439 1091 l 437 1093 l 435 1097 l 433 1099 l 431 1101 l 429 1103 l 428 1105 l 426 1109 l 424 1111 l 422 1113 l 420 1115 l 418 1119 l 416 1121 l 414 1122 l 412 1124 l 410 1126 l 408 1130 l 406 1132 l 404 1134 l 402 1136 l 400 1140 l 398 1142 l 396 1144 l 394 1146 l 392 1148 l 390 1150 l 385 1150 z "}}}
